STARTFONT 2.1
FONT -FontForge-Geist-Book-R-Normal--24-240-75-75-P-134-ISO10646-1
SIZE 24 75 75
FONTBOUNDINGBOX 61 28 -5 -6
COMMENT "Generated by fontforge, http://fontforge.sourceforge.net"
COMMENT "Copyright 2024 The Geist Project Authors (https://github.com/vercel/geist-font.git)"
STARTPROPERTIES 39
FOUNDRY "FontForge"
FAMILY_NAME "Geist"
WEIGHT_NAME "Book"
SLANT "R"
SETWIDTH_NAME "Normal"
ADD_STYLE_NAME ""
PIXEL_SIZE 24
POINT_SIZE 240
RESOLUTION_X 75
RESOLUTION_Y 75
SPACING "P"
AVERAGE_WIDTH 134
CHARSET_REGISTRY "ISO10646"
CHARSET_ENCODING "1"
FONTNAME_REGISTRY ""
CHARSET_COLLECTIONS "ISO8859-2 ISO8859-5 ISO8859-9 ISO8859-4 ISO10646-1"
FONT_NAME "Geist-Regular"
FACE_NAME "Geist Regular"
COPYRIGHT "Copyright 2024 The Geist Project Authors (https://github.com/vercel/geist-font.git)"
FONT_VERSION "1.401"
FONT_ASCENT 19
FONT_DESCENT 5
UNDERLINE_POSITION -3
UNDERLINE_THICKNESS 2
X_HEIGHT 12
CAP_HEIGHT 16
RAW_ASCENT 800
RAW_DESCENT 200
NORM_SPACE 6
RELATIVE_WEIGHT 40
RELATIVE_SETWIDTH 50
SUPERSCRIPT_X 0
SUPERSCRIPT_Y 8
SUPERSCRIPT_SIZE 14
SUBSCRIPT_X 0
SUBSCRIPT_Y 1
SUBSCRIPT_SIZE 14
AVG_LOWERCASE_WIDTH 132
AVG_UPPERCASE_WIDTH 159
ENDPROPERTIES
CHARS 823
STARTCHAR space
ENCODING 32
SWIDTH 250 0
DWIDTH 6 0
BBX 1 1 0 0
BITMAP
00
ENDCHAR
STARTCHAR exclam
ENCODING 33
SWIDTH 213 0
DWIDTH 5 0
BBX 3 17 1 0
BITMAP
60
60
60
60
60
60
60
60
60
60
40
40
00
00
E0
E0
E0
ENDCHAR
STARTCHAR quotedbl
ENCODING 34
SWIDTH 346 0
DWIDTH 8 0
BBX 6 6 1 11
BITMAP
CC
CC
CC
CC
CC
CC
ENDCHAR
STARTCHAR numbersign
ENCODING 35
SWIDTH 478 0
DWIDTH 11 0
BBX 12 17 0 0
BITMAP
0C60
08C0
08C0
18C0
18C0
7FF0
1880
1180
3180
3180
31A0
FFC0
2300
6300
6300
6300
6200
ENDCHAR
STARTCHAR dollar
ENCODING 36
SWIDTH 629 0
DWIDTH 15 0
BBX 13 21 1 -2
BITMAP
0300
0300
1F80
3FE0
7360
6330
6330
6300
7300
3F00
1FC0
03E0
0370
0338
E318
6318
7330
3FF0
1FE0
0300
0300
ENDCHAR
STARTCHAR percent
ENCODING 37
SWIDTH 802 0
DWIDTH 19 0
BBX 17 17 1 0
BITMAP
7C0600
660C00
C60C00
C21800
C23000
C63000
666000
7CC000
00C000
019F00
033B80
033180
063180
0C3180
183180
183B80
301F00
ENDCHAR
STARTCHAR ampersand
ENCODING 38
SWIDTH 620 0
DWIDTH 15 0
BBX 13 17 1 0
BITMAP
1F80
3F80
31C0
30C0
31C0
3180
1F00
1E00
3E00
7618
E318
C398
C1F0
C0F0
E060
7FF0
3F98
ENDCHAR
STARTCHAR quotesingle
ENCODING 39
SWIDTH 178 0
DWIDTH 4 0
BBX 2 6 1 11
BITMAP
C0
C0
C0
C0
C0
C0
ENDCHAR
STARTCHAR parenleft
ENCODING 40
SWIDTH 274 0
DWIDTH 7 0
BBX 5 21 1 -3
BITMAP
18
30
30
60
60
60
E0
C0
C0
C0
C0
C0
C0
C0
60
60
60
30
30
18
18
ENDCHAR
STARTCHAR parenright
ENCODING 41
SWIDTH 274 0
DWIDTH 7 0
BBX 6 21 0 -3
BITMAP
C0
60
30
30
30
18
18
18
18
18
1C
18
18
18
18
18
30
30
60
60
C0
ENDCHAR
STARTCHAR asterisk
ENCODING 42
SWIDTH 430 0
DWIDTH 10 0
BBX 8 8 1 9
BITMAP
66
34
1C
FF
FF
3C
66
24
ENDCHAR
STARTCHAR plus
ENCODING 43
SWIDTH 558 0
DWIDTH 13 0
BBX 11 12 1 1
BITMAP
0600
0600
0600
0600
0600
FFE0
FFE0
0600
0600
0600
0600
0600
ENDCHAR
STARTCHAR comma
ENCODING 44
SWIDTH 201 0
DWIDTH 5 0
BBX 3 7 1 -4
BITMAP
E0
E0
E0
40
40
C0
80
ENDCHAR
STARTCHAR hyphen
ENCODING 45
SWIDTH 419 0
DWIDTH 10 0
BBX 8 2 1 6
BITMAP
FF
FF
ENDCHAR
STARTCHAR period
ENCODING 46
SWIDTH 201 0
DWIDTH 5 0
BBX 3 3 1 0
BITMAP
E0
E0
E0
ENDCHAR
STARTCHAR slash
ENCODING 47
SWIDTH 480 0
DWIDTH 12 0
BBX 9 21 1 -3
BITMAP
0180
0100
0300
0300
0600
0600
0600
0C00
0C00
0C00
1800
1800
1800
3000
3000
3000
6000
6000
6000
C000
C000
ENDCHAR
STARTCHAR zero
ENCODING 48
SWIDTH 663 0
DWIDTH 16 0
BBX 14 17 1 0
BITMAP
0FC0
1FE0
3030
7038
E01C
E01C
C00C
C00C
C00C
C00C
C00C
E01C
E01C
7038
3030
1FE0
0FC0
ENDCHAR
STARTCHAR one
ENCODING 49
SWIDTH 384 0
DWIDTH 9 0
BBX 6 17 1 0
BITMAP
0C
0C
3C
FC
0C
0C
0C
0C
0C
0C
0C
0C
0C
0C
0C
0C
0C
ENDCHAR
STARTCHAR two
ENCODING 50
SWIDTH 619 0
DWIDTH 15 0
BBX 11 17 2 0
BITMAP
3F80
7FC0
E0E0
C060
C060
0060
0060
01E0
03C0
0F00
1C00
7800
7000
E000
C000
FFE0
FFE0
ENDCHAR
STARTCHAR three
ENCODING 51
SWIDTH 613 0
DWIDTH 15 0
BBX 11 17 2 0
BITMAP
3F80
7FC0
E0E0
C060
0060
00E0
01C0
0F80
0FC0
00E0
0060
0060
C060
C060
C0E0
FFC0
7F80
ENDCHAR
STARTCHAR four
ENCODING 52
SWIDTH 615 0
DWIDTH 15 0
BBX 13 17 1 0
BITMAP
00C0
01C0
03C0
03C0
06C0
0EC0
1CC0
18C0
30C0
70C0
E0C0
FFF8
FFF8
00C0
00C0
00C0
00C0
ENDCHAR
STARTCHAR five
ENCODING 53
SWIDTH 626 0
DWIDTH 15 0
BBX 11 17 2 0
BITMAP
7FC0
7FC0
6000
E000
C000
C000
DF80
FFC0
E0E0
C060
0060
0060
C060
C060
E0E0
7FC0
3F80
ENDCHAR
STARTCHAR six
ENCODING 54
SWIDTH 624 0
DWIDTH 15 0
BBX 11 17 2 0
BITMAP
1F80
3FC0
7060
E060
C000
C000
DF80
FFC0
E0E0
C060
C060
C060
C060
C060
E0E0
7FC0
3F80
ENDCHAR
STARTCHAR seven
ENCODING 55
SWIDTH 524 0
DWIDTH 13 0
BBX 13 17 0 0
BITMAP
FFF8
FFF8
0030
0060
00C0
00C0
0180
0180
0300
0300
0600
0600
0600
0600
0E00
0C00
0C00
ENDCHAR
STARTCHAR eight
ENCODING 56
SWIDTH 604 0
DWIDTH 15 0
BBX 12 17 1 0
BITMAP
1FC0
3FE0
7060
6070
6030
6070
70E0
1FC0
3FE0
7070
E030
C030
C030
C030
E070
7FE0
3FC0
ENDCHAR
STARTCHAR nine
ENCODING 57
SWIDTH 624 0
DWIDTH 15 0
BBX 12 17 1 0
BITMAP
1FC0
3FE0
7060
6030
E030
E030
E030
6030
7070
3FF0
1FB0
0030
0030
0070
00E0
7FC0
7F80
ENDCHAR
STARTCHAR colon
ENCODING 58
SWIDTH 297 0
DWIDTH 7 0
BBX 3 12 2 0
BITMAP
E0
E0
E0
00
00
00
00
00
00
E0
E0
E0
ENDCHAR
STARTCHAR semicolon
ENCODING 59
SWIDTH 297 0
DWIDTH 7 0
BBX 3 16 2 -4
BITMAP
E0
E0
E0
00
00
00
00
00
00
E0
E0
E0
60
40
40
C0
ENDCHAR
STARTCHAR less
ENCODING 60
SWIDTH 544 0
DWIDTH 13 0
BBX 11 12 1 1
BITMAP
0060
01E0
07C0
1E00
7800
E000
E000
F800
3E00
0780
01E0
0060
ENDCHAR
STARTCHAR equal
ENCODING 61
SWIDTH 540 0
DWIDTH 13 0
BBX 11 7 1 4
BITMAP
FFE0
FFE0
0000
0000
0000
FFE0
FFE0
ENDCHAR
STARTCHAR greater
ENCODING 62
SWIDTH 544 0
DWIDTH 13 0
BBX 11 12 1 1
BITMAP
C000
F000
7C00
0F00
03C0
00E0
00E0
03E0
0F80
3C00
F000
C000
ENDCHAR
STARTCHAR question
ENCODING 63
SWIDTH 559 0
DWIDTH 13 0
BBX 11 17 1 0
BITMAP
1F80
7FC0
60E0
E060
C060
0060
00E0
01C0
0380
0700
0600
0600
0000
0000
0E00
0E00
0E00
ENDCHAR
STARTCHAR at
ENCODING 64
SWIDTH 906 0
DWIDTH 22 0
BBX 20 20 1 -3
BITMAP
01FC00
07FF00
0E0180
1800C0
300060
61F660
63FE20
470E30
C60430
C60430
C60C20
C60C60
C60C60
C7B7C0
63E780
600000
300000
1C0C00
0FFC00
01C000
ENDCHAR
STARTCHAR A
ENCODING 65
SWIDTH 668 0
DWIDTH 16 0
BBX 16 17 0 0
BITMAP
03C0
03C0
03C0
0660
0660
0660
0C30
0C30
0C30
1818
1FF8
3FFC
300C
300C
700E
6006
E007
ENDCHAR
STARTCHAR B
ENCODING 66
SWIDTH 680 0
DWIDTH 16 0
BBX 13 17 2 0
BITMAP
FFC0
FFE0
C070
C030
C030
C030
C070
FFE0
FFC0
C0F0
C030
C018
C018
C038
C070
FFF0
FFC0
ENDCHAR
STARTCHAR C
ENCODING 67
SWIDTH 703 0
DWIDTH 17 0
BBX 15 17 1 0
BITMAP
0FF0
1FF8
381C
700C
600E
E000
C000
C000
C000
C000
C000
E006
600E
700C
381C
1FF8
0FF0
ENDCHAR
STARTCHAR D
ENCODING 68
SWIDTH 698 0
DWIDTH 17 0
BBX 14 17 2 0
BITMAP
FF80
FFE0
C0F0
C038
C018
C018
C01C
C01C
C00C
C01C
C01C
C018
C018
C038
C0F0
FFE0
FF80
ENDCHAR
STARTCHAR E
ENCODING 69
SWIDTH 603 0
DWIDTH 14 0
BBX 11 17 2 0
BITMAP
FFE0
FFE0
C000
C000
C000
C000
C000
FFE0
FFE0
C000
C000
C000
C000
C000
C000
FFE0
FFE0
ENDCHAR
STARTCHAR F
ENCODING 70
SWIDTH 590 0
DWIDTH 14 0
BBX 11 17 2 0
BITMAP
FFE0
FFE0
C000
C000
C000
C000
C000
C000
FFC0
FFC0
C000
C000
C000
C000
C000
C000
C000
ENDCHAR
STARTCHAR G
ENCODING 71
SWIDTH 700 0
DWIDTH 17 0
BBX 15 17 1 0
BITMAP
0FE0
1FF8
381C
700C
600E
E00E
C000
C000
C0FE
C0FE
C006
E006
600E
700E
381E
1FF6
0FE6
ENDCHAR
STARTCHAR H
ENCODING 72
SWIDTH 713 0
DWIDTH 17 0
BBX 13 17 2 0
BITMAP
C018
C018
C018
C018
C018
C018
C018
FFF8
FFF8
C018
C018
C018
C018
C018
C018
C018
C018
ENDCHAR
STARTCHAR I
ENCODING 73
SWIDTH 270 0
DWIDTH 6 0
BBX 2 17 2 0
BITMAP
C0
C0
C0
C0
C0
C0
C0
C0
C0
C0
C0
C0
C0
C0
C0
C0
C0
ENDCHAR
STARTCHAR J
ENCODING 74
SWIDTH 597 0
DWIDTH 14 0
BBX 10 17 2 0
BITMAP
00C0
00C0
00C0
00C0
00C0
00C0
00C0
00C0
00C0
00C0
00C0
C0C0
C0C0
C0C0
E1C0
7F80
3F00
ENDCHAR
STARTCHAR K
ENCODING 75
SWIDTH 640 0
DWIDTH 15 0
BBX 12 17 2 0
BITMAP
C060
C060
C0C0
C180
C300
C700
CE00
DC00
FE00
F600
E300
C380
C1C0
C0C0
C060
C070
C030
ENDCHAR
STARTCHAR L
ENCODING 76
SWIDTH 580 0
DWIDTH 14 0
BBX 11 17 2 0
BITMAP
C000
C000
C000
C000
C000
C000
C000
C000
C000
C000
C000
C000
C000
C000
C000
FFE0
FFE0
ENDCHAR
STARTCHAR M
ENCODING 77
SWIDTH 877 0
DWIDTH 21 0
BBX 17 17 2 0
BITMAP
E00380
F00780
F00780
F00780
D80F80
D80D80
DC0D80
CC1980
CC1980
CE3980
C63180
C63180
C77180
C36180
C36180
C1C180
C1C180
ENDCHAR
STARTCHAR N
ENCODING 78
SWIDTH 743 0
DWIDTH 18 0
BBX 14 17 2 0
BITMAP
E00C
F00C
F80C
D80C
DC0C
CC0C
C60C
C60C
C30C
C38C
C18C
C1CC
C0CC
C06C
C06C
C03C
C03C
ENDCHAR
STARTCHAR O
ENCODING 79
SWIDTH 739 0
DWIDTH 18 0
BBX 16 17 1 0
BITMAP
0FF0
1FF8
381C
700E
6006
E007
C007
C007
C007
C007
C007
E007
6006
700E
381C
1FF8
0FF0
ENDCHAR
STARTCHAR P
ENCODING 80
SWIDTH 650 0
DWIDTH 16 0
BBX 12 17 2 0
BITMAP
FF80
FFE0
C070
C030
C030
C030
C030
C070
FFE0
FFC0
C000
C000
C000
C000
C000
C000
C000
ENDCHAR
STARTCHAR Q
ENCODING 81
SWIDTH 733 0
DWIDTH 18 0
BBX 16 20 1 -3
BITMAP
0FF0
1FF8
381C
700C
6006
E007
C003
C003
C003
C003
C003
E007
6007
700F
381E
1FFC
0FFC
000C
000E
000E
ENDCHAR
STARTCHAR R
ENCODING 82
SWIDTH 672 0
DWIDTH 16 0
BBX 12 17 2 0
BITMAP
FFC0
FFE0
C070
C030
C030
C030
C030
C070
FFE0
FFF0
C030
C030
C030
C030
C030
C030
C030
ENDCHAR
STARTCHAR S
ENCODING 83
SWIDTH 640 0
DWIDTH 15 0
BBX 12 17 2 0
BITMAP
3F80
7FC0
E0E0
C060
C060
C060
E000
7E00
1F80
03E0
0070
C030
C030
C030
E070
7FE0
3FC0
ENDCHAR
STARTCHAR T
ENCODING 84
SWIDTH 552 0
DWIDTH 13 0
BBX 13 17 0 0
BITMAP
FFF8
FFF8
0300
0300
0300
0300
0300
0300
0300
0300
0300
0300
0300
0300
0300
0300
0300
ENDCHAR
STARTCHAR U
ENCODING 85
SWIDTH 689 0
DWIDTH 17 0
BBX 13 17 2 0
BITMAP
C018
C018
C018
C018
C018
C018
C018
C018
C018
C018
C018
C018
C018
C018
6030
7FF0
1FC0
ENDCHAR
STARTCHAR V
ENCODING 86
SWIDTH 667 0
DWIDTH 16 0
BBX 14 17 1 0
BITMAP
C00C
C00C
E01C
6018
6018
7038
3030
3030
1860
1860
1860
0CC0
0CC0
0FC0
0780
0780
0780
ENDCHAR
STARTCHAR W
ENCODING 87
SWIDTH 945 0
DWIDTH 23 0
BBX 19 17 2 0
BITMAP
C0E060
C0E060
C0E060
C1E060
C1B0E0
E1B0C0
61B0C0
6330C0
6319C0
731980
331980
361980
360F00
3E0F00
1E0F00
1C0F00
1C0F00
ENDCHAR
STARTCHAR X
ENCODING 88
SWIDTH 606 0
DWIDTH 15 0
BBX 12 17 1 0
BITMAP
C030
E030
7060
30E0
38C0
1980
0F80
0F00
0700
0F00
0D80
19C0
38C0
30E0
6070
E030
C030
ENDCHAR
STARTCHAR Y
ENCODING 89
SWIDTH 576 0
DWIDTH 14 0
BBX 12 17 1 0
BITMAP
C030
C030
E060
60E0
30C0
39C0
1980
1F00
0F00
0600
0600
0600
0600
0600
0600
0600
0600
ENDCHAR
STARTCHAR Z
ENCODING 90
SWIDTH 544 0
DWIDTH 13 0
BBX 11 17 1 0
BITMAP
FFE0
FFE0
00E0
00C0
0180
0380
0300
0600
0E00
1C00
1800
3800
7000
6000
C000
FFE0
FFE0
ENDCHAR
STARTCHAR bracketleft
ENCODING 91
SWIDTH 347 0
DWIDTH 8 0
BBX 6 21 2 -3
BITMAP
FC
FC
C0
C0
C0
C0
C0
C0
C0
C0
C0
C0
C0
C0
C0
C0
C0
C0
C0
FC
FC
ENDCHAR
STARTCHAR backslash
ENCODING 92
SWIDTH 455 0
DWIDTH 11 0
BBX 9 21 1 -3
BITMAP
C000
C000
6000
6000
6000
3000
3000
1000
1800
1800
0800
0C00
0C00
0600
0600
0600
0300
0300
0300
0180
0180
ENDCHAR
STARTCHAR bracketright
ENCODING 93
SWIDTH 347 0
DWIDTH 8 0
BBX 6 21 0 -3
BITMAP
FC
FC
0C
0C
0C
0C
0C
0C
0C
0C
0C
0C
0C
0C
0C
0C
0C
0C
0C
FC
FC
ENDCHAR
STARTCHAR asciicircum
ENCODING 94
SWIDTH 426 0
DWIDTH 10 0
BBX 8 7 1 9
BITMAP
1C
3C
3C
66
66
C3
C3
ENDCHAR
STARTCHAR underscore
ENCODING 95
SWIDTH 557 0
DWIDTH 13 0
BBX 11 2 1 -2
BITMAP
FFE0
FFE0
ENDCHAR
STARTCHAR grave
ENCODING 96
SWIDTH 248 0
DWIDTH 6 0
BBX 4 4 1 14
BITMAP
C0
60
60
30
ENDCHAR
STARTCHAR a
ENCODING 97
SWIDTH 551 0
DWIDTH 13 0
BBX 12 13 1 0
BITMAP
1F00
3F80
60C0
E0C0
0060
03E0
3FE0
7860
E0E0
C0E0
C1E0
F770
7E70
ENDCHAR
STARTCHAR b
ENCODING 98
SWIDTH 595 0
DWIDTH 14 0
BBX 11 17 2 0
BITMAP
C000
C000
C000
C000
CF00
FF80
F1C0
E0E0
C060
C060
C060
C060
C060
E060
E0C0
FFC0
DF80
ENDCHAR
STARTCHAR c
ENCODING 99
SWIDTH 546 0
DWIDTH 13 0
BBX 11 13 1 0
BITMAP
1F00
3FC0
70E0
6060
C040
C000
C000
C000
C040
E060
70E0
3FC0
1F80
ENDCHAR
STARTCHAR d
ENCODING 100
SWIDTH 595 0
DWIDTH 14 0
BBX 11 17 1 0
BITMAP
0060
0060
0060
0060
1F60
3FE0
70E0
6060
C060
C060
C060
C060
C060
E060
70E0
7FE0
1F20
ENDCHAR
STARTCHAR e
ENCODING 101
SWIDTH 561 0
DWIDTH 13 0
BBX 11 13 1 0
BITMAP
1F00
3FC0
70C0
6060
C060
FFE0
FFE0
C000
C000
E060
60E0
3FC0
1F80
ENDCHAR
STARTCHAR f
ENCODING 102
SWIDTH 395 0
DWIDTH 9 0
BBX 8 17 1 0
BITMAP
1F
1F
30
30
FE
FE
30
30
30
30
30
30
30
30
30
30
30
ENDCHAR
STARTCHAR g
ENCODING 103
SWIDTH 594 0
DWIDTH 14 0
BBX 11 17 1 -4
BITMAP
1F60
3FE0
70E0
E060
C060
C060
C060
C060
E060
60E0
7FE0
1F60
0060
E060
70E0
3FC0
0F00
ENDCHAR
STARTCHAR h
ENCODING 104
SWIDTH 581 0
DWIDTH 14 0
BBX 10 17 2 0
BITMAP
C000
C000
C000
C000
CF00
FF80
E1C0
C0C0
C0C0
C0C0
C0C0
C0C0
C0C0
C0C0
C0C0
C0C0
C0C0
ENDCHAR
STARTCHAR i
ENCODING 105
SWIDTH 244 0
DWIDTH 6 0
BBX 2 17 2 0
BITMAP
C0
C0
00
00
C0
C0
C0
C0
C0
C0
C0
C0
C0
C0
C0
C0
C0
ENDCHAR
STARTCHAR j
ENCODING 106
SWIDTH 260 0
DWIDTH 6 0
BBX 4 21 0 -4
BITMAP
30
30
00
00
30
30
30
30
30
30
30
30
30
30
30
30
30
30
30
F0
C0
ENDCHAR
STARTCHAR k
ENCODING 107
SWIDTH 590 0
DWIDTH 14 0
BBX 11 17 2 0
BITMAP
C000
C000
C000
C000
C0E0
C1C0
C380
C700
CE00
DC00
FC00
F600
E700
C380
C180
C0C0
C0E0
ENDCHAR
STARTCHAR l
ENCODING 108
SWIDTH 267 0
DWIDTH 6 0
BBX 4 17 2 0
BITMAP
C0
C0
C0
C0
C0
C0
C0
C0
C0
C0
C0
C0
C0
C0
C0
F0
70
ENDCHAR
STARTCHAR m
ENCODING 109
SWIDTH 877 0
DWIDTH 21 0
BBX 17 13 2 0
BITMAP
DF1E00
FFBF00
E1E380
C1C180
C1C180
C1C180
C1C180
C1C180
C1C180
C1C180
C1C180
C1C180
C1C180
ENDCHAR
STARTCHAR n
ENCODING 110
SWIDTH 581 0
DWIDTH 14 0
BBX 10 13 2 0
BITMAP
CF00
FF80
E1C0
C0C0
C0C0
C0C0
C0C0
C0C0
C0C0
C0C0
C0C0
C0C0
C0C0
ENDCHAR
STARTCHAR o
ENCODING 111
SWIDTH 573 0
DWIDTH 14 0
BBX 12 13 1 0
BITMAP
1F00
3FC0
70E0
6060
C060
C070
C030
C030
C070
E060
70E0
3FC0
1F80
ENDCHAR
STARTCHAR p
ENCODING 112
SWIDTH 595 0
DWIDTH 14 0
BBX 11 17 2 -4
BITMAP
CF00
FF80
F1C0
E0E0
C060
C060
C060
C060
C060
C060
E0C0
FFC0
DF80
C000
C000
C000
C000
ENDCHAR
STARTCHAR q
ENCODING 113
SWIDTH 595 0
DWIDTH 14 0
BBX 11 17 1 -4
BITMAP
1F60
3FE0
70E0
6060
C060
C060
C060
C060
C060
E060
60E0
3FE0
1F60
0060
0060
0060
0060
ENDCHAR
STARTCHAR r
ENCODING 114
SWIDTH 379 0
DWIDTH 9 0
BBX 6 13 2 0
BITMAP
CC
FC
E0
C0
C0
C0
C0
C0
C0
C0
C0
C0
C0
ENDCHAR
STARTCHAR s
ENCODING 115
SWIDTH 524 0
DWIDTH 13 0
BBX 11 13 1 0
BITMAP
1F00
7F80
61C0
E0C0
E000
7000
3F00
0FC0
00C0
C0E0
E0C0
7FC0
3F80
ENDCHAR
STARTCHAR t
ENCODING 116
SWIDTH 392 0
DWIDTH 9 0
BBX 8 16 1 0
BITMAP
30
30
30
FF
FF
30
30
30
30
30
30
30
30
30
3F
1F
ENDCHAR
STARTCHAR u
ENCODING 117
SWIDTH 575 0
DWIDTH 14 0
BBX 10 13 2 0
BITMAP
C0C0
C0C0
C0C0
C0C0
C0C0
C0C0
C0C0
C0C0
C0C0
C0C0
C1C0
7FC0
3EC0
ENDCHAR
STARTCHAR v
ENCODING 118
SWIDTH 536 0
DWIDTH 13 0
BBX 11 13 1 0
BITMAP
C060
C060
E0E0
60C0
60C0
7180
3180
3180
1B00
1B00
1B00
0E00
0E00
ENDCHAR
STARTCHAR w
ENCODING 119
SWIDTH 819 0
DWIDTH 20 0
BBX 18 13 1 0
BITMAP
C0C0C0
C1C0C0
C1E180
61E180
616180
636380
633300
333300
363300
361E00
1E1E00
1C1E00
1C1C00
ENDCHAR
STARTCHAR x
ENCODING 120
SWIDTH 585 0
DWIDTH 14 0
BBX 12 13 1 0
BITMAP
E070
70E0
30C0
1980
1F80
0F00
0600
0F00
1F80
1980
30C0
7060
E070
ENDCHAR
STARTCHAR y
ENCODING 121
SWIDTH 537 0
DWIDTH 13 0
BBX 11 17 1 -4
BITMAP
C060
C060
E0E0
60C0
60C0
7180
3180
3180
1B00
1B00
1B00
0E00
0E00
0600
0C00
7C00
7000
ENDCHAR
STARTCHAR z
ENCODING 122
SWIDTH 549 0
DWIDTH 13 0
BBX 11 13 1 0
BITMAP
7FE0
7FE0
00C0
01C0
0380
0700
0E00
1C00
1800
3000
6000
FFE0
FFE0
ENDCHAR
STARTCHAR braceleft
ENCODING 123
SWIDTH 389 0
DWIDTH 9 0
BBX 8 21 1 -3
BITMAP
07
1F
18
18
10
10
10
30
30
E0
C0
70
30
30
10
10
10
18
18
0F
07
ENDCHAR
STARTCHAR bar
ENCODING 124
SWIDTH 264 0
DWIDTH 6 0
BBX 2 21 2 -3
BITMAP
C0
C0
C0
C0
C0
C0
C0
C0
C0
C0
C0
C0
C0
C0
C0
C0
C0
C0
C0
C0
C0
ENDCHAR
STARTCHAR braceright
ENCODING 125
SWIDTH 389 0
DWIDTH 9 0
BBX 8 21 0 -3
BITMAP
F0
F8
1C
0C
0C
0C
0C
0C
0C
07
03
07
0C
0C
0C
0C
0C
0C
18
F8
E0
ENDCHAR
STARTCHAR asciitilde
ENCODING 126
SWIDTH 523 0
DWIDTH 13 0
BBX 11 4 1 6
BITMAP
7860
FCC0
C7C0
C780
ENDCHAR
STARTCHAR uni00A0
ENCODING 160
SWIDTH 250 0
DWIDTH 6 0
BBX 1 1 0 0
BITMAP
00
ENDCHAR
STARTCHAR exclamdown
ENCODING 161
SWIDTH 213 0
DWIDTH 5 0
BBX 3 17 1 -4
BITMAP
E0
E0
E0
00
00
40
40
60
60
60
60
60
60
60
60
60
60
ENDCHAR
STARTCHAR cent
ENCODING 162
SWIDTH 546 0
DWIDTH 13 0
BBX 11 17 1 0
BITMAP
0600
0600
1F80
3FC0
76E0
6660
C600
C600
C600
C400
C460
6460
7CE0
3FC0
1F00
0C00
0C00
ENDCHAR
STARTCHAR sterling
ENCODING 163
SWIDTH 611 0
DWIDTH 15 0
BBX 13 17 1 0
BITMAP
0FE0
1FF0
3870
3038
3000
3000
3000
1800
FF80
1800
1800
1800
1800
3000
6000
FFF0
FFF0
ENDCHAR
STARTCHAR currency
ENCODING 164
SWIDTH 624 0
DWIDTH 15 0
BBX 13 13 1 2
BITMAP
4010
E038
7FF0
3DE0
3060
2020
6030
6020
3060
38E0
7FF0
E738
4010
ENDCHAR
STARTCHAR yen
ENCODING 165
SWIDTH 576 0
DWIDTH 14 0
BBX 14 17 0 0
BITMAP
E01C
6018
7030
3070
1860
1CE0
0CC0
0F80
3FF8
3FF8
0300
0300
3FF8
3FF8
0300
0300
0300
ENDCHAR
STARTCHAR brokenbar
ENCODING 166
SWIDTH 264 0
DWIDTH 6 0
BBX 2 21 2 -3
BITMAP
C0
C0
C0
C0
C0
C0
C0
C0
C0
00
00
00
C0
C0
C0
C0
C0
C0
C0
C0
C0
ENDCHAR
STARTCHAR section
ENCODING 167
SWIDTH 549 0
DWIDTH 13 0
BBX 11 19 1 -2
BITMAP
3F80
7FC0
60E0
6060
7000
3E00
3F80
60C0
6060
6060
70E0
3FC0
07C0
00E0
C060
6060
79C0
3F80
0400
ENDCHAR
STARTCHAR dieresis
ENCODING 168
SWIDTH 350 0
DWIDTH 8 0
BBX 6 2 1 15
BITMAP
CC
CC
ENDCHAR
STARTCHAR copyright
ENCODING 169
SWIDTH 828 0
DWIDTH 20 0
BBX 18 17 1 0
BITMAP
07F800
1FFC00
380E00
30C300
63F180
673980
CE18C0
CC00C0
CC00C0
CC04C0
CE18C0
673980
63F180
304300
3C0E00
0FFC00
07F800
ENDCHAR
STARTCHAR ordfeminine
ENCODING 170
SWIDTH 401 0
DWIDTH 10 0
BBX 8 8 1 9
BITMAP
7C
E6
06
3E
E6
C6
FF
7B
ENDCHAR
STARTCHAR guillemotleft
ENCODING 171
SWIDTH 533 0
DWIDTH 13 0
BBX 11 9 1 2
BITMAP
1DE0
3180
6300
E600
C600
E700
7300
3180
1CE0
ENDCHAR
STARTCHAR logicalnot
ENCODING 172
SWIDTH 500 0
DWIDTH 12 0
BBX 10 6 1 2
BITMAP
FFC0
FFC0
00C0
00C0
00C0
00C0
ENDCHAR
STARTCHAR registered
ENCODING 174
SWIDTH 635 0
DWIDTH 15 0
BBX 13 13 1 4
BITMAP
1FC0
3060
6030
4F98
C888
8888
8F08
C908
C998
68D0
3030
1FC0
0700
ENDCHAR
STARTCHAR macron
ENCODING 175
SWIDTH 356 0
DWIDTH 9 0
BBX 6 2 1 15
BITMAP
FC
FC
ENDCHAR
STARTCHAR degree
ENCODING 176
SWIDTH 404 0
DWIDTH 10 0
BBX 8 7 1 10
BITMAP
7C
66
C3
C3
C6
7E
3C
ENDCHAR
STARTCHAR plusminus
ENCODING 177
SWIDTH 538 0
DWIDTH 13 0
BBX 11 14 1 0
BITMAP
0400
0400
0400
0400
0400
FFE0
FFE0
0400
0400
0400
0400
0000
FFE0
FFE0
ENDCHAR
STARTCHAR uni00B2
ENCODING 178
SWIDTH 348 0
DWIDTH 8 0
BBX 6 9 1 8
BITMAP
7C
CC
C4
04
1C
70
C0
C0
FC
ENDCHAR
STARTCHAR uni00B3
ENCODING 179
SWIDTH 332 0
DWIDTH 8 0
BBX 7 9 0 8
BITMAP
3C
66
06
0C
1C
06
82
46
7C
ENDCHAR
STARTCHAR acute
ENCODING 180
SWIDTH 248 0
DWIDTH 6 0
BBX 4 3 1 14
BITMAP
70
60
C0
ENDCHAR
STARTCHAR uni00B5
ENCODING 181
SWIDTH 575 0
DWIDTH 14 0
BBX 10 17 2 -4
BITMAP
C0C0
C0C0
C0C0
C0C0
C0C0
C0C0
C0C0
C0C0
C0C0
C0C0
C1C0
FFC0
FEC0
C000
C000
C000
C000
ENDCHAR
STARTCHAR paragraph
ENCODING 182
SWIDTH 596 0
DWIDTH 14 0
BBX 11 17 1 0
BITMAP
1FE0
7FE0
7F60
FF60
FF60
FF60
FF60
7F60
3F60
0F60
0360
0360
0360
0360
0360
0360
0360
ENDCHAR
STARTCHAR periodcentered
ENCODING 183
SWIDTH 201 0
DWIDTH 5 0
BBX 3 3 1 6
BITMAP
E0
E0
E0
ENDCHAR
STARTCHAR cedilla
ENCODING 184
SWIDTH 317 0
DWIDTH 8 0
BBX 6 5 1 -5
BITMAP
30
38
0C
C8
78
ENDCHAR
STARTCHAR uni00B9
ENCODING 185
SWIDTH 242 0
DWIDTH 6 0
BBX 4 9 0 8
BITMAP
10
10
F0
10
10
10
10
10
10
ENDCHAR
STARTCHAR ordmasculine
ENCODING 186
SWIDTH 419 0
DWIDTH 10 0
BBX 8 8 1 9
BITMAP
7E
E7
C3
C3
C3
C3
7E
3C
ENDCHAR
STARTCHAR guillemotright
ENCODING 187
SWIDTH 537 0
DWIDTH 13 0
BBX 11 9 1 2
BITMAP
E700
3380
39C0
1CE0
0C60
1CC0
39C0
7380
E700
ENDCHAR
STARTCHAR onequarter
ENCODING 188
SWIDTH 732 0
DWIDTH 18 0
BBX 17 17 0 0
BITMAP
100700
100600
F00C00
101800
101800
103000
106000
104000
10C300
018700
030F00
030B00
061300
0C3300
0C3F80
180300
300300
ENDCHAR
STARTCHAR onehalf
ENCODING 189
SWIDTH 800 0
DWIDTH 19 0
BBX 18 17 0 0
BITMAP
100700
100600
F00C00
101800
101800
103000
106000
104000
10C780
018CC0
030840
0300C0
060180
0C0700
0C0C00
180C00
300FC0
ENDCHAR
STARTCHAR threequarters
ENCODING 190
SWIDTH 782 0
DWIDTH 19 0
BBX 18 17 0 0
BITMAP
3C0180
660300
060600
0C0C00
1C0C00
061800
823000
463000
7C6180
00C380
00C380
018580
030D80
031980
061FC0
0C0180
180180
ENDCHAR
STARTCHAR questiondown
ENCODING 191
SWIDTH 559 0
DWIDTH 13 0
BBX 11 18 1 -4
BITMAP
0E00
0E00
0E00
0000
0000
0600
0600
0C00
1C00
3800
6000
E000
C060
C060
E0E0
71C0
3F80
1F00
ENDCHAR
STARTCHAR Agrave
ENCODING 192
SWIDTH 668 0
DWIDTH 16 0
BBX 16 22 0 0
BITMAP
0600
0300
0100
0180
0000
03C0
03C0
03C0
0660
0660
0660
0C30
0C30
0C30
1818
1FF8
3FFC
300C
300C
700E
6006
E007
ENDCHAR
STARTCHAR Aacute
ENCODING 193
SWIDTH 668 0
DWIDTH 16 0
BBX 16 21 0 0
BITMAP
00E0
00C0
0180
0000
03C0
03C0
03C0
0660
0660
0660
0C30
0C30
0C30
1818
1FF8
3FFC
300C
300C
700E
6006
E007
ENDCHAR
STARTCHAR Acircumflex
ENCODING 194
SWIDTH 668 0
DWIDTH 16 0
BBX 16 22 0 0
BITMAP
0180
03C0
0660
0620
0000
03C0
03C0
03C0
0660
0660
0660
0C30
0C30
0C30
1818
1FF8
3FFC
300C
300C
700E
6006
E007
ENDCHAR
STARTCHAR Atilde
ENCODING 195
SWIDTH 669 0
DWIDTH 16 0
BBX 16 22 0 0
BITMAP
0020
0720
09E0
0800
0000
03C0
03C0
03C0
0660
0660
0660
0C30
0C30
0C30
1818
1FF8
3FFC
300C
300C
700E
6006
E007
ENDCHAR
STARTCHAR Adieresis
ENCODING 196
SWIDTH 668 0
DWIDTH 16 0
BBX 16 21 0 0
BITMAP
0660
0660
0000
0000
03C0
03C0
03C0
0660
0660
0660
0C30
0C30
0C30
1818
1FF8
3FFC
300C
300C
700E
6006
E007
ENDCHAR
STARTCHAR Aring
ENCODING 197
SWIDTH 669 0
DWIDTH 16 0
BBX 16 22 0 0
BITMAP
03C0
0240
0240
03C0
0000
03C0
03C0
03C0
0660
0660
0660
0C30
0C30
0C30
1818
1FF8
3FFC
300C
300C
700E
6006
E007
ENDCHAR
STARTCHAR AE
ENCODING 198
SWIDTH 972 0
DWIDTH 23 0
BBX 22 17 0 0
BITMAP
007FFC
007FFC
00CC00
00CC00
018C00
018C00
030C00
030FF8
060FF8
0E0C00
0FFC00
1FFC00
180C00
380C00
300C00
700FFC
E00FFC
ENDCHAR
STARTCHAR Ccedilla
ENCODING 199
SWIDTH 703 0
DWIDTH 17 0
BBX 15 22 1 -5
BITMAP
0FF0
1FF8
381C
700C
600E
E008
C000
C000
C000
C000
C000
E006
600E
700C
381C
1FF8
0FF0
0100
03C0
0040
0440
07C0
ENDCHAR
STARTCHAR Egrave
ENCODING 200
SWIDTH 603 0
DWIDTH 14 0
BBX 11 22 2 0
BITMAP
1800
1800
0C00
0600
0000
FFE0
FFE0
C000
C000
C000
C000
C000
FFE0
FFE0
C000
C000
C000
C000
C000
C000
FFE0
FFE0
ENDCHAR
STARTCHAR Eacute
ENCODING 201
SWIDTH 603 0
DWIDTH 14 0
BBX 11 21 2 0
BITMAP
0380
0600
0400
0000
FFE0
FFE0
C000
C000
C000
C000
C000
FFE0
FFE0
C000
C000
C000
C000
C000
C000
FFE0
FFE0
ENDCHAR
STARTCHAR Ecircumflex
ENCODING 202
SWIDTH 603 0
DWIDTH 14 0
BBX 11 22 2 0
BITMAP
0E00
0E00
1B00
3180
0000
FFE0
FFE0
C000
C000
C000
C000
C000
FFE0
FFE0
C000
C000
C000
C000
C000
C000
FFE0
FFE0
ENDCHAR
STARTCHAR Edieresis
ENCODING 203
SWIDTH 603 0
DWIDTH 14 0
BBX 11 21 2 0
BITMAP
3980
3980
0000
0000
FFE0
FFE0
C000
C000
C000
C000
C000
FFE0
FFE0
C000
C000
C000
C000
C000
C000
FFE0
FFE0
ENDCHAR
STARTCHAR Igrave
ENCODING 204
SWIDTH 270 0
DWIDTH 6 0
BBX 4 22 0 0
BITMAP
E0
60
30
30
00
30
30
30
30
30
30
30
30
30
30
30
30
30
30
30
30
30
ENDCHAR
STARTCHAR Iacute
ENCODING 205
SWIDTH 270 0
DWIDTH 6 0
BBX 4 21 2 0
BITMAP
70
60
C0
00
C0
C0
C0
C0
C0
C0
C0
C0
C0
C0
C0
C0
C0
C0
C0
C0
C0
ENDCHAR
STARTCHAR Icircumflex
ENCODING 206
SWIDTH 270 0
DWIDTH 6 0
BBX 7 22 0 0
BITMAP
30
78
4C
C6
00
30
30
30
30
30
30
30
30
30
30
30
30
30
30
30
30
30
ENDCHAR
STARTCHAR Idieresis
ENCODING 207
SWIDTH 270 0
DWIDTH 6 0
BBX 6 21 0 0
BITMAP
CC
CC
00
00
30
30
30
30
30
30
30
30
30
30
30
30
30
30
30
30
30
ENDCHAR
STARTCHAR Eth
ENCODING 208
SWIDTH 698 0
DWIDTH 17 0
BBX 16 17 0 0
BITMAP
3FE0
3FF8
303C
300E
3006
3006
3007
3007
FF83
FF87
3007
3006
3006
300E
303C
3FF8
3FE0
ENDCHAR
STARTCHAR Ntilde
ENCODING 209
SWIDTH 743 0
DWIDTH 18 0
BBX 14 22 2 0
BITMAP
0020
0F20
09C0
1800
0000
E00C
F00C
F80C
D80C
DC0C
CC0C
C60C
C60C
C30C
C38C
C18C
C1CC
C0CC
C06C
C06C
C03C
C03C
ENDCHAR
STARTCHAR Ograve
ENCODING 210
SWIDTH 739 0
DWIDTH 18 0
BBX 16 22 1 0
BITMAP
0600
0300
0300
0180
0000
0FF0
1FF8
381C
700E
6006
E006
C007
C007
C007
C007
C007
E006
6006
700E
381C
1FF8
0FF0
ENDCHAR
STARTCHAR Oacute
ENCODING 211
SWIDTH 739 0
DWIDTH 18 0
BBX 16 21 1 0
BITMAP
00E0
0080
0180
0000
0FF0
1FF8
381C
700E
6006
E006
C007
C007
C007
C007
C007
E006
6006
700E
381C
1FF8
0FF0
ENDCHAR
STARTCHAR Ocircumflex
ENCODING 212
SWIDTH 739 0
DWIDTH 18 0
BBX 16 22 1 0
BITMAP
0180
03C0
0640
0460
0000
0FF0
1FF8
381C
700E
6006
E006
C007
C007
C007
C007
C007
E006
6006
700E
381C
1FF8
0FF0
ENDCHAR
STARTCHAR Otilde
ENCODING 213
SWIDTH 739 0
DWIDTH 18 0
BBX 16 22 1 0
BITMAP
0030
0720
0DE0
0800
0000
0FF0
1FF8
381C
700E
6006
E006
C007
C007
C007
C007
C007
E006
6006
700E
381C
1FF8
0FF0
ENDCHAR
STARTCHAR Odieresis
ENCODING 214
SWIDTH 739 0
DWIDTH 18 0
BBX 16 21 1 0
BITMAP
0660
0660
0000
0000
0FF0
1FF8
381C
700E
6006
E006
C007
C007
C007
C007
C007
E006
6006
700E
381C
1FF8
0FF0
ENDCHAR
STARTCHAR multiply
ENCODING 215
SWIDTH 502 0
DWIDTH 12 0
BBX 10 10 1 2
BITMAP
4080
E1C0
7380
3F00
1E00
1E00
3F00
7380
E1C0
4080
ENDCHAR
STARTCHAR Oslash
ENCODING 216
SWIDTH 739 0
DWIDTH 18 0
BBX 16 17 1 0
BITMAP
0FFE
1FFC
381C
703E
6036
E066
C0C7
C0C7
C187
C307
C707
E606
6C06
780E
381C
3FF8
6FF0
ENDCHAR
STARTCHAR Ugrave
ENCODING 217
SWIDTH 689 0
DWIDTH 17 0
BBX 13 22 2 0
BITMAP
1C00
0C00
0600
0200
0000
C018
C018
C018
C018
C018
C018
C018
C018
C018
C018
C018
C018
C038
C030
6070
7FE0
1FC0
ENDCHAR
STARTCHAR Uacute
ENCODING 218
SWIDTH 689 0
DWIDTH 17 0
BBX 13 21 2 0
BITMAP
0380
0300
0600
0000
C018
C018
C018
C018
C018
C018
C018
C018
C018
C018
C018
C018
C038
C030
6070
7FE0
1FC0
ENDCHAR
STARTCHAR Ucircumflex
ENCODING 219
SWIDTH 689 0
DWIDTH 17 0
BBX 13 22 2 0
BITMAP
0600
0F00
0D80
18C0
0000
C018
C018
C018
C018
C018
C018
C018
C018
C018
C018
C018
C018
C038
C030
6070
7FE0
1FC0
ENDCHAR
STARTCHAR Udieresis
ENCODING 220
SWIDTH 689 0
DWIDTH 17 0
BBX 13 21 2 0
BITMAP
1980
1980
0000
0000
C018
C018
C018
C018
C018
C018
C018
C018
C018
C018
C018
C018
C038
C030
6070
7FE0
1FC0
ENDCHAR
STARTCHAR Yacute
ENCODING 221
SWIDTH 576 0
DWIDTH 14 0
BBX 14 21 0 0
BITMAP
01C0
0180
0300
0000
E01C
6018
7030
3070
1860
1CE0
0CC0
0F80
0780
0300
0300
0300
0300
0300
0300
0300
0300
ENDCHAR
STARTCHAR Thorn
ENCODING 222
SWIDTH 620 0
DWIDTH 15 0
BBX 12 17 2 0
BITMAP
C000
C000
C000
FF00
FFC0
C0E0
C060
C070
C070
C060
C060
FFE0
FF80
C000
C000
C000
C000
ENDCHAR
STARTCHAR germandbls
ENCODING 223
SWIDTH 587 0
DWIDTH 14 0
BBX 11 17 2 0
BITMAP
3F00
7F80
E1C0
C0C0
C0C0
C0C0
C180
CF00
CF80
C0C0
C060
C060
C060
C060
C0E0
CFC0
CF00
ENDCHAR
STARTCHAR agrave
ENCODING 224
SWIDTH 551 0
DWIDTH 13 0
BBX 12 18 1 0
BITMAP
1800
0C00
0C00
0600
0000
1F00
3F80
60C0
E0C0
0060
03E0
3FE0
7860
E0E0
C0E0
C1E0
F770
7E70
ENDCHAR
STARTCHAR aacute
ENCODING 225
SWIDTH 551 0
DWIDTH 13 0
BBX 12 17 1 0
BITMAP
0380
0600
0600
0000
1F00
3F80
60C0
E0C0
0060
03E0
3FE0
7860
E0E0
C0E0
C1E0
F770
7E70
ENDCHAR
STARTCHAR acircumflex
ENCODING 226
SWIDTH 551 0
DWIDTH 13 0
BBX 12 18 1 0
BITMAP
0E00
0F00
1B00
3180
0000
1F00
3F80
60C0
E0C0
0060
03E0
3FE0
7860
E0E0
C0E0
C1E0
F770
7E70
ENDCHAR
STARTCHAR atilde
ENCODING 227
SWIDTH 551 0
DWIDTH 13 0
BBX 12 18 1 0
BITMAP
0080
1C80
2780
2000
0000
1F00
3F80
60C0
E0C0
0060
03E0
3FE0
7860
E0E0
C0E0
C1E0
F770
7E70
ENDCHAR
STARTCHAR adieresis
ENCODING 228
SWIDTH 551 0
DWIDTH 13 0
BBX 12 17 1 0
BITMAP
1980
1980
0000
0000
1F00
3F80
60C0
E0C0
0060
03E0
3FE0
7860
E0E0
C0E0
C1E0
F770
7E70
ENDCHAR
STARTCHAR aring
ENCODING 229
SWIDTH 551 0
DWIDTH 13 0
BBX 12 18 1 0
BITMAP
0E00
1900
0B00
0E00
0000
1F00
3F80
60C0
E0C0
0060
03E0
3FE0
7860
E0E0
C0E0
C1E0
F770
7E70
ENDCHAR
STARTCHAR ae
ENCODING 230
SWIDTH 919 0
DWIDTH 22 0
BBX 20 13 1 0
BITMAP
1F0F80
3FBFC0
60F0E0
E0E060
006030
01FFF0
3FFFF0
786000
E06000
C0E030
C0B060
F7BFE0
7F1F80
ENDCHAR
STARTCHAR ccedilla
ENCODING 231
SWIDTH 546 0
DWIDTH 13 0
BBX 11 18 1 -5
BITMAP
1F00
3FC0
70E0
6060
C040
C000
C000
C000
C040
E060
70E0
3FC0
1F80
0400
0F00
0100
1100
0F00
ENDCHAR
STARTCHAR egrave
ENCODING 232
SWIDTH 561 0
DWIDTH 13 0
BBX 11 18 1 0
BITMAP
1800
0C00
0C00
0600
0000
1F00
3FC0
70C0
6060
C060
FFE0
FFE0
C000
C000
E060
60E0
3FC0
1F80
ENDCHAR
STARTCHAR eacute
ENCODING 233
SWIDTH 561 0
DWIDTH 13 0
BBX 11 17 1 0
BITMAP
0380
0200
0600
0000
1F00
3FC0
70C0
6060
C060
FFE0
FFE0
C000
C000
E060
60E0
3FC0
1F80
ENDCHAR
STARTCHAR ecircumflex
ENCODING 234
SWIDTH 561 0
DWIDTH 13 0
BBX 11 18 1 0
BITMAP
0600
0F00
1900
1180
0000
1F00
3FC0
70C0
6060
C060
FFE0
FFE0
C000
C000
E060
60E0
3FC0
1F80
ENDCHAR
STARTCHAR edieresis
ENCODING 235
SWIDTH 561 0
DWIDTH 13 0
BBX 11 17 1 0
BITMAP
1980
1980
0000
0000
1F00
3FC0
70C0
6060
C060
FFE0
FFE0
C000
C000
E060
60E0
3FC0
1F80
ENDCHAR
STARTCHAR igrave
ENCODING 236
SWIDTH 244 0
DWIDTH 6 0
BBX 4 18 0 0
BITMAP
C0
60
60
30
00
30
30
30
30
30
30
30
30
30
30
30
30
30
ENDCHAR
STARTCHAR iacute
ENCODING 237
SWIDTH 244 0
DWIDTH 6 0
BBX 4 17 2 0
BITMAP
70
60
C0
00
C0
C0
C0
C0
C0
C0
C0
C0
C0
C0
C0
C0
C0
ENDCHAR
STARTCHAR icircumflex
ENCODING 238
SWIDTH 244 0
DWIDTH 6 0
BBX 6 18 0 0
BITMAP
30
78
C8
8C
00
30
30
30
30
30
30
30
30
30
30
30
30
30
ENDCHAR
STARTCHAR idieresis
ENCODING 239
SWIDTH 244 0
DWIDTH 6 0
BBX 6 17 0 0
BITMAP
CC
CC
00
00
30
30
30
30
30
30
30
30
30
30
30
30
30
ENDCHAR
STARTCHAR eth
ENCODING 240
SWIDTH 573 0
DWIDTH 14 0
BBX 12 17 1 0
BITMAP
1E10
1FF0
07C0
0EC0
00E0
1F60
3FE0
70E0
E070
C070
C030
C070
C070
E060
60E0
3FC0
1F80
ENDCHAR
STARTCHAR ntilde
ENCODING 241
SWIDTH 581 0
DWIDTH 14 0
BBX 10 18 2 0
BITMAP
0180
3980
6F00
4000
0000
CF00
FF80
E1C0
C0C0
C0C0
C0C0
C0C0
C0C0
C0C0
C0C0
C0C0
C0C0
C0C0
ENDCHAR
STARTCHAR ograve
ENCODING 242
SWIDTH 573 0
DWIDTH 14 0
BBX 12 18 1 0
BITMAP
1800
0C00
0C00
0600
0000
1F00
3FC0
70E0
6060
C060
C070
C030
C030
C070
E060
70E0
3FC0
1F80
ENDCHAR
STARTCHAR oacute
ENCODING 243
SWIDTH 573 0
DWIDTH 14 0
BBX 12 17 1 0
BITMAP
0380
0200
0600
0000
1F00
3FC0
70E0
6060
C060
C070
C030
C030
C070
E060
70E0
3FC0
1F80
ENDCHAR
STARTCHAR ocircumflex
ENCODING 244
SWIDTH 573 0
DWIDTH 14 0
BBX 12 18 1 0
BITMAP
0600
0F00
1900
1180
0000
1F00
3FC0
70E0
6060
C060
C070
C030
C030
C070
E060
70E0
3FC0
1F80
ENDCHAR
STARTCHAR otilde
ENCODING 245
SWIDTH 573 0
DWIDTH 14 0
BBX 12 18 1 0
BITMAP
00C0
1CC0
3780
2000
0000
1F00
3FC0
70E0
6060
C060
C070
C030
C030
C070
E060
70E0
3FC0
1F80
ENDCHAR
STARTCHAR odieresis
ENCODING 246
SWIDTH 573 0
DWIDTH 14 0
BBX 12 17 1 0
BITMAP
1980
1980
0000
0000
1F00
3FC0
70E0
6060
C060
C070
C030
C030
C070
E060
70E0
3FC0
1F80
ENDCHAR
STARTCHAR divide
ENCODING 247
SWIDTH 540 0
DWIDTH 13 0
BBX 11 12 1 1
BITMAP
0E00
0E00
0E00
0000
0000
FFE0
FFE0
0000
0000
0E00
0E00
0400
ENDCHAR
STARTCHAR oslash
ENCODING 248
SWIDTH 573 0
DWIDTH 14 0
BBX 12 13 1 0
BITMAP
1F60
3FC0
70E0
61E0
C360
C370
C630
CC30
CC70
F860
70E0
3FC0
FF80
ENDCHAR
STARTCHAR ugrave
ENCODING 249
SWIDTH 575 0
DWIDTH 14 0
BBX 10 18 2 0
BITMAP
3000
1800
1800
0C00
0000
C0C0
C0C0
C0C0
C0C0
C0C0
C0C0
C0C0
C0C0
C0C0
C0C0
C1C0
7FC0
3EC0
ENDCHAR
STARTCHAR uacute
ENCODING 250
SWIDTH 575 0
DWIDTH 14 0
BBX 10 17 2 0
BITMAP
0700
0400
0C00
0000
C0C0
C0C0
C0C0
C0C0
C0C0
C0C0
C0C0
C0C0
C0C0
C0C0
C1C0
7FC0
3EC0
ENDCHAR
STARTCHAR ucircumflex
ENCODING 251
SWIDTH 575 0
DWIDTH 14 0
BBX 10 18 2 0
BITMAP
0C00
1E00
3200
2300
0000
C0C0
C0C0
C0C0
C0C0
C0C0
C0C0
C0C0
C0C0
C0C0
C0C0
C1C0
7FC0
3EC0
ENDCHAR
STARTCHAR udieresis
ENCODING 252
SWIDTH 575 0
DWIDTH 14 0
BBX 10 17 2 0
BITMAP
3300
3300
0000
0000
C0C0
C0C0
C0C0
C0C0
C0C0
C0C0
C0C0
C0C0
C0C0
C0C0
C1C0
7FC0
3EC0
ENDCHAR
STARTCHAR yacute
ENCODING 253
SWIDTH 537 0
DWIDTH 13 0
BBX 11 21 1 -4
BITMAP
0300
0600
0400
0000
C060
C060
E0E0
60C0
60C0
7180
3180
3180
1B00
1B00
1B00
0E00
0E00
0600
0C00
7C00
7000
ENDCHAR
STARTCHAR thorn
ENCODING 254
SWIDTH 595 0
DWIDTH 14 0
BBX 11 21 2 -4
BITMAP
C000
C000
C000
C000
DF00
FFC0
E0C0
E0E0
C060
C060
C060
C060
C060
C0E0
E0C0
FFC0
DF80
C000
C000
C000
C000
ENDCHAR
STARTCHAR ydieresis
ENCODING 255
SWIDTH 537 0
DWIDTH 13 0
BBX 11 21 1 -4
BITMAP
3380
3380
0000
0000
C060
C060
E0E0
60C0
60C0
7180
3180
3180
1B00
1B00
1B00
0E00
0E00
0600
0C00
7C00
7000
ENDCHAR
STARTCHAR Amacron
ENCODING 256
SWIDTH 668 0
DWIDTH 16 0
BBX 16 21 0 0
BITMAP
07E0
07E0
0000
0000
03C0
03C0
03C0
0660
0660
0660
0C30
0C30
0C30
1818
1FF8
3FFC
300C
300C
700E
6006
E007
ENDCHAR
STARTCHAR amacron
ENCODING 257
SWIDTH 551 0
DWIDTH 13 0
BBX 12 17 1 0
BITMAP
3F80
3F80
0000
0000
1F00
3F80
60C0
E0C0
0060
03E0
3FE0
7860
E0E0
C0E0
C1E0
F770
7E70
ENDCHAR
STARTCHAR Abreve
ENCODING 258
SWIDTH 668 0
DWIDTH 16 0
BBX 16 22 0 0
BITMAP
0420
0660
07E0
0080
0000
03C0
03C0
03C0
0660
0660
0660
0C30
0C30
0C30
1818
1FF8
3FFC
300C
300C
700E
6006
E007
ENDCHAR
STARTCHAR abreve
ENCODING 259
SWIDTH 551 0
DWIDTH 13 0
BBX 12 18 1 0
BITMAP
3080
3180
1F00
0400
0000
1F00
3F80
60C0
E0C0
0060
03E0
3FE0
7860
E0E0
C0E0
C1E0
F770
7E70
ENDCHAR
STARTCHAR Aogonek
ENCODING 260
SWIDTH 668 0
DWIDTH 16 0
BBX 16 22 0 -5
BITMAP
03C0
03C0
03C0
0660
0660
0660
0C30
0C30
0C30
1818
1FF8
3FFC
300C
300C
700E
6006
E006
0007
0004
000C
000F
0007
ENDCHAR
STARTCHAR aogonek
ENCODING 261
SWIDTH 551 0
DWIDTH 13 0
BBX 13 18 1 -5
BITMAP
1F00
3F80
60C0
E0C0
0060
03E0
3FE0
7860
E0E0
C0E0
C1E0
F770
7E70
0020
0060
00C0
00F0
0078
ENDCHAR
STARTCHAR Cacute
ENCODING 262
SWIDTH 703 0
DWIDTH 17 0
BBX 15 21 1 0
BITMAP
00E0
0180
0180
0000
0FF0
1FF8
381C
700C
600E
E008
C000
C000
C000
C000
C000
E006
600E
700C
381C
1FF8
0FF0
ENDCHAR
STARTCHAR cacute
ENCODING 263
SWIDTH 546 0
DWIDTH 13 0
BBX 11 17 1 0
BITMAP
0380
0200
0600
0000
1F00
3FC0
70E0
6060
C040
C000
C000
C000
C040
E060
70E0
3FC0
1F80
ENDCHAR
STARTCHAR Ccircumflex
ENCODING 264
SWIDTH 703 0
DWIDTH 17 0
BBX 15 22 1 0
BITMAP
0180
03C0
06C0
0C60
0000
0FF0
1FF8
381C
700C
600E
E008
C000
C000
C000
C000
C000
E006
600E
700C
381C
1FF8
0FF0
ENDCHAR
STARTCHAR ccircumflex
ENCODING 265
SWIDTH 546 0
DWIDTH 13 0
BBX 11 18 1 0
BITMAP
0600
0F00
1900
1180
0000
1F00
3FC0
70E0
6060
C040
C000
C000
C000
C040
E060
70E0
3FC0
1F80
ENDCHAR
STARTCHAR Cdotaccent
ENCODING 266
SWIDTH 703 0
DWIDTH 17 0
BBX 15 21 1 0
BITMAP
0180
0180
0000
0000
0FF0
1FF8
381C
700C
600E
E008
C000
C000
C000
C000
C000
E006
600E
700C
381C
1FF8
0FF0
ENDCHAR
STARTCHAR cdotaccent
ENCODING 267
SWIDTH 546 0
DWIDTH 13 0
BBX 11 17 1 0
BITMAP
0600
0600
0000
0000
1F00
3FC0
70E0
6060
C040
C000
C000
C000
C040
E060
70E0
3FC0
1F80
ENDCHAR
STARTCHAR Ccaron
ENCODING 268
SWIDTH 703 0
DWIDTH 17 0
BBX 15 22 1 0
BITMAP
0C60
06C0
03C0
0380
0000
0FF0
1FF8
381C
700C
600E
E008
C000
C000
C000
C000
C000
E006
600E
700C
381C
1FF8
0FF0
ENDCHAR
STARTCHAR ccaron
ENCODING 269
SWIDTH 546 0
DWIDTH 13 0
BBX 11 18 1 0
BITMAP
1180
1900
0F00
0600
0000
1F00
3FC0
70E0
6060
C040
C000
C000
C000
C040
E060
70E0
3FC0
1F80
ENDCHAR
STARTCHAR Dcaron
ENCODING 270
SWIDTH 698 0
DWIDTH 17 0
BBX 14 22 2 0
BITMAP
3180
1900
0F00
0600
0000
FF80
FFE0
C0F0
C038
C018
C018
C01C
C01C
C00C
C01C
C01C
C018
C018
C038
C0F0
FFE0
FF80
ENDCHAR
STARTCHAR dcaron
ENCODING 271
SWIDTH 662 0
DWIDTH 16 0
BBX 15 17 1 0
BITMAP
0066
0066
0066
0066
1F64
3FE4
70E0
6060
C060
C060
C060
C060
C060
E060
70E0
7FE0
1F20
ENDCHAR
STARTCHAR Dcroat
ENCODING 272
SWIDTH 698 0
DWIDTH 17 0
BBX 16 17 0 0
BITMAP
3FE0
3FF8
303C
300E
3006
3006
3007
3007
FF83
FF87
3007
3006
3006
300E
303C
3FF8
3FE0
ENDCHAR
STARTCHAR dcroat
ENCODING 273
SWIDTH 595 0
DWIDTH 14 0
BBX 13 17 1 0
BITMAP
0060
0060
03F8
0060
1F60
3FE0
70E0
6060
C060
C060
C060
C060
C060
E060
70E0
7FE0
1F20
ENDCHAR
STARTCHAR Emacron
ENCODING 274
SWIDTH 603 0
DWIDTH 14 0
BBX 11 21 2 0
BITMAP
3F80
3F80
0000
0000
FFE0
FFE0
C000
C000
C000
C000
C000
FFE0
FFE0
C000
C000
C000
C000
C000
C000
FFE0
FFE0
ENDCHAR
STARTCHAR emacron
ENCODING 275
SWIDTH 561 0
DWIDTH 13 0
BBX 11 17 1 0
BITMAP
1F80
1F80
0000
0000
1F00
3FC0
70C0
6060
C060
FFE0
FFE0
C000
C000
E060
60E0
3FC0
1F80
ENDCHAR
STARTCHAR Edotaccent
ENCODING 278
SWIDTH 603 0
DWIDTH 14 0
BBX 11 21 2 0
BITMAP
0600
0600
0000
0000
FFE0
FFE0
C000
C000
C000
C000
C000
FFE0
FFE0
C000
C000
C000
C000
C000
C000
FFE0
FFE0
ENDCHAR
STARTCHAR edotaccent
ENCODING 279
SWIDTH 561 0
DWIDTH 13 0
BBX 11 17 1 0
BITMAP
0600
0600
0000
0000
1F00
3FC0
70C0
6060
C060
FFE0
FFE0
C000
C000
E060
60E0
3FC0
1F80
ENDCHAR
STARTCHAR Eogonek
ENCODING 280
SWIDTH 603 0
DWIDTH 14 0
BBX 12 22 2 -5
BITMAP
FFE0
FFE0
C000
C000
C000
C000
C000
FFE0
FFE0
C000
C000
C000
C000
C000
C000
FFE0
FFE0
0060
00C0
00C0
00F0
00F0
ENDCHAR
STARTCHAR eogonek
ENCODING 281
SWIDTH 561 0
DWIDTH 13 0
BBX 11 18 1 -5
BITMAP
1F00
3FC0
70C0
6060
C060
FFE0
FFE0
C000
C000
E060
60E0
3FC0
1F80
0180
0300
0200
0380
03C0
ENDCHAR
STARTCHAR Ecaron
ENCODING 282
SWIDTH 603 0
DWIDTH 14 0
BBX 11 22 2 0
BITMAP
3180
1B00
0F00
0E00
0000
FFE0
FFE0
C000
C000
C000
C000
C000
FFE0
FFE0
C000
C000
C000
C000
C000
C000
FFE0
FFE0
ENDCHAR
STARTCHAR ecaron
ENCODING 283
SWIDTH 561 0
DWIDTH 13 0
BBX 11 18 1 0
BITMAP
1180
1900
0F00
0600
0000
1F00
3FC0
70C0
6060
C060
FFE0
FFE0
C000
C000
E060
60E0
3FC0
1F80
ENDCHAR
STARTCHAR Gcircumflex
ENCODING 284
SWIDTH 700 0
DWIDTH 17 0
BBX 15 22 1 0
BITMAP
0180
03C0
06C0
0C60
0000
0FE0
1FF8
381C
700C
600C
E002
C000
C000
C0FE
C0FE
C006
E006
600E
700E
381E
1FF6
0FE6
ENDCHAR
STARTCHAR gcircumflex
ENCODING 285
SWIDTH 594 0
DWIDTH 14 0
BBX 11 22 1 -4
BITMAP
0600
0F00
1900
1180
0000
1F60
3FE0
70E0
E060
C060
C060
C060
C060
E060
60E0
7FE0
1F60
0060
E060
70E0
3FC0
0F00
ENDCHAR
STARTCHAR Gbreve
ENCODING 286
SWIDTH 700 0
DWIDTH 17 0
BBX 15 22 1 0
BITMAP
0C20
0460
07C0
0100
0000
0FE0
1FF8
381C
700C
600C
E002
C000
C000
C0FE
C0FE
C006
E006
600E
700E
381E
1FF6
0FE6
ENDCHAR
STARTCHAR gbreve
ENCODING 287
SWIDTH 594 0
DWIDTH 14 0
BBX 11 22 1 -4
BITMAP
3080
1180
1F00
0400
0000
1F60
3FE0
70E0
E060
C060
C060
C060
C060
E060
60E0
7FE0
1F60
0060
E060
70E0
3FC0
0F00
ENDCHAR
STARTCHAR Gdotaccent
ENCODING 288
SWIDTH 700 0
DWIDTH 17 0
BBX 15 21 1 0
BITMAP
0180
0180
0000
0000
0FE0
1FF8
381C
700C
600C
E002
C000
C000
C0FE
C0FE
C006
E006
600E
700E
381E
1FF6
0FE6
ENDCHAR
STARTCHAR gdotaccent
ENCODING 289
SWIDTH 594 0
DWIDTH 14 0
BBX 11 21 1 -4
BITMAP
0600
0600
0000
0000
1F60
3FE0
70E0
E060
C060
C060
C060
C060
E060
60E0
7FE0
1F60
0060
E060
70E0
3FC0
0F00
ENDCHAR
STARTCHAR uni0122
ENCODING 290
SWIDTH 700 0
DWIDTH 17 0
BBX 15 23 1 -6
BITMAP
0FE0
1FF8
381C
700C
600C
E002
C000
C000
C0FE
C0FE
C006
E006
600E
700E
381E
1FF6
0FE6
0000
0180
0180
0180
0100
0300
ENDCHAR
STARTCHAR uni0123
ENCODING 291
SWIDTH 594 0
DWIDTH 14 0
BBX 11 23 1 -4
BITMAP
0200
0600
0600
0600
0600
0000
1F60
3FE0
70E0
E060
C060
C060
C060
C060
E060
60E0
7FE0
1F60
0060
E060
70E0
3FC0
0F00
ENDCHAR
STARTCHAR Hcircumflex
ENCODING 292
SWIDTH 713 0
DWIDTH 17 0
BBX 13 22 2 0
BITMAP
0700
0700
0D80
18C0
0000
C018
C018
C018
C018
C018
C018
C018
FFF8
FFF8
C018
C018
C018
C018
C018
C018
C018
C018
ENDCHAR
STARTCHAR hcircumflex
ENCODING 293
SWIDTH 581 0
DWIDTH 14 0
BBX 12 22 0 0
BITMAP
3000
7800
C800
8C00
0000
3000
3000
3000
3000
33C0
3FE0
3870
3030
3030
3030
3030
3030
3030
3030
3030
3030
3030
ENDCHAR
STARTCHAR Hbar
ENCODING 294
SWIDTH 713 0
DWIDTH 17 0
BBX 17 17 0 0
BITMAP
300600
300600
FFFF80
FFFF80
300600
300600
300600
3FFE00
3FFE00
300600
300600
300600
300600
300600
300600
300600
300600
ENDCHAR
STARTCHAR hbar
ENCODING 295
SWIDTH 581 0
DWIDTH 14 0
BBX 12 17 0 0
BITMAP
3000
3000
FE00
3000
33C0
3FE0
3870
3030
3030
3030
3030
3030
3030
3030
3030
3030
3030
ENDCHAR
STARTCHAR Itilde
ENCODING 296
SWIDTH 270 0
DWIDTH 6 0
BBX 8 22 -1 0
BITMAP
01
79
4E
C0
00
18
18
18
18
18
18
18
18
18
18
18
18
18
18
18
18
18
ENDCHAR
STARTCHAR itilde
ENCODING 297
SWIDTH 244 0
DWIDTH 6 0
BBX 8 18 -1 0
BITMAP
03
73
DE
80
00
18
18
18
18
18
18
18
18
18
18
18
18
18
ENDCHAR
STARTCHAR Imacron
ENCODING 298
SWIDTH 270 0
DWIDTH 6 0
BBX 6 21 0 0
BITMAP
FC
FC
00
00
30
30
30
30
30
30
30
30
30
30
30
30
30
30
30
30
30
ENDCHAR
STARTCHAR imacron
ENCODING 299
SWIDTH 244 0
DWIDTH 6 0
BBX 6 17 0 0
BITMAP
FC
FC
00
00
30
30
30
30
30
30
30
30
30
30
30
30
30
ENDCHAR
STARTCHAR Iogonek
ENCODING 302
SWIDTH 270 0
DWIDTH 6 0
BBX 4 22 1 -5
BITMAP
60
60
60
60
60
60
60
60
60
60
60
60
60
60
60
60
60
60
40
C0
F0
F0
ENDCHAR
STARTCHAR iogonek
ENCODING 303
SWIDTH 244 0
DWIDTH 6 0
BBX 5 22 0 -5
BITMAP
30
30
00
00
30
30
30
30
30
30
30
30
30
30
30
30
30
30
60
40
F0
78
ENDCHAR
STARTCHAR Idotaccent
ENCODING 304
SWIDTH 270 0
DWIDTH 6 0
BBX 2 21 2 0
BITMAP
C0
C0
00
00
C0
C0
C0
C0
C0
C0
C0
C0
C0
C0
C0
C0
C0
C0
C0
C0
C0
ENDCHAR
STARTCHAR dotlessi
ENCODING 305
SWIDTH 244 0
DWIDTH 6 0
BBX 2 13 2 0
BITMAP
C0
C0
C0
C0
C0
C0
C0
C0
C0
C0
C0
C0
C0
ENDCHAR
STARTCHAR IJ
ENCODING 306
SWIDTH 847 0
DWIDTH 20 0
BBX 16 17 2 0
BITMAP
C003
C003
C003
C003
C003
C003
C003
C003
C003
C003
C003
C303
C303
C303
C387
C1FE
C0FC
ENDCHAR
STARTCHAR ij
ENCODING 307
SWIDTH 494 0
DWIDTH 12 0
BBX 8 21 2 -4
BITMAP
C3
C3
00
00
C3
C3
C3
C3
C3
C3
C3
C3
C3
C3
C3
C3
C3
03
03
1F
1C
ENDCHAR
STARTCHAR Jcircumflex
ENCODING 308
SWIDTH 597 0
DWIDTH 14 0
BBX 13 22 2 0
BITMAP
00E0
00E0
01B0
0318
0000
00C0
00C0
00C0
00C0
00C0
00C0
00C0
00C0
00C0
00C0
00C0
C0C0
C0C0
C0C0
E1C0
7F80
3F00
ENDCHAR
STARTCHAR jcircumflex
ENCODING 309
SWIDTH 260 0
DWIDTH 6 0
BBX 7 22 0 -4
BITMAP
30
78
6C
C6
00
30
30
30
30
30
30
30
30
30
30
30
30
30
30
30
F0
C0
ENDCHAR
STARTCHAR uni0136
ENCODING 310
SWIDTH 640 0
DWIDTH 15 0
BBX 13 23 2 -6
BITMAP
C078
C060
C0C0
C180
C300
C700
CE00
DC00
FE00
F600
E300
C380
C1C0
C0C0
C060
C070
C038
0000
0700
0700
0200
0600
0400
ENDCHAR
STARTCHAR uni0137
ENCODING 311
SWIDTH 590 0
DWIDTH 14 0
BBX 11 23 2 -6
BITMAP
C000
C000
C000
C000
C0E0
C1C0
C380
C700
CE00
DC00
FC00
F600
E700
C380
C180
C0C0
C0E0
0000
0C00
0C00
0400
0C00
1800
ENDCHAR
STARTCHAR Lacute
ENCODING 313
SWIDTH 580 0
DWIDTH 14 0
BBX 11 21 2 0
BITMAP
7000
6000
C000
0000
C000
C000
C000
C000
C000
C000
C000
C000
C000
C000
C000
C000
C000
C000
C000
FFE0
FFE0
ENDCHAR
STARTCHAR lacute
ENCODING 314
SWIDTH 267 0
DWIDTH 6 0
BBX 4 20 2 0
BITMAP
70
60
C0
C0
C0
C0
C0
C0
C0
C0
C0
C0
C0
C0
C0
C0
C0
C0
F0
70
ENDCHAR
STARTCHAR uni013B
ENCODING 315
SWIDTH 580 0
DWIDTH 14 0
BBX 11 23 2 -6
BITMAP
C000
C000
C000
C000
C000
C000
C000
C000
C000
C000
C000
C000
C000
C000
C000
FFE0
FFE0
0000
0E00
0E00
0600
0400
0800
ENDCHAR
STARTCHAR uni013C
ENCODING 316
SWIDTH 267 0
DWIDTH 6 0
BBX 4 23 2 -6
BITMAP
C0
C0
C0
C0
C0
C0
C0
C0
C0
C0
C0
C0
C0
C0
C0
F0
70
00
60
60
20
40
C0
ENDCHAR
STARTCHAR Lcaron
ENCODING 317
SWIDTH 580 0
DWIDTH 14 0
BBX 11 17 2 0
BITMAP
C0C0
C0C0
C0C0
C0C0
C080
C080
C000
C000
C000
C000
C000
C000
C000
C000
C000
FFE0
FFE0
ENDCHAR
STARTCHAR lcaron
ENCODING 318
SWIDTH 318 0
DWIDTH 8 0
BBX 6 17 2 0
BITMAP
CC
CC
CC
C8
C8
D8
C0
C0
C0
C0
C0
C0
C0
C0
C0
F0
70
ENDCHAR
STARTCHAR Lslash
ENCODING 321
SWIDTH 580 0
DWIDTH 14 0
BBX 13 17 0 0
BITMAP
3000
3000
3000
3000
3000
3300
3F00
3C00
F000
F000
3000
3000
3000
3000
3000
3FF8
3FF8
ENDCHAR
STARTCHAR lslash
ENCODING 322
SWIDTH 267 0
DWIDTH 6 0
BBX 6 17 0 0
BITMAP
30
30
30
30
30
34
3C
38
F0
B0
30
30
30
30
30
3C
1C
ENDCHAR
STARTCHAR Nacute
ENCODING 323
SWIDTH 743 0
DWIDTH 18 0
BBX 14 21 2 0
BITMAP
01C0
0180
0300
0000
E00C
F00C
F80C
D80C
DC0C
CC0C
C60C
C60C
C30C
C38C
C18C
C1CC
C0CC
C06C
C06C
C03C
C03C
ENDCHAR
STARTCHAR nacute
ENCODING 324
SWIDTH 581 0
DWIDTH 14 0
BBX 10 17 2 0
BITMAP
0700
0600
0C00
0000
CF00
FF80
E1C0
C0C0
C0C0
C0C0
C0C0
C0C0
C0C0
C0C0
C0C0
C0C0
C0C0
ENDCHAR
STARTCHAR uni0145
ENCODING 325
SWIDTH 743 0
DWIDTH 18 0
BBX 14 23 2 -6
BITMAP
E00C
F00C
F80C
D80C
DC0C
CC0C
C60C
C60C
C30C
C38C
C18C
C1CC
C0CC
C06C
C06C
C03C
C03C
0000
0300
0300
0100
0200
0600
ENDCHAR
STARTCHAR uni0146
ENCODING 326
SWIDTH 581 0
DWIDTH 14 0
BBX 10 19 2 -6
BITMAP
CF00
FF80
E1C0
C0C0
C0C0
C0C0
C0C0
C0C0
C0C0
C0C0
C0C0
C0C0
C0C0
0000
0C00
0C00
0400
0800
1800
ENDCHAR
STARTCHAR Ncaron
ENCODING 327
SWIDTH 743 0
DWIDTH 18 0
BBX 14 22 2 0
BITMAP
0C60
04C0
0780
0380
0000
E00C
F00C
F80C
D80C
DC0C
CC0C
C60C
C60C
C30C
C38C
C18C
C1CC
C0CC
C06C
C06C
C03C
C03C
ENDCHAR
STARTCHAR ncaron
ENCODING 328
SWIDTH 581 0
DWIDTH 14 0
BBX 10 18 2 0
BITMAP
2100
3300
1E00
0C00
0000
CF00
FF80
E1C0
C0C0
C0C0
C0C0
C0C0
C0C0
C0C0
C0C0
C0C0
C0C0
C0C0
ENDCHAR
STARTCHAR Eng
ENCODING 330
SWIDTH 743 0
DWIDTH 18 0
BBX 14 21 2 -4
BITMAP
E00C
F00C
F80C
D80C
DC0C
CC0C
C60C
C60C
C30C
C38C
C18C
C1CC
C0CC
C06C
C06C
C03C
C03C
000C
0018
00F8
00E0
ENDCHAR
STARTCHAR eng
ENCODING 331
SWIDTH 581 0
DWIDTH 14 0
BBX 10 17 2 -4
BITMAP
CF00
FF80
E1C0
C0C0
C0C0
C0C0
C0C0
C0C0
C0C0
C0C0
C0C0
C0C0
C0C0
00C0
01C0
0F80
0E00
ENDCHAR
STARTCHAR Omacron
ENCODING 332
SWIDTH 739 0
DWIDTH 18 0
BBX 16 21 1 0
BITMAP
07E0
07E0
0000
0000
0FF0
1FF8
381C
700E
6006
E006
C007
C007
C007
C007
C007
E006
6006
700E
381C
1FF8
0FF0
ENDCHAR
STARTCHAR omacron
ENCODING 333
SWIDTH 573 0
DWIDTH 14 0
BBX 12 17 1 0
BITMAP
1F80
1F80
0000
0000
1F00
3FC0
70E0
6060
C060
C070
C030
C030
C070
E060
70E0
3FC0
1F80
ENDCHAR
STARTCHAR Ohungarumlaut
ENCODING 336
SWIDTH 739 0
DWIDTH 18 0
BBX 16 21 1 0
BITMAP
03B0
0360
0640
0000
0FF0
1FF8
381C
700E
6006
E006
C007
C007
C007
C007
C007
E006
6006
700E
381C
1FF8
0FF0
ENDCHAR
STARTCHAR ohungarumlaut
ENCODING 337
SWIDTH 573 0
DWIDTH 14 0
BBX 12 17 1 0
BITMAP
0EC0
0D80
1900
0000
1F00
3FC0
70E0
6060
C060
C070
C030
C030
C070
E060
70E0
3FC0
1F80
ENDCHAR
STARTCHAR OE
ENCODING 338
SWIDTH 1088 0
DWIDTH 26 0
BBX 24 17 1 0
BITMAP
0FF3FF
1FFBFF
381F00
700F00
600700
E00700
C00700
C007FE
C007FE
C00700
C00700
E00700
600700
700F00
381F00
1FFBFF
0FF3FF
ENDCHAR
STARTCHAR oe
ENCODING 339
SWIDTH 958 0
DWIDTH 23 0
BBX 21 13 1 0
BITMAP
1F07C0
3FDFE0
70F870
607030
C07018
C07FF8
C03FF8
C03000
C07000
E07038
70F830
3FDFF0
1F8FC0
ENDCHAR
STARTCHAR Racute
ENCODING 340
SWIDTH 672 0
DWIDTH 16 0
BBX 13 21 2 0
BITMAP
0380
0300
0600
0000
FFC0
FFE0
C070
C030
C030
C030
C030
C070
FFE0
FFE0
C070
C030
C030
C030
C030
C030
C038
ENDCHAR
STARTCHAR racute
ENCODING 341
SWIDTH 379 0
DWIDTH 9 0
BBX 6 17 2 0
BITMAP
1C
30
30
00
CC
FC
E0
C0
C0
C0
C0
C0
C0
C0
C0
C0
C0
ENDCHAR
STARTCHAR uni0156
ENCODING 342
SWIDTH 672 0
DWIDTH 16 0
BBX 13 23 2 -6
BITMAP
FFC0
FFE0
C070
C030
C030
C030
C030
C070
FFE0
FFE0
C070
C030
C030
C030
C030
C030
C038
0000
0700
0700
0200
0600
0400
ENDCHAR
STARTCHAR uni0157
ENCODING 343
SWIDTH 379 0
DWIDTH 9 0
BBX 7 19 1 -6
BITMAP
66
7E
70
60
60
60
60
60
60
60
60
60
60
00
60
60
20
40
C0
ENDCHAR
STARTCHAR Rcaron
ENCODING 344
SWIDTH 672 0
DWIDTH 16 0
BBX 13 22 2 0
BITMAP
1880
0980
0F00
0600
0000
FFC0
FFE0
C070
C030
C030
C030
C030
C070
FFE0
FFE0
C070
C030
C030
C030
C030
C030
C038
ENDCHAR
STARTCHAR rcaron
ENCODING 345
SWIDTH 379 0
DWIDTH 9 0
BBX 7 18 1 0
BITMAP
C6
64
3C
38
00
66
7E
70
60
60
60
60
60
60
60
60
60
60
ENDCHAR
STARTCHAR Sacute
ENCODING 346
SWIDTH 640 0
DWIDTH 15 0
BBX 13 21 1 0
BITMAP
0180
0300
0600
0000
1FC0
3FE0
7070
6030
6038
6000
7000
3F00
0FC0
01F0
0038
4018
E018
6018
7038
3FF0
1FE0
ENDCHAR
STARTCHAR sacute
ENCODING 347
SWIDTH 524 0
DWIDTH 13 0
BBX 11 17 1 0
BITMAP
0700
0600
0C00
0000
1F00
7F80
61C0
E0C0
E000
7000
3F00
0FC0
00C0
C0E0
E0C0
7FC0
3F80
ENDCHAR
STARTCHAR Scircumflex
ENCODING 348
SWIDTH 640 0
DWIDTH 15 0
BBX 13 22 1 0
BITMAP
0700
0F00
0D80
18C0
0000
1FC0
3FE0
7070
6030
6038
6000
7000
3F00
0FC0
01F0
0038
4018
E018
6018
7038
3FF0
1FE0
ENDCHAR
STARTCHAR scircumflex
ENCODING 349
SWIDTH 524 0
DWIDTH 13 0
BBX 11 18 1 0
BITMAP
0C00
1E00
1300
3100
0000
1F00
7F80
61C0
E0C0
E000
7000
3F00
0FC0
00C0
C0E0
E0C0
7FC0
3F80
ENDCHAR
STARTCHAR Scedilla
ENCODING 350
SWIDTH 640 0
DWIDTH 15 0
BBX 13 22 1 -5
BITMAP
1FC0
3FE0
7070
6030
6038
6000
7000
3F00
0FC0
01F0
0038
4018
E018
6018
7038
3FF0
1FE0
0200
0780
0080
0880
0F80
ENDCHAR
STARTCHAR scedilla
ENCODING 351
SWIDTH 524 0
DWIDTH 13 0
BBX 11 18 1 -5
BITMAP
1F00
7F80
61C0
E0C0
E000
7000
3F00
0FC0
00C0
C0E0
E0C0
7FC0
3F80
0C00
0E00
0300
3300
1E00
ENDCHAR
STARTCHAR Scaron
ENCODING 352
SWIDTH 640 0
DWIDTH 15 0
BBX 13 22 1 0
BITMAP
18C0
0D80
0F00
0700
0000
1FC0
3FE0
7070
6030
6038
6000
7000
3F00
0FC0
01F0
0038
4018
E018
6018
7038
3FF0
1FE0
ENDCHAR
STARTCHAR scaron
ENCODING 353
SWIDTH 524 0
DWIDTH 13 0
BBX 11 18 1 0
BITMAP
3100
1300
1E00
0C00
0000
1F00
7F80
61C0
E0C0
E000
7000
3F00
0FC0
00C0
C0E0
E0C0
7FC0
3F80
ENDCHAR
STARTCHAR uni0162
ENCODING 354
SWIDTH 552 0
DWIDTH 13 0
BBX 13 22 0 -5
BITMAP
FFF8
FFF8
0300
0300
0300
0300
0300
0300
0300
0300
0300
0300
0300
0300
0300
0300
0300
0200
0780
0180
0980
0F00
ENDCHAR
STARTCHAR uni0163
ENCODING 355
SWIDTH 392 0
DWIDTH 9 0
BBX 8 21 1 -5
BITMAP
30
30
30
FF
FF
30
30
30
30
30
30
30
30
30
3F
1F
08
1E
06
26
3C
ENDCHAR
STARTCHAR Tcaron
ENCODING 356
SWIDTH 552 0
DWIDTH 13 0
BBX 13 22 0 0
BITMAP
18C0
0D80
0780
0700
0000
FFF8
FFF8
0300
0300
0300
0300
0300
0300
0300
0300
0300
0300
0300
0300
0300
0300
0300
ENDCHAR
STARTCHAR tcaron
ENCODING 357
SWIDTH 399 0
DWIDTH 10 0
BBX 9 18 1 0
BITMAP
0180
0100
3300
3300
3300
FF00
FF00
3000
3000
3000
3000
3000
3000
3000
3000
3000
3F00
1F00
ENDCHAR
STARTCHAR Tbar
ENCODING 358
SWIDTH 552 0
DWIDTH 13 0
BBX 13 17 0 0
BITMAP
FFF8
FFF8
0300
0300
0300
0300
0300
0300
3FE0
3FE0
0300
0300
0300
0300
0300
0300
0300
ENDCHAR
STARTCHAR tbar
ENCODING 359
SWIDTH 392 0
DWIDTH 9 0
BBX 8 16 1 0
BITMAP
30
30
30
FF
FF
30
30
30
FE
FE
30
30
30
30
3F
1F
ENDCHAR
STARTCHAR Utilde
ENCODING 360
SWIDTH 689 0
DWIDTH 17 0
BBX 13 22 2 0
BITMAP
0040
1E40
1380
3000
0000
C018
C018
C018
C018
C018
C018
C018
C018
C018
C018
C018
C018
C038
C030
6070
7FE0
1FC0
ENDCHAR
STARTCHAR utilde
ENCODING 361
SWIDTH 575 0
DWIDTH 14 0
BBX 10 18 2 0
BITMAP
0100
7900
4F00
4000
0000
C0C0
C0C0
C0C0
C0C0
C0C0
C0C0
C0C0
C0C0
C0C0
C0C0
C1C0
7FC0
3EC0
ENDCHAR
STARTCHAR Umacron
ENCODING 362
SWIDTH 689 0
DWIDTH 17 0
BBX 13 21 2 0
BITMAP
1FC0
1FC0
0000
0000
C018
C018
C018
C018
C018
C018
C018
C018
C018
C018
C018
C018
C038
C030
6070
7FE0
1FC0
ENDCHAR
STARTCHAR umacron
ENCODING 363
SWIDTH 575 0
DWIDTH 14 0
BBX 10 17 2 0
BITMAP
3F00
3F00
0000
0000
C0C0
C0C0
C0C0
C0C0
C0C0
C0C0
C0C0
C0C0
C0C0
C0C0
C1C0
7FC0
3EC0
ENDCHAR
STARTCHAR Ubreve
ENCODING 364
SWIDTH 689 0
DWIDTH 17 0
BBX 13 22 2 0
BITMAP
10C0
1880
0F80
0200
0000
C018
C018
C018
C018
C018
C018
C018
C018
C018
C018
C018
C018
C038
C030
6070
7FE0
1FC0
ENDCHAR
STARTCHAR ubreve
ENCODING 365
SWIDTH 575 0
DWIDTH 14 0
BBX 10 18 2 0
BITMAP
6100
2300
3E00
0800
0000
C0C0
C0C0
C0C0
C0C0
C0C0
C0C0
C0C0
C0C0
C0C0
C0C0
C1C0
7FC0
3EC0
ENDCHAR
STARTCHAR Uring
ENCODING 366
SWIDTH 689 0
DWIDTH 17 0
BBX 13 22 2 0
BITMAP
0700
0900
0900
0700
0000
C018
C018
C018
C018
C018
C018
C018
C018
C018
C018
C018
C018
C038
C030
6070
7FE0
1FC0
ENDCHAR
STARTCHAR uring
ENCODING 367
SWIDTH 575 0
DWIDTH 14 0
BBX 10 18 2 0
BITMAP
1C00
1200
1200
1C00
0000
C0C0
C0C0
C0C0
C0C0
C0C0
C0C0
C0C0
C0C0
C0C0
C0C0
C1C0
7FC0
3EC0
ENDCHAR
STARTCHAR Uhungarumlaut
ENCODING 368
SWIDTH 689 0
DWIDTH 17 0
BBX 13 21 2 0
BITMAP
07E0
0C80
0D80
0000
C018
C018
C018
C018
C018
C018
C018
C018
C018
C018
C018
C018
C038
C030
6070
7FE0
1FC0
ENDCHAR
STARTCHAR uhungarumlaut
ENCODING 369
SWIDTH 575 0
DWIDTH 14 0
BBX 10 17 2 0
BITMAP
1D80
1B00
3600
0000
C0C0
C0C0
C0C0
C0C0
C0C0
C0C0
C0C0
C0C0
C0C0
C0C0
C1C0
7FC0
3EC0
ENDCHAR
STARTCHAR Uogonek
ENCODING 370
SWIDTH 689 0
DWIDTH 17 0
BBX 13 22 2 -5
BITMAP
C018
C018
C018
C018
C018
C018
C018
C018
C018
C018
C018
C018
C038
C030
6070
7FE0
1FC0
0180
0300
0200
0380
03C0
ENDCHAR
STARTCHAR uogonek
ENCODING 371
SWIDTH 575 0
DWIDTH 14 0
BBX 11 18 2 -5
BITMAP
C0C0
C0C0
C0C0
C0C0
C0C0
C0C0
C0C0
C0C0
C0C0
C0C0
C1C0
7FC0
3EC0
00C0
0180
0100
03C0
01E0
ENDCHAR
STARTCHAR Wcircumflex
ENCODING 372
SWIDTH 945 0
DWIDTH 23 0
BBX 21 22 1 0
BITMAP
006000
00F000
00D800
018C00
000000
C07038
E07030
607030
60F030
60D870
70D860
30D860
319860
318CE0
398CC0
198CC0
1B0CC0
1B0780
1F0780
0F0780
0E0780
0E0300
ENDCHAR
STARTCHAR wcircumflex
ENCODING 373
SWIDTH 819 0
DWIDTH 20 0
BBX 18 18 1 0
BITMAP
00C000
01E000
032000
023000
000000
C0C0C0
C1C0C0
C1E180
61E180
616180
636380
633300
333300
363300
361E00
1E1E00
1C1E00
1C1C00
ENDCHAR
STARTCHAR Ycircumflex
ENCODING 374
SWIDTH 576 0
DWIDTH 14 0
BBX 14 22 0 0
BITMAP
0300
0780
0C80
08C0
0000
E01C
6018
7030
3070
1860
1CE0
0CC0
0F80
0780
0300
0300
0300
0300
0300
0300
0300
0300
ENDCHAR
STARTCHAR ycircumflex
ENCODING 375
SWIDTH 537 0
DWIDTH 13 0
BBX 11 22 1 -4
BITMAP
0E00
0E00
1B00
3180
0000
C060
C060
E0E0
60C0
60C0
7180
3180
3180
1B00
1B00
1B00
0E00
0E00
0600
0C00
7C00
7000
ENDCHAR
STARTCHAR Ydieresis
ENCODING 376
SWIDTH 576 0
DWIDTH 14 0
BBX 14 21 0 0
BITMAP
0CC0
0CC0
0000
0000
E01C
6018
7030
3070
1860
1CE0
0CC0
0F80
0780
0300
0300
0300
0300
0300
0300
0300
0300
ENDCHAR
STARTCHAR Zacute
ENCODING 377
SWIDTH 544 0
DWIDTH 13 0
BBX 11 21 1 0
BITMAP
0380
0600
0600
0000
FFE0
FFE0
00E0
00C0
0180
0380
0300
0600
0E00
1C00
1800
3800
7000
6000
C000
FFE0
FFE0
ENDCHAR
STARTCHAR zacute
ENCODING 378
SWIDTH 549 0
DWIDTH 13 0
BBX 11 17 1 0
BITMAP
0380
0600
0600
0000
7FE0
7FE0
00C0
01C0
0380
0700
0E00
1C00
1800
3000
6000
FFE0
FFE0
ENDCHAR
STARTCHAR Zdotaccent
ENCODING 379
SWIDTH 544 0
DWIDTH 13 0
BBX 11 21 1 0
BITMAP
0600
0600
0000
0000
FFE0
FFE0
00E0
00C0
0180
0380
0300
0600
0E00
1C00
1800
3800
7000
6000
C000
FFE0
FFE0
ENDCHAR
STARTCHAR zdotaccent
ENCODING 380
SWIDTH 549 0
DWIDTH 13 0
BBX 11 17 1 0
BITMAP
0600
0600
0000
0000
7FE0
7FE0
00C0
01C0
0380
0700
0E00
1C00
1800
3000
6000
FFE0
FFE0
ENDCHAR
STARTCHAR Zcaron
ENCODING 381
SWIDTH 544 0
DWIDTH 13 0
BBX 11 22 1 0
BITMAP
3180
1900
0F00
0E00
0000
FFE0
FFE0
00E0
00C0
0180
0380
0300
0600
0E00
1C00
1800
3800
7000
6000
C000
FFE0
FFE0
ENDCHAR
STARTCHAR zcaron
ENCODING 382
SWIDTH 549 0
DWIDTH 13 0
BBX 11 18 1 0
BITMAP
3180
1B00
0F00
0E00
0000
7FE0
7FE0
00C0
01C0
0380
0700
0E00
1C00
1800
3000
6000
FFE0
FFE0
ENDCHAR
STARTCHAR uni018F
ENCODING 399
SWIDTH 713 0
DWIDTH 17 0
BBX 15 17 1 0
BITMAP
0FE0
1FF0
3838
701C
600C
000E
0006
0006
FFFE
FFFE
C006
E006
600C
701C
3838
1FF0
0FE0
ENDCHAR
STARTCHAR florin
ENCODING 402
SWIDTH 511 0
DWIDTH 12 0
BBX 10 17 1 0
BITMAP
03C0
07C0
0600
0600
3FC0
3FC0
0C00
0C00
0C00
0C00
0C00
0C00
0C00
0800
1800
F800
F000
ENDCHAR
STARTCHAR uni01CD
ENCODING 461
SWIDTH 668 0
DWIDTH 16 0
BBX 16 22 0 0
BITMAP
0420
0660
03C0
0180
0000
03C0
03C0
03C0
0660
0660
0660
0C30
0C30
0C30
1818
1FF8
3FFC
300C
300C
700E
6006
E007
ENDCHAR
STARTCHAR uni01CE
ENCODING 462
SWIDTH 551 0
DWIDTH 13 0
BBX 12 18 1 0
BITMAP
3180
1B00
0F00
0E00
0000
1F00
3F80
60C0
E0C0
0060
03E0
3FE0
7860
E0E0
C0E0
C1E0
F770
7E70
ENDCHAR
STARTCHAR uni01E4
ENCODING 484
SWIDTH 744 0
DWIDTH 18 0
BBX 16 17 1 0
BITMAP
0FF0
1FF8
381C
700C
600C
E002
C000
C000
C0FE
C0FE
C006
E004
60FF
700C
3818
1FF8
0FE0
ENDCHAR
STARTCHAR uni01E5
ENCODING 485
SWIDTH 624 0
DWIDTH 15 0
BBX 13 17 1 -4
BITMAP
1F60
3FE0
70E0
E060
C060
C7F8
C7F8
C060
E060
60E0
7FE0
1F60
0060
E060
70E0
3FC0
0F00
ENDCHAR
STARTCHAR Gcaron
ENCODING 486
SWIDTH 700 0
DWIDTH 17 0
BBX 15 22 1 0
BITMAP
0C60
0640
03C0
0180
0000
0FE0
1FF8
381C
700C
600C
E002
C000
C000
C0FE
C0FE
C006
E006
600E
700E
381E
1FF6
0FE6
ENDCHAR
STARTCHAR gcaron
ENCODING 487
SWIDTH 594 0
DWIDTH 14 0
BBX 11 22 1 -4
BITMAP
1180
1900
0F00
0600
0000
1F60
3FE0
70E0
E060
C060
C060
C060
C060
E060
60E0
7FE0
1F60
0060
E060
70E0
3FC0
0F00
ENDCHAR
STARTCHAR uni01E8
ENCODING 488
SWIDTH 640 0
DWIDTH 15 0
BBX 13 22 2 0
BITMAP
1180
1900
0F00
0600
0008
C070
C060
C0C0
C180
C300
C700
CE00
DC00
FE00
F600
E300
C380
C1C0
C0C0
C060
C070
C038
ENDCHAR
STARTCHAR uni01E9
ENCODING 489
SWIDTH 590 0
DWIDTH 14 0
BBX 13 21 0 0
BITMAP
8C00
CC00
7800
3000
3000
3000
3000
3000
3038
3070
30E0
31C0
3380
3700
3F00
3D80
39C0
30E0
3060
3030
3038
ENDCHAR
STARTCHAR uni0218
ENCODING 536
SWIDTH 640 0
DWIDTH 15 0
BBX 13 23 1 -6
BITMAP
1FC0
3FE0
7070
6030
6038
6000
7000
3F00
0FC0
01F0
0038
4018
E018
6018
7038
3FF0
1FE0
0000
0300
0300
0300
0200
0600
ENDCHAR
STARTCHAR uni0219
ENCODING 537
SWIDTH 524 0
DWIDTH 13 0
BBX 11 19 1 -6
BITMAP
1F00
7F80
61C0
E0C0
E000
7000
3F00
0FC0
00C0
C0E0
E0C0
7FC0
3F80
0000
0E00
0E00
0400
0C00
0800
ENDCHAR
STARTCHAR uni021A
ENCODING 538
SWIDTH 552 0
DWIDTH 13 0
BBX 13 23 0 -6
BITMAP
FFF8
FFF8
0300
0300
0300
0300
0300
0300
0300
0300
0300
0300
0300
0300
0300
0300
0300
0000
0700
0700
0300
0200
0600
ENDCHAR
STARTCHAR uni021B
ENCODING 539
SWIDTH 392 0
DWIDTH 9 0
BBX 8 22 1 -6
BITMAP
30
30
30
FF
FF
30
30
30
30
30
30
30
30
30
3F
1F
00
1C
1C
0C
08
18
ENDCHAR
STARTCHAR uni0237
ENCODING 567
SWIDTH 260 0
DWIDTH 6 0
BBX 4 17 0 -4
BITMAP
30
30
30
30
30
30
30
30
30
30
30
30
30
30
30
F0
C0
ENDCHAR
STARTCHAR uni0259
ENCODING 601
SWIDTH 561 0
DWIDTH 13 0
BBX 11 13 1 0
BITMAP
1F00
3FC0
70C0
E060
0060
0060
FFE0
FFE0
C060
E060
60E0
3FC0
1F80
ENDCHAR
STARTCHAR uni02B9
ENCODING 697
SWIDTH 250 0
DWIDTH 6 0
BBX 3 5 1 12
BITMAP
60
60
60
C0
C0
ENDCHAR
STARTCHAR uni02BC
ENCODING 700
SWIDTH 206 0
DWIDTH 5 0
BBX 3 6 1 11
BITMAP
60
60
40
C0
C0
C0
ENDCHAR
STARTCHAR circumflex
ENCODING 710
SWIDTH 362 0
DWIDTH 9 0
BBX 7 4 1 14
BITMAP
38
78
6C
C6
ENDCHAR
STARTCHAR caron
ENCODING 711
SWIDTH 362 0
DWIDTH 9 0
BBX 7 4 1 14
BITMAP
C6
6C
78
38
ENDCHAR
STARTCHAR uni02C8
ENCODING 712
SWIDTH 183 0
DWIDTH 4 0
BBX 2 6 1 11
BITMAP
C0
C0
C0
C0
C0
C0
ENDCHAR
STARTCHAR breve
ENCODING 728
SWIDTH 367 0
DWIDTH 9 0
BBX 7 4 1 14
BITMAP
86
C6
7C
10
ENDCHAR
STARTCHAR dotaccent
ENCODING 729
SWIDTH 176 0
DWIDTH 4 0
BBX 2 2 1 15
BITMAP
C0
C0
ENDCHAR
STARTCHAR ring
ENCODING 730
SWIDTH 272 0
DWIDTH 7 0
BBX 4 4 1 14
BITMAP
70
90
90
70
ENDCHAR
STARTCHAR ogonek
ENCODING 731
SWIDTH 267 0
DWIDTH 6 0
BBX 4 5 1 -5
BITMAP
70
40
C0
F0
70
ENDCHAR
STARTCHAR tilde
ENCODING 732
SWIDTH 403 0
DWIDTH 10 0
BBX 8 4 1 14
BITMAP
03
72
DE
80
ENDCHAR
STARTCHAR hungarumlaut
ENCODING 733
SWIDTH 379 0
DWIDTH 9 0
BBX 7 3 1 14
BITMAP
7E
6C
D8
ENDCHAR
STARTCHAR gravecomb
ENCODING 768
SWIDTH 0 0
DWIDTH 0 0
BBX 4 4 1 14
BITMAP
C0
60
60
30
ENDCHAR
STARTCHAR acutecomb
ENCODING 769
SWIDTH 0 0
DWIDTH 0 0
BBX 4 3 1 14
BITMAP
70
60
C0
ENDCHAR
STARTCHAR uni0302
ENCODING 770
SWIDTH 0 0
DWIDTH 0 0
BBX 7 4 1 14
BITMAP
38
78
6C
C6
ENDCHAR
STARTCHAR tildecomb
ENCODING 771
SWIDTH 0 0
DWIDTH 0 0
BBX 8 4 1 14
BITMAP
03
72
DE
80
ENDCHAR
STARTCHAR uni0304
ENCODING 772
SWIDTH 0 0
DWIDTH 0 0
BBX 6 2 1 15
BITMAP
FC
FC
ENDCHAR
STARTCHAR uni0306
ENCODING 774
SWIDTH 0 0
DWIDTH 0 0
BBX 7 4 1 14
BITMAP
86
C6
7C
10
ENDCHAR
STARTCHAR uni0307
ENCODING 775
SWIDTH 0 0
DWIDTH 0 0
BBX 2 2 1 15
BITMAP
C0
C0
ENDCHAR
STARTCHAR uni0308
ENCODING 776
SWIDTH 0 0
DWIDTH 0 0
BBX 6 2 1 15
BITMAP
CC
CC
ENDCHAR
STARTCHAR uni030A
ENCODING 778
SWIDTH 0 0
DWIDTH 0 0
BBX 4 4 1 14
BITMAP
70
90
90
70
ENDCHAR
STARTCHAR uni030B
ENCODING 779
SWIDTH 0 0
DWIDTH 0 0
BBX 7 3 1 14
BITMAP
7E
6C
D8
ENDCHAR
STARTCHAR uni030C
ENCODING 780
SWIDTH 0 0
DWIDTH 0 0
BBX 7 4 1 14
BITMAP
C6
6C
78
38
ENDCHAR
STARTCHAR uni0312
ENCODING 786
SWIDTH 0 0
DWIDTH 0 0
BBX 3 5 1 14
BITMAP
60
40
C0
C0
C0
ENDCHAR
STARTCHAR uni0326
ENCODING 806
SWIDTH 0 0
DWIDTH 0 0
BBX 3 5 1 -6
BITMAP
60
60
60
40
C0
ENDCHAR
STARTCHAR uni0327
ENCODING 807
SWIDTH 0 0
DWIDTH 0 0
BBX 6 5 1 -5
BITMAP
30
38
0C
C8
78
ENDCHAR
STARTCHAR uni0328
ENCODING 808
SWIDTH 0 0
DWIDTH 0 0
BBX 4 5 1 -5
BITMAP
70
40
C0
F0
70
ENDCHAR
STARTCHAR uni0335
ENCODING 821
SWIDTH 0 0
DWIDTH 0 0
BBX 7 1 3 8
BITMAP
FE
ENDCHAR
STARTCHAR uni0336
ENCODING 822
SWIDTH 0 0
DWIDTH 0 0
BBX 17 2 0 13
BITMAP
FFFF80
FFFF80
ENDCHAR
STARTCHAR uni0337
ENCODING 823
SWIDTH 0 0
DWIDTH 0 0
BBX 5 5 1 7
BITMAP
08
18
38
E0
80
ENDCHAR
STARTCHAR uni0338
ENCODING 824
SWIDTH 0 0
DWIDTH 0 0
BBX 11 13 1 0
BITMAP
0060
00C0
0180
0100
0300
0600
0400
0C00
1800
1000
3000
6000
C000
ENDCHAR
STARTCHAR Lambda
ENCODING 923
SWIDTH 668 0
DWIDTH 16 0
BBX 16 17 0 0
BITMAP
03C0
03C0
03C0
0660
0660
0660
0C30
0C30
0C30
1818
1818
381C
300C
300C
700E
6006
E007
ENDCHAR
STARTCHAR uni03A9
ENCODING 937
SWIDTH 731 0
DWIDTH 18 0
BBX 15 17 1 0
BITMAP
0FF0
1FF8
381C
700C
6006
E006
C006
C006
C006
C006
C006
6006
600C
300C
1818
FE7E
FE7E
ENDCHAR
STARTCHAR lambda
ENCODING 955
SWIDTH 570 0
DWIDTH 14 0
BBX 13 17 0 0
BITMAP
3800
3C00
0C00
0600
0600
0700
0700
0F00
0D80
1980
18C0
18C0
30C0
3060
7060
6038
E038
ENDCHAR
STARTCHAR pi
ENCODING 960
SWIDTH 655 0
DWIDTH 16 0
BBX 14 13 1 0
BITMAP
FFFC
FFFC
1860
1860
1860
1860
1860
1860
1860
1860
1830
183C
181C
ENDCHAR
STARTCHAR uni0400
ENCODING 1024
SWIDTH 603 0
DWIDTH 14 0
BBX 11 22 2 0
BITMAP
1800
0C00
0C00
0600
0000
FFE0
FFE0
C000
C000
C000
C000
C000
FFE0
FFE0
C000
C000
C000
C000
C000
C000
FFE0
FFE0
ENDCHAR
STARTCHAR uni0401
ENCODING 1025
SWIDTH 603 0
DWIDTH 14 0
BBX 11 21 2 0
BITMAP
3980
3980
0000
0000
FFE0
FFE0
C000
C000
C000
C000
C000
FFE0
FFE0
C000
C000
C000
C000
C000
C000
FFE0
FFE0
ENDCHAR
STARTCHAR uni0402
ENCODING 1026
SWIDTH 766 0
DWIDTH 18 0
BBX 17 17 0 0
BITMAP
FFF000
FFF000
060000
060000
060000
060000
067E00
07FF00
078380
070180
060180
060180
060180
060380
060700
061F00
061C00
ENDCHAR
STARTCHAR uni0403
ENCODING 1027
SWIDTH 576 0
DWIDTH 14 0
BBX 12 21 2 0
BITMAP
0380
0200
0600
0000
FFF0
FFF0
C000
C000
C000
C000
C000
C000
C000
C000
C000
C000
C000
C000
C000
C000
C000
ENDCHAR
STARTCHAR uni0404
ENCODING 1028
SWIDTH 737 0
DWIDTH 18 0
BBX 16 17 1 0
BITMAP
0FF0
1FF8
381C
700E
6006
6007
E000
FFC0
FFC0
FFC0
E000
6007
6006
700E
381C
1FF8
0FF0
ENDCHAR
STARTCHAR uni0405
ENCODING 1029
SWIDTH 640 0
DWIDTH 15 0
BBX 13 17 1 0
BITMAP
1FC0
3FE0
7070
6030
6038
6000
7000
3F00
0FC0
01F0
0038
4018
E018
6018
7038
3FF0
1FE0
ENDCHAR
STARTCHAR uni0406
ENCODING 1030
SWIDTH 274 0
DWIDTH 7 0
BBX 2 17 2 0
BITMAP
C0
C0
C0
C0
C0
C0
C0
C0
C0
C0
C0
C0
C0
C0
C0
C0
C0
ENDCHAR
STARTCHAR uni0407
ENCODING 1031
SWIDTH 270 0
DWIDTH 6 0
BBX 7 21 0 0
BITMAP
CE
CE
00
00
30
30
30
30
30
30
30
30
30
30
30
30
30
30
30
30
30
ENDCHAR
STARTCHAR uni0408
ENCODING 1032
SWIDTH 597 0
DWIDTH 14 0
BBX 10 17 2 0
BITMAP
00C0
00C0
00C0
00C0
00C0
00C0
00C0
00C0
00C0
00C0
00C0
C0C0
C0C0
C0C0
E1C0
7F80
3F00
ENDCHAR
STARTCHAR uni0409
ENCODING 1033
SWIDTH 1125 0
DWIDTH 27 0
BBX 24 17 2 0
BITMAP
1FFC00
1FFC00
181C00
181C00
181C00
181C00
181C00
181FF8
181FFC
181C0E
181C06
181C07
381C06
381C06
301C0E
F01FFC
E01FF0
ENDCHAR
STARTCHAR uni040A
ENCODING 1034
SWIDTH 1093 0
DWIDTH 26 0
BBX 23 17 2 0
BITMAP
C01800
C01800
C01800
C01800
C01800
C01800
C01800
FFFFF0
FFFFFC
C0180C
C0180E
C01806
C01806
C0180E
C0181C
C01FF8
C01FF0
ENDCHAR
STARTCHAR uni040B
ENCODING 1035
SWIDTH 766 0
DWIDTH 18 0
BBX 17 17 0 0
BITMAP
FFF000
FFF000
060000
060000
060000
060000
067E00
07FF00
078380
070180
060180
060180
060180
060180
060180
060180
060180
ENDCHAR
STARTCHAR uni040C
ENCODING 1036
SWIDTH 638 0
DWIDTH 15 0
BBX 13 21 2 0
BITMAP
0380
0300
0600
0000
C078
C0E0
C0C0
C180
C380
C700
CE00
DC00
F800
DC00
CE00
C700
C380
C1C0
C0E0
C070
C038
ENDCHAR
STARTCHAR uni040D
ENCODING 1037
SWIDTH 738 0
DWIDTH 18 0
BBX 14 22 2 0
BITMAP
0C00
0E00
0600
0000
0000
C03C
C03C
C07C
C07C
C0DC
C1DC
C19C
C39C
C31C
C61C
C61C
CC1C
CC1C
D81C
F81C
F01C
E01C
ENDCHAR
STARTCHAR uni040E
ENCODING 1038
SWIDTH 540 0
DWIDTH 13 0
BBX 12 22 0 0
BITMAP
10C0
18C0
0F80
0200
8000
6030
6030
7070
3060
3060
18C0
18C0
18C0
0D80
0D80
0F80
0700
0300
0700
0600
3E00
3C00
ENDCHAR
STARTCHAR uni040F
ENCODING 1039
SWIDTH 703 0
DWIDTH 17 0
BBX 13 21 2 -4
BITMAP
C018
C018
C018
C018
C018
C018
C018
C018
C018
C018
C018
C018
C018
C018
C018
FFF8
FFF8
0600
0600
0600
0600
ENDCHAR
STARTCHAR uni0410
ENCODING 1040
SWIDTH 668 0
DWIDTH 16 0
BBX 16 17 0 0
BITMAP
03C0
03C0
03C0
0660
0660
0660
0C30
0C30
0C30
1818
1FF8
3FFC
300C
300C
700E
6006
E007
ENDCHAR
STARTCHAR uni0411
ENCODING 1041
SWIDTH 660 0
DWIDTH 16 0
BBX 12 17 2 0
BITMAP
FFF0
FFF0
C000
C000
C000
C000
C000
FFC0
FFE0
C070
C030
C030
C030
C030
C070
FFE0
FF80
ENDCHAR
STARTCHAR uni0412
ENCODING 1042
SWIDTH 680 0
DWIDTH 16 0
BBX 13 17 2 0
BITMAP
FFC0
FFE0
C070
C030
C030
C030
C070
FFE0
FFC0
C0F0
C030
C018
C018
C038
C070
FFF0
FFC0
ENDCHAR
STARTCHAR uni0413
ENCODING 1043
SWIDTH 576 0
DWIDTH 14 0
BBX 12 17 2 0
BITMAP
FFF0
FFF0
C000
C000
C000
C000
C000
C000
C000
C000
C000
C000
C000
C000
C000
C000
C000
ENDCHAR
STARTCHAR uni0414
ENCODING 1044
SWIDTH 804 0
DWIDTH 19 0
BBX 17 21 1 -4
BITMAP
0FFE00
0FFE00
0C0600
0C0600
0C0600
0C0600
0C0600
0C0600
0C0600
1C0600
180600
180600
180600
180600
380600
FFFF80
FFFF80
C00180
C00180
C00180
C00180
ENDCHAR
STARTCHAR uni0415
ENCODING 1045
SWIDTH 603 0
DWIDTH 14 0
BBX 11 17 2 0
BITMAP
FFE0
FFE0
C000
C000
C000
C000
C000
FFE0
FFE0
C000
C000
C000
C000
C000
C000
FFE0
FFE0
ENDCHAR
STARTCHAR uni0416
ENCODING 1046
SWIDTH 927 0
DWIDTH 22 0
BBX 22 17 0 0
BITMAP
70303C
383030
183070
1C30E0
0E31C0
073380
03B300
01B700
01FE00
01B700
03B300
073180
0E31C0
1C30E0
383070
303038
F0301C
ENDCHAR
STARTCHAR uni0417
ENCODING 1047
SWIDTH 653 0
DWIDTH 16 0
BBX 13 17 1 0
BITMAP
1FE0
3FF0
7038
6018
0018
0038
0070
07C0
07E0
0030
0018
0018
2018
E018
7038
3FF0
1FE0
ENDCHAR
STARTCHAR uni0418
ENCODING 1048
SWIDTH 738 0
DWIDTH 18 0
BBX 14 17 2 0
BITMAP
C03C
C03C
C07C
C07C
C0DC
C1DC
C19C
C39C
C31C
C61C
C61C
CC1C
CC1C
D81C
F81C
F01C
E01C
ENDCHAR
STARTCHAR uni0419
ENCODING 1049
SWIDTH 738 0
DWIDTH 18 0
BBX 14 22 2 0
BITMAP
1840
0CC0
0F80
0000
0000
C03C
C03C
C07C
C07C
C0DC
C1DC
C19C
C39C
C31C
C61C
C61C
CC1C
CC1C
D81C
F81C
F01C
E01C
ENDCHAR
STARTCHAR uni041A
ENCODING 1050
SWIDTH 638 0
DWIDTH 15 0
BBX 13 17 2 0
BITMAP
C078
C0E0
C0C0
C180
C380
C700
CE00
DC00
F800
DC00
CE00
C700
C380
C1C0
C0E0
C070
C038
ENDCHAR
STARTCHAR uni041B
ENCODING 1051
SWIDTH 765 0
DWIDTH 18 0
BBX 14 17 2 0
BITMAP
1FFC
1FFC
180C
180C
180C
180C
180C
180C
180C
180C
180C
180C
380C
380C
300C
F00C
E00C
ENDCHAR
STARTCHAR uni041C
ENCODING 1052
SWIDTH 877 0
DWIDTH 21 0
BBX 17 17 2 0
BITMAP
E00380
F00780
F00780
F00780
D80F80
D80D80
DC0D80
CC1980
CC1980
CE3980
C63180
C63180
C77180
C36180
C36180
C1C180
C1C180
ENDCHAR
STARTCHAR uni041D
ENCODING 1053
SWIDTH 713 0
DWIDTH 17 0
BBX 13 17 2 0
BITMAP
C018
C018
C018
C018
C018
C018
C018
FFF8
FFF8
C018
C018
C018
C018
C018
C018
C018
C018
ENDCHAR
STARTCHAR uni041E
ENCODING 1054
SWIDTH 739 0
DWIDTH 18 0
BBX 16 17 1 0
BITMAP
0FF0
1FF8
381C
700E
6006
E006
C007
C007
C007
C007
C007
E006
6006
700E
381C
1FF8
0FF0
ENDCHAR
STARTCHAR uni041F
ENCODING 1055
SWIDTH 703 0
DWIDTH 17 0
BBX 13 17 2 0
BITMAP
FFF8
FFF8
C018
C018
C018
C018
C018
C018
C018
C018
C018
C018
C018
C018
C018
C018
C018
ENDCHAR
STARTCHAR uni0420
ENCODING 1056
SWIDTH 650 0
DWIDTH 16 0
BBX 12 17 2 0
BITMAP
FF80
FFE0
C070
C030
C030
C030
C030
C070
FFE0
FFC0
C000
C000
C000
C000
C000
C000
C000
ENDCHAR
STARTCHAR uni0421
ENCODING 1057
SWIDTH 697 0
DWIDTH 17 0
BBX 15 17 1 0
BITMAP
0FF0
1FF8
381C
700C
600C
E00A
C000
C000
C000
C000
C000
E006
600C
700C
381C
1FF8
0FE0
ENDCHAR
STARTCHAR uni0422
ENCODING 1058
SWIDTH 566 0
DWIDTH 14 0
BBX 13 17 0 0
BITMAP
FFF8
FFF8
0600
0600
0600
0600
0600
0600
0600
0600
0600
0600
0600
0600
0600
0600
0600
ENDCHAR
STARTCHAR uni0423
ENCODING 1059
SWIDTH 540 0
DWIDTH 13 0
BBX 12 17 0 0
BITMAP
E030
6030
7070
3060
3060
18C0
18C0
18C0
0D80
0D80
0F80
0700
0300
0700
0600
3E00
3C00
ENDCHAR
STARTCHAR uni0424
ENCODING 1060
SWIDTH 831 0
DWIDTH 20 0
BBX 18 17 1 0
BITMAP
00C000
00C000
07F800
1FFE00
38C700
60C380
E0C1C0
C0C0C0
C0C0C0
C0C0C0
E0C1C0
60C380
38C700
1FFE00
07F800
00C000
00C000
ENDCHAR
STARTCHAR uni0425
ENCODING 1061
SWIDTH 606 0
DWIDTH 15 0
BBX 14 17 0 0
BITMAP
E01C
7018
3830
1870
1C60
0CC0
07C0
0780
0380
0780
06C0
0CE0
1C60
1870
3038
7018
E01C
ENDCHAR
STARTCHAR uni0426
ENCODING 1062
SWIDTH 770 0
DWIDTH 18 0
BBX 15 21 2 -4
BITMAP
C018
C018
C018
C018
C018
C018
C018
C018
C018
C018
C018
C018
C018
C018
C018
FFFE
FFFE
0006
0006
0006
0006
ENDCHAR
STARTCHAR uni0427
ENCODING 1063
SWIDTH 652 0
DWIDTH 16 0
BBX 12 17 1 0
BITMAP
C030
C030
C030
C030
C030
C030
C030
C030
E070
7FF0
3FB0
0030
0030
0030
0030
0030
0030
ENDCHAR
STARTCHAR uni0428
ENCODING 1064
SWIDTH 918 0
DWIDTH 22 0
BBX 18 17 2 0
BITMAP
C0C0C0
C0C0C0
C0C0C0
C0C0C0
C0C0C0
C0C0C0
C0C0C0
C0C0C0
C0C0C0
C0C0C0
C0C0C0
C0C0C0
C0C0C0
C0C0C0
C0C0C0
FFFFC0
FFFFC0
ENDCHAR
STARTCHAR uni0429
ENCODING 1065
SWIDTH 985 0
DWIDTH 24 0
BBX 20 21 2 -4
BITMAP
C0C0C0
C0C0C0
C0C0C0
C0C0C0
C0C0C0
C0C0C0
C0C0C0
C0C0C0
C0C0C0
C0C0C0
C0C0C0
C0C0C0
C0C0C0
C0C0C0
C0C0C0
FFFFF0
FFFFF0
000030
000030
000030
000030
ENDCHAR
STARTCHAR uni042A
ENCODING 1066
SWIDTH 739 0
DWIDTH 18 0
BBX 14 17 2 0
BITMAP
F000
F000
3000
3000
3000
3000
3000
3FF0
3FF8
301C
300C
300C
300C
300C
301C
3FF8
3FF0
ENDCHAR
STARTCHAR uni042B
ENCODING 1067
SWIDTH 855 0
DWIDTH 21 0
BBX 16 17 2 0
BITMAP
C003
C003
C003
C003
C003
C003
C003
FFC3
FFE3
C073
C033
C033
C033
C033
C073
FFE3
FF83
ENDCHAR
STARTCHAR uni042C
ENCODING 1068
SWIDTH 660 0
DWIDTH 16 0
BBX 12 17 2 0
BITMAP
C000
C000
C000
C000
C000
C000
C000
FFC0
FFE0
C070
C030
C030
C030
C030
C070
FFE0
FF80
ENDCHAR
STARTCHAR uni042D
ENCODING 1069
SWIDTH 729 0
DWIDTH 18 0
BBX 15 17 1 0
BITMAP
0FF0
3FF8
781C
600C
E00E
C006
0006
03FE
03FE
03FE
0006
C006
E00E
600C
781C
3FF8
0FE0
ENDCHAR
STARTCHAR uni042E
ENCODING 1070
SWIDTH 986 0
DWIDTH 24 0
BBX 21 17 2 0
BITMAP
C07F80
C0FFC0
C1C0E0
C38070
C30030
C70030
C60030
FE0038
FE0038
C60038
C60030
C70030
C30030
C38070
C1C0E0
C0FFC0
C07F80
ENDCHAR
STARTCHAR uni042F
ENCODING 1071
SWIDTH 678 0
DWIDTH 16 0
BBX 13 17 1 0
BITMAP
0FF8
3FF8
3818
6018
6018
6018
6018
7018
3FF8
0FF8
0C18
0C18
1818
3818
3018
7018
E018
ENDCHAR
STARTCHAR uni0430
ENCODING 1072
SWIDTH 551 0
DWIDTH 13 0
BBX 12 13 1 0
BITMAP
1F00
3F80
60C0
E0C0
0060
03E0
3FE0
7860
E0E0
C0E0
C1E0
F770
7E70
ENDCHAR
STARTCHAR uni0431
ENCODING 1073
SWIDTH 593 0
DWIDTH 14 0
BBX 12 18 1 0
BITMAP
0380
0300
0F00
1E00
3800
6000
6600
DFC0
F8E0
E070
E030
C030
C030
C030
6030
7060
3FE0
1F80
ENDCHAR
STARTCHAR uni0432
ENCODING 1074
SWIDTH 592 0
DWIDTH 14 0
BBX 11 13 2 0
BITMAP
FE00
FF80
C1C0
C0C0
C0C0
C380
FF00
C3C0
C0C0
C0E0
C0C0
FFC0
FF00
ENDCHAR
STARTCHAR uni0433
ENCODING 1075
SWIDTH 485 0
DWIDTH 12 0
BBX 9 13 2 0
BITMAP
FF80
FF80
C000
C000
C000
C000
C000
C000
C000
C000
C000
C000
C000
ENDCHAR
STARTCHAR uni0434
ENCODING 1076
SWIDTH 689 0
DWIDTH 17 0
BBX 15 17 1 -4
BITMAP
0FF8
0FF8
0C38
0C38
1C38
1838
1838
1838
1838
1838
3038
FFFE
FFFE
C006
C006
C006
C006
ENDCHAR
STARTCHAR uni0435
ENCODING 1077
SWIDTH 561 0
DWIDTH 13 0
BBX 11 13 1 0
BITMAP
1F00
3FC0
70C0
6060
C060
FFE0
FFE0
C000
C000
E060
60E0
3FC0
1F80
ENDCHAR
STARTCHAR uni0436
ENCODING 1078
SWIDTH 860 0
DWIDTH 21 0
BBX 19 13 1 0
BITMAP
E0C1C0
70C180
38C300
1CC700
0ECE00
07DC00
03F800
07DC00
0ECE00
1CC600
38C300
70C180
E0C1E0
ENDCHAR
STARTCHAR uni0437
ENCODING 1079
SWIDTH 535 0
DWIDTH 13 0
BBX 11 13 1 0
BITMAP
1F00
7F80
60C0
00C0
00C0
0F80
0F80
01C0
00C0
C060
E0E0
7FC0
3F80
ENDCHAR
STARTCHAR uni0438
ENCODING 1080
SWIDTH 573 0
DWIDTH 14 0
BBX 10 13 2 0
BITMAP
C1C0
C1C0
C3C0
C3C0
C6C0
CEC0
CCC0
DCC0
D8C0
F0C0
F0C0
E0C0
E0C0
ENDCHAR
STARTCHAR uni0439
ENCODING 1081
SWIDTH 573 0
DWIDTH 14 0
BBX 10 18 2 0
BITMAP
6100
2300
3E00
0800
0000
C1C0
C1C0
C3C0
C3C0
C6C0
CEC0
CCC0
DCC0
D8C0
F0C0
F0C0
E0C0
E0C0
ENDCHAR
STARTCHAR uni043A
ENCODING 1082
SWIDTH 592 0
DWIDTH 14 0
BBX 11 13 2 0
BITMAP
C0E0
C1C0
C380
C700
CE00
DC00
F800
D800
CC00
C600
C380
C1C0
C0E0
ENDCHAR
STARTCHAR uni043B
ENCODING 1083
SWIDTH 675 0
DWIDTH 16 0
BBX 13 13 1 0
BITMAP
0FF8
0FF8
0C18
0C18
0C18
1818
1818
1818
1818
1818
1818
F018
F018
ENDCHAR
STARTCHAR uni043C
ENCODING 1084
SWIDTH 718 0
DWIDTH 17 0
BBX 13 13 2 0
BITMAP
E038
E038
F038
F078
F078
D878
D8D8
D8D8
CCD8
CD98
CF98
C718
C718
ENDCHAR
STARTCHAR uni043D
ENCODING 1085
SWIDTH 578 0
DWIDTH 14 0
BBX 10 13 2 0
BITMAP
C0C0
C0C0
C0C0
C0C0
C0C0
C0C0
FFC0
FFC0
C0C0
C0C0
C0C0
C0C0
C0C0
ENDCHAR
STARTCHAR uni043E
ENCODING 1086
SWIDTH 573 0
DWIDTH 14 0
BBX 12 13 1 0
BITMAP
1F00
3FC0
70E0
6060
C060
C070
C030
C030
C070
E060
70E0
3FC0
1F80
ENDCHAR
STARTCHAR uni043F
ENCODING 1087
SWIDTH 579 0
DWIDTH 14 0
BBX 10 13 2 0
BITMAP
FFC0
FFC0
C0C0
C0C0
C0C0
C0C0
C0C0
C0C0
C0C0
C0C0
C0C0
C0C0
C0C0
ENDCHAR
STARTCHAR uni0440
ENCODING 1088
SWIDTH 595 0
DWIDTH 14 0
BBX 11 17 2 -4
BITMAP
CF00
FF80
F1C0
E0E0
C060
C060
C060
C060
C060
C060
E0C0
FFC0
DF80
C000
C000
C000
C000
ENDCHAR
STARTCHAR uni0441
ENCODING 1089
SWIDTH 546 0
DWIDTH 13 0
BBX 11 13 1 0
BITMAP
1F00
3FC0
70E0
6060
C040
C000
C000
C000
C040
E060
70E0
3FC0
1F80
ENDCHAR
STARTCHAR uni0442
ENCODING 1090
SWIDTH 558 0
DWIDTH 13 0
BBX 11 13 1 0
BITMAP
FFE0
FFE0
0600
0600
0600
0600
0600
0600
0600
0600
0600
0600
0600
ENDCHAR
STARTCHAR uni0443
ENCODING 1091
SWIDTH 537 0
DWIDTH 13 0
BBX 11 17 1 -4
BITMAP
C060
C060
E0E0
60C0
60C0
7180
3180
3180
1B00
1B00
1B00
0E00
0E00
0600
0C00
7C00
7000
ENDCHAR
STARTCHAR uni0444
ENCODING 1092
SWIDTH 641 0
DWIDTH 15 0
BBX 13 21 1 -4
BITMAP
0300
0300
0300
0300
0300
1FC0
3FF0
7330
E318
C318
C318
C318
E318
7338
3FF0
1FC0
0300
0300
0300
0300
0300
ENDCHAR
STARTCHAR uni0445
ENCODING 1093
SWIDTH 585 0
DWIDTH 14 0
BBX 12 13 1 0
BITMAP
E070
70E0
30C0
1980
1F80
0F00
0600
0F00
1F80
1980
30C0
7060
E070
ENDCHAR
STARTCHAR uni0446
ENCODING 1094
SWIDTH 654 0
DWIDTH 16 0
BBX 12 17 2 -4
BITMAP
C0C0
C0C0
C0C0
C0C0
C0C0
C0C0
C0C0
C0C0
C0C0
C0C0
C0C0
FFF0
FFF0
0030
0030
0030
0030
ENDCHAR
STARTCHAR uni0447
ENCODING 1095
SWIDTH 601 0
DWIDTH 14 0
BBX 11 13 2 0
BITMAP
C0E0
C0E0
C0E0
C0E0
C0E0
C0E0
E1E0
7FE0
3EE0
00E0
00E0
00E0
00E0
ENDCHAR
STARTCHAR uni0448
ENCODING 1096
SWIDTH 794 0
DWIDTH 19 0
BBX 15 13 2 0
BITMAP
C186
C186
C186
C186
C186
C186
C186
C186
C186
C186
C186
FFFE
FFFE
ENDCHAR
STARTCHAR uni0449
ENCODING 1097
SWIDTH 864 0
DWIDTH 21 0
BBX 17 17 2 -4
BITMAP
C18600
C18600
C18600
C18600
C18600
C18600
C18600
C18600
C18600
C18600
C18600
FFFF80
FFFF80
000180
000180
000180
000180
ENDCHAR
STARTCHAR uni044A
ENCODING 1098
SWIDTH 645 0
DWIDTH 15 0
BBX 13 13 1 0
BITMAP
F800
F800
3800
3800
3800
3FE0
3FF8
3818
3818
3818
3818
3FF0
3FE0
ENDCHAR
STARTCHAR uni044B
ENCODING 1099
SWIDTH 794 0
DWIDTH 19 0
BBX 15 13 2 0
BITMAP
C006
C006
C006
C006
C006
FF86
FFC6
C0E6
C066
C066
C0E6
FFC6
FF06
ENDCHAR
STARTCHAR uni044C
ENCODING 1100
SWIDTH 580 0
DWIDTH 14 0
BBX 11 13 2 0
BITMAP
C000
C000
C000
C000
C000
FF80
FFC0
C0E0
C060
C060
C0E0
FFC0
FF00
ENDCHAR
STARTCHAR uni044D
ENCODING 1101
SWIDTH 565 0
DWIDTH 14 0
BBX 12 13 1 0
BITMAP
1F00
3FC0
70C0
E060
C060
0060
07F0
07E0
0060
E060
60E0
7FC0
1F80
ENDCHAR
STARTCHAR uni044E
ENCODING 1102
SWIDTH 782 0
DWIDTH 19 0
BBX 16 13 2 0
BITMAP
C1F0
C3FC
C70E
C606
CE06
CC03
FC03
FC03
CC07
C606
C70E
C3FC
C1F8
ENDCHAR
STARTCHAR uni044F
ENCODING 1103
SWIDTH 589 0
DWIDTH 14 0
BBX 10 13 2 0
BITMAP
1FC0
7FC0
E0C0
C0C0
C0C0
E0C0
7FC0
3FC0
18C0
30C0
70C0
60C0
E0C0
ENDCHAR
STARTCHAR uni0450
ENCODING 1104
SWIDTH 561 0
DWIDTH 13 0
BBX 11 18 1 0
BITMAP
1800
0C00
0C00
0600
0000
1F00
3FC0
70C0
6060
C060
FFE0
FFE0
C000
C000
E060
60E0
3FC0
1F80
ENDCHAR
STARTCHAR uni0451
ENCODING 1105
SWIDTH 561 0
DWIDTH 13 0
BBX 11 17 1 0
BITMAP
1980
1980
0000
0000
1F00
3FC0
70C0
6060
C060
FFE0
FFE0
C000
C000
E060
60E0
3FC0
1F80
ENDCHAR
STARTCHAR uni0452
ENCODING 1106
SWIDTH 616 0
DWIDTH 15 0
BBX 12 21 1 -4
BITMAP
3000
FE00
FE00
3000
37C0
3FE0
3860
3030
3030
3030
3030
3030
3030
3030
3030
3030
3030
0030
0070
01E0
0180
ENDCHAR
STARTCHAR uni0453
ENCODING 1107
SWIDTH 485 0
DWIDTH 12 0
BBX 9 17 2 0
BITMAP
0600
0C00
1800
0000
FF80
FF80
C000
C000
C000
C000
C000
C000
C000
C000
C000
C000
C000
ENDCHAR
STARTCHAR uni0454
ENCODING 1108
SWIDTH 565 0
DWIDTH 14 0
BBX 12 13 1 0
BITMAP
1F00
3FC0
70E0
6060
C070
C000
FC00
FC00
C000
E060
70E0
3FC0
1F80
ENDCHAR
STARTCHAR uni0455
ENCODING 1109
SWIDTH 524 0
DWIDTH 13 0
BBX 11 13 1 0
BITMAP
1F00
7F80
61C0
E0C0
E000
7000
3F00
0FC0
00C0
C0E0
E0C0
7FC0
3F80
ENDCHAR
STARTCHAR uni0456
ENCODING 1110
SWIDTH 244 0
DWIDTH 6 0
BBX 2 17 2 0
BITMAP
C0
C0
00
00
C0
C0
C0
C0
C0
C0
C0
C0
C0
C0
C0
C0
C0
ENDCHAR
STARTCHAR uni0457
ENCODING 1111
SWIDTH 244 0
DWIDTH 6 0
BBX 6 17 0 0
BITMAP
CC
CC
00
00
30
30
30
30
30
30
30
30
30
30
30
30
30
ENDCHAR
STARTCHAR uni0458
ENCODING 1112
SWIDTH 260 0
DWIDTH 6 0
BBX 4 21 0 -4
BITMAP
30
30
00
00
30
30
30
30
30
30
30
30
30
30
30
30
30
30
30
F0
C0
ENDCHAR
STARTCHAR uni0459
ENCODING 1113
SWIDTH 1011 0
DWIDTH 24 0
BBX 22 13 1 0
BITMAP
0FF800
0FF800
0C1800
0C1800
0C1800
181FF0
181FF8
18181C
18180C
18180C
18181C
F01FF8
F01FF0
ENDCHAR
STARTCHAR uni045A
ENCODING 1114
SWIDTH 914 0
DWIDTH 22 0
BBX 19 13 2 0
BITMAP
C0C000
C0C000
C0C000
C0C000
C0C000
FFFF80
FFFFC0
C0C0E0
C0C060
C0C060
C0C0E0
C0FFC0
C0FF00
ENDCHAR
STARTCHAR uni045B
ENCODING 1115
SWIDTH 581 0
DWIDTH 14 0
BBX 12 17 0 0
BITMAP
3000
3000
FE00
3000
33C0
3FE0
3870
3030
3030
3030
3030
3030
3030
3030
3030
3030
3030
ENDCHAR
STARTCHAR uni045C
ENCODING 1116
SWIDTH 592 0
DWIDTH 14 0
BBX 11 17 2 0
BITMAP
0700
0600
0C00
0000
C0E0
C1C0
C380
C700
CE00
DC00
F800
D800
CC00
C600
C380
C1C0
C0E0
ENDCHAR
STARTCHAR uni045D
ENCODING 1117
SWIDTH 573 0
DWIDTH 14 0
BBX 10 18 2 0
BITMAP
3000
1800
1800
0C00
0000
C1C0
C1C0
C3C0
C3C0
C6C0
CEC0
CCC0
DCC0
D8C0
F0C0
F0C0
E0C0
E0C0
ENDCHAR
STARTCHAR uni045E
ENCODING 1118
SWIDTH 537 0
DWIDTH 13 0
BBX 11 22 1 -4
BITMAP
2180
3100
1F00
0400
0000
C060
C060
E0E0
60C0
60C0
7180
3180
3180
1B00
1B00
1B00
0E00
0E00
0600
0C00
7C00
7000
ENDCHAR
STARTCHAR uni045F
ENCODING 1119
SWIDTH 579 0
DWIDTH 14 0
BBX 10 17 2 -4
BITMAP
C0C0
C0C0
C0C0
C0C0
C0C0
C0C0
C0C0
C0C0
C0C0
C0C0
C0C0
FFC0
FFC0
0C00
0C00
0C00
0C00
ENDCHAR
STARTCHAR uni0462
ENCODING 1122
SWIDTH 746 0
DWIDTH 18 0
BBX 15 17 1 0
BITMAP
1800
1800
FF00
FF00
1800
1800
1800
1FF8
1FFC
180E
1806
1806
1806
1806
180E
1FFC
1FF0
ENDCHAR
STARTCHAR uni0463
ENCODING 1123
SWIDTH 678 0
DWIDTH 16 0
BBX 14 17 1 0
BITMAP
1800
1800
FF00
FF00
1800
1800
1800
1800
1F80
1FF8
183C
180C
180C
180C
181C
1FF8
1FF0
ENDCHAR
STARTCHAR uni046A
ENCODING 1130
SWIDTH 682 0
DWIDTH 16 0
BBX 16 17 0 0
BITMAP
3FFC
3FFC
380C
1C18
0C38
0E30
0760
03E0
0FF0
1FF8
1998
198C
318C
318E
7186
6186
E183
ENDCHAR
STARTCHAR uni046B
ENCODING 1131
SWIDTH 706 0
DWIDTH 17 0
BBX 15 13 1 0
BITMAP
7FFC
7FFC
3018
1830
0C60
06C0
0FE0
1FF0
3BB8
3398
739C
638C
E38E
ENDCHAR
STARTCHAR uni0472
ENCODING 1138
SWIDTH 739 0
DWIDTH 18 0
BBX 16 17 1 0
BITMAP
0FF0
1FF8
381C
700E
6006
E006
C007
FF07
FFFF
C0FF
C007
E006
6006
700E
381C
1FF8
0FF0
ENDCHAR
STARTCHAR uni0473
ENCODING 1139
SWIDTH 573 0
DWIDTH 14 0
BBX 12 13 1 0
BITMAP
1F00
3FC0
70E0
6060
C060
F870
FF30
C3F0
C070
E060
70E0
3FC0
1F80
ENDCHAR
STARTCHAR uni0474
ENCODING 1140
SWIDTH 722 0
DWIDTH 17 0
BBX 17 17 0 0
BITMAP
E00380
600780
700E00
300C00
300C00
381C00
181800
181800
0C3000
0C3000
0E7000
066000
066000
07E000
03C000
03C000
03C000
ENDCHAR
STARTCHAR uni0475
ENCODING 1141
SWIDTH 587 0
DWIDTH 14 0
BBX 13 13 1 0
BITMAP
C018
C078
C0E0
60C0
60C0
7180
3180
3180
1B00
1B00
1B00
0E00
0E00
ENDCHAR
STARTCHAR uni0490
ENCODING 1168
SWIDTH 505 0
DWIDTH 12 0
BBX 10 21 2 0
BITMAP
00C0
00C0
00C0
00C0
FFC0
FFC0
C000
C000
C000
C000
C000
C000
C000
C000
C000
C000
C000
C000
C000
C000
C000
ENDCHAR
STARTCHAR uni0491
ENCODING 1169
SWIDTH 431 0
DWIDTH 10 0
BBX 8 16 2 0
BITMAP
03
03
03
FF
FF
C0
C0
C0
C0
C0
C0
C0
C0
C0
C0
C0
ENDCHAR
STARTCHAR uni0492
ENCODING 1170
SWIDTH 629 0
DWIDTH 15 0
BBX 13 17 2 0
BITMAP
7FF8
7FF8
7000
7000
7000
7000
7000
7000
FF80
FF80
7000
7000
7000
7000
7000
7000
7000
ENDCHAR
STARTCHAR uni0493
ENCODING 1171
SWIDTH 534 0
DWIDTH 13 0
BBX 11 13 1 0
BITMAP
3FE0
3FE0
3000
3000
3000
3000
FF00
3000
3000
3000
3000
3000
3000
ENDCHAR
STARTCHAR uni0496
ENCODING 1174
SWIDTH 958 0
DWIDTH 23 0
BBX 23 21 0 -4
BITMAP
70303C
383030
183070
1C30E0
0E31C0
073380
03B300
01B700
01FE00
01B700
03B300
073180
0E31C0
1C30E0
383070
30303E
F0301E
000006
000006
000006
000006
ENDCHAR
STARTCHAR uni0497
ENCODING 1175
SWIDTH 866 0
DWIDTH 21 0
BBX 19 17 1 -4
BITMAP
E0C1C0
70C180
38C300
1CC700
0ECE00
07DC00
03F800
07DC00
0ECE00
1CC600
38C300
70C1E0
E0C1E0
000060
000060
000060
000060
ENDCHAR
STARTCHAR uni049A
ENCODING 1178
SWIDTH 653 0
DWIDTH 16 0
BBX 13 21 2 -4
BITMAP
C078
C0E0
C0C0
C180
C380
C700
CE00
DC00
F800
DC00
CE00
C700
C380
C1C0
C0E0
C078
C038
0018
0018
0018
0018
ENDCHAR
STARTCHAR uni049B
ENCODING 1179
SWIDTH 600 0
DWIDTH 14 0
BBX 11 17 2 -4
BITMAP
C0E0
C1C0
C380
C700
CE00
DC00
F800
D800
CC00
C600
C380
C1E0
C0E0
0060
0060
0060
0060
ENDCHAR
STARTCHAR uni04A2
ENCODING 1186
SWIDTH 750 0
DWIDTH 18 0
BBX 14 21 2 -4
BITMAP
C018
C018
C018
C018
C018
C018
C018
FFF8
FFF8
C018
C018
C018
C018
C018
C018
C01C
C01C
000C
000C
000C
000C
ENDCHAR
STARTCHAR uni04A3
ENCODING 1187
SWIDTH 658 0
DWIDTH 16 0
BBX 12 17 2 -4
BITMAP
C0C0
C0C0
C0C0
C0C0
C0C0
C0C0
FFC0
FFC0
C0C0
C0C0
C0C0
C0F0
C0F0
0030
0030
0030
0030
ENDCHAR
STARTCHAR uni04AE
ENCODING 1198
SWIDTH 576 0
DWIDTH 14 0
BBX 14 17 0 0
BITMAP
E01C
6018
7030
3070
1860
1CE0
0CC0
0F80
0780
0300
0300
0300
0300
0300
0300
0300
0300
ENDCHAR
STARTCHAR uni04AF
ENCODING 1199
SWIDTH 536 0
DWIDTH 13 0
BBX 11 17 1 -4
BITMAP
C060
C060
C0E0
60C0
60C0
3180
3180
3180
1B00
1B00
1E00
0E00
0E00
0C00
0C00
0C00
0C00
ENDCHAR
STARTCHAR uni04B0
ENCODING 1200
SWIDTH 639 0
DWIDTH 15 0
BBX 14 17 0 0
BITMAP
E01C
6018
3038
3830
1860
1C60
0CC0
07C0
0780
1FF8
1FF8
1FF8
0300
0300
0300
0300
0300
ENDCHAR
STARTCHAR uni04B1
ENCODING 1201
SWIDTH 536 0
DWIDTH 13 0
BBX 11 17 1 -4
BITMAP
C060
C060
C0E0
60C0
60C0
3180
3180
3180
1B00
1B00
1E00
0E00
3F80
3F80
0C00
0C00
0C00
ENDCHAR
STARTCHAR uni04B2
ENCODING 1202
SWIDTH 653 0
DWIDTH 16 0
BBX 15 21 0 -4
BITMAP
E01C
7018
3830
1870
1C60
0CC0
07C0
0780
0380
0780
06C0
0CE0
1C60
1870
3038
701E
E01E
0006
0006
0006
0006
ENDCHAR
STARTCHAR uni04B3
ENCODING 1203
SWIDTH 616 0
DWIDTH 15 0
BBX 13 17 1 -4
BITMAP
E070
70E0
30C0
1980
1F80
0F00
0600
0F00
1F80
1980
30C0
7078
E078
0018
0018
0018
0018
ENDCHAR
STARTCHAR uni04B6
ENCODING 1206
SWIDTH 705 0
DWIDTH 17 0
BBX 14 21 1 -4
BITMAP
C030
C030
C030
C030
C030
C030
C030
C030
E070
7FF0
3FB0
0030
0030
0030
0030
003C
003C
000C
000C
000C
000C
ENDCHAR
STARTCHAR uni04B7
ENCODING 1207
SWIDTH 664 0
DWIDTH 16 0
BBX 12 17 2 -4
BITMAP
C0E0
C0E0
C0E0
C0E0
C0E0
C0E0
E1E0
7FE0
3EE0
00E0
00E0
00F0
00F0
0030
0030
0030
0030
ENDCHAR
STARTCHAR uni04BA
ENCODING 1210
SWIDTH 652 0
DWIDTH 16 0
BBX 13 17 2 0
BITMAP
C000
C000
C000
C000
C000
C000
CFC0
DFF0
F030
E030
C018
C018
C018
C018
C018
C018
C018
ENDCHAR
STARTCHAR uni04BB
ENCODING 1211
SWIDTH 581 0
DWIDTH 14 0
BBX 10 17 2 0
BITMAP
C000
C000
C000
C000
CF00
FF80
E1C0
C0C0
C0C0
C0C0
C0C0
C0C0
C0C0
C0C0
C0C0
C0C0
C0C0
ENDCHAR
STARTCHAR uni04C0
ENCODING 1216
SWIDTH 270 0
DWIDTH 6 0
BBX 2 17 2 0
BITMAP
C0
C0
C0
C0
C0
C0
C0
C0
C0
C0
C0
C0
C0
C0
C0
C0
C0
ENDCHAR
STARTCHAR uni04CF
ENCODING 1231
SWIDTH 268 0
DWIDTH 6 0
BBX 2 17 2 0
BITMAP
C0
C0
C0
C0
C0
C0
C0
C0
C0
C0
C0
C0
C0
C0
C0
C0
C0
ENDCHAR
STARTCHAR uni04D8
ENCODING 1240
SWIDTH 713 0
DWIDTH 17 0
BBX 15 17 1 0
BITMAP
0FE0
1FF0
3838
701C
600C
000E
0006
0006
FFFE
FFFE
C006
E006
600C
701C
3838
1FF0
0FE0
ENDCHAR
STARTCHAR uni04D9
ENCODING 1241
SWIDTH 561 0
DWIDTH 13 0
BBX 11 13 1 0
BITMAP
1F00
3FC0
70C0
E060
0060
0060
FFE0
FFE0
C060
E060
60E0
3FC0
1F80
ENDCHAR
STARTCHAR uni04E2
ENCODING 1250
SWIDTH 738 0
DWIDTH 18 0
BBX 14 21 2 0
BITMAP
1FC0
1FC0
0000
0000
C03C
C03C
C07C
C07C
C0DC
C1DC
C19C
C39C
C31C
C61C
C61C
CC1C
CC1C
D81C
F81C
F01C
E01C
ENDCHAR
STARTCHAR uni04E3
ENCODING 1251
SWIDTH 573 0
DWIDTH 14 0
BBX 10 17 2 0
BITMAP
3F00
3F00
0000
0000
C1C0
C1C0
C3C0
C3C0
C6C0
CEC0
CCC0
DCC0
D8C0
F0C0
F0C0
E0C0
E0C0
ENDCHAR
STARTCHAR uni04E8
ENCODING 1256
SWIDTH 739 0
DWIDTH 18 0
BBX 16 17 1 0
BITMAP
0FF0
1FF8
381C
700E
6006
E006
C007
FFFF
FFFF
C007
C007
E006
6006
700E
381C
1FF8
0FF0
ENDCHAR
STARTCHAR uni04E9
ENCODING 1257
SWIDTH 576 0
DWIDTH 14 0
BBX 12 13 1 0
BITMAP
1F00
3FC0
70E0
6060
C060
C070
FFF0
FFF0
C060
E060
60E0
3FC0
1F80
ENDCHAR
STARTCHAR uni04EE
ENCODING 1262
SWIDTH 540 0
DWIDTH 13 0
BBX 12 21 0 0
BITMAP
1FC0
1FC0
0000
8000
6030
6030
7070
3060
3060
18C0
18C0
18C0
0D80
0D80
0F80
0700
0300
0700
0600
3E00
3C00
ENDCHAR
STARTCHAR uni04EF
ENCODING 1263
SWIDTH 537 0
DWIDTH 13 0
BBX 11 21 1 -4
BITMAP
3F80
3F80
0000
0000
C060
C060
E0E0
60C0
60C0
7180
3180
3180
1B00
1B00
1B00
0E00
0E00
0600
0C00
7C00
7000
ENDCHAR
STARTCHAR uni0E3F
ENCODING 3647
SWIDTH 650 0
DWIDTH 16 0
BBX 12 21 2 -2
BITMAP
0C00
0C00
FF80
FFC0
CCE0
CC60
CC60
CC60
CCE0
FFC0
FFC0
CCE0
CC70
CC30
CC30
CC30
CC70
FFE0
FF80
0C00
0C00
ENDCHAR
STARTCHAR uni1E20
ENCODING 7712
SWIDTH 700 0
DWIDTH 17 0
BBX 15 21 1 0
BITMAP
07E0
07E0
0000
0000
0FE0
1FF8
381C
700C
600C
E002
C000
C000
C0FE
C0FE
C006
E006
600E
700E
381E
1FF6
0FE6
ENDCHAR
STARTCHAR uni1E21
ENCODING 7713
SWIDTH 594 0
DWIDTH 14 0
BBX 11 21 1 -4
BITMAP
1F80
1F80
0000
0000
1F60
3FE0
70E0
E060
C060
C060
C060
C060
E060
60E0
7FE0
1F60
0060
E060
70E0
3FC0
0F00
ENDCHAR
STARTCHAR Wgrave
ENCODING 7808
SWIDTH 945 0
DWIDTH 23 0
BBX 21 22 1 0
BITMAP
01C000
00C000
006000
002000
000000
C07038
E07030
607030
60F030
60D870
70D860
30D860
319860
318CE0
398CC0
198CC0
1B0CC0
1B0780
1F0780
0F0780
0E0780
0E0300
ENDCHAR
STARTCHAR wgrave
ENCODING 7809
SWIDTH 819 0
DWIDTH 20 0
BBX 18 18 1 0
BITMAP
030000
018000
018000
00C000
000000
C0C0C0
C1C0C0
C1E180
61E180
616180
636380
633300
333300
363300
361E00
1E1E00
1C1E00
1C1C00
ENDCHAR
STARTCHAR Wacute
ENCODING 7810
SWIDTH 945 0
DWIDTH 23 0
BBX 21 21 1 0
BITMAP
001800
003000
006000
000000
C07038
E07030
607030
60F030
60D870
70D860
30D860
319860
318CE0
398CC0
198CC0
1B0CC0
1B0780
1F0780
0F0780
0E0780
0E0300
ENDCHAR
STARTCHAR wacute
ENCODING 7811
SWIDTH 819 0
DWIDTH 20 0
BBX 18 17 1 0
BITMAP
007000
004000
00C000
000000
C0C0C0
C1C0C0
C1E180
61E180
616180
636380
633300
333300
363300
361E00
1E1E00
1C1E00
1C1C00
ENDCHAR
STARTCHAR Wdieresis
ENCODING 7812
SWIDTH 945 0
DWIDTH 23 0
BBX 21 21 1 0
BITMAP
019800
019800
000000
000000
C07038
E07030
607030
60F030
60D870
70D860
30D860
319860
318CE0
398CC0
198CC0
1B0CC0
1B0780
1F0780
0F0780
0E0780
0E0300
ENDCHAR
STARTCHAR wdieresis
ENCODING 7813
SWIDTH 819 0
DWIDTH 20 0
BBX 18 17 1 0
BITMAP
033000
033000
000000
000000
C0C0C0
C1C0C0
C1E180
61E180
616180
636380
633300
333300
363300
361E00
1E1E00
1C1E00
1C1C00
ENDCHAR
STARTCHAR uni1E9E
ENCODING 7838
SWIDTH 692 0
DWIDTH 17 0
BBX 13 17 2 0
BITMAP
1FF0
7FF0
6070
E0E0
C180
C300
C600
CFE0
CFF0
C038
C018
C018
C018
C038
C070
CFF0
CFC0
ENDCHAR
STARTCHAR uni1EBC
ENCODING 7868
SWIDTH 603 0
DWIDTH 14 0
BBX 11 22 2 0
BITMAP
0080
3C80
2780
2000
0000
FFE0
FFE0
C000
C000
C000
C000
C000
FFE0
FFE0
C000
C000
C000
C000
C000
C000
FFE0
FFE0
ENDCHAR
STARTCHAR uni1EBD
ENCODING 7869
SWIDTH 561 0
DWIDTH 13 0
BBX 11 18 1 0
BITMAP
00C0
1CC0
3780
2000
0000
1F00
3FC0
70C0
6060
C060
FFE0
FFE0
C000
C000
E060
60E0
3FC0
1F80
ENDCHAR
STARTCHAR Ygrave
ENCODING 7922
SWIDTH 576 0
DWIDTH 14 0
BBX 14 22 0 0
BITMAP
0C00
0600
0600
0300
0000
E01C
6018
7030
3070
1860
1CE0
0CC0
0F80
0780
0300
0300
0300
0300
0300
0300
0300
0300
ENDCHAR
STARTCHAR ygrave
ENCODING 7923
SWIDTH 537 0
DWIDTH 13 0
BBX 11 22 1 -4
BITMAP
1800
1800
0C00
0400
0000
C060
C060
E0E0
60C0
60C0
7180
3180
3180
1B00
1B00
1B00
0E00
0E00
0600
0C00
7C00
7000
ENDCHAR
STARTCHAR uni1EF8
ENCODING 7928
SWIDTH 576 0
DWIDTH 14 0
BBX 14 22 0 0
BITMAP
0060
0E60
1BC0
1000
0000
E01C
6018
7030
3070
1860
1CE0
0CC0
0F80
0780
0300
0300
0300
0300
0300
0300
0300
0300
ENDCHAR
STARTCHAR uni1EF9
ENCODING 7929
SWIDTH 537 0
DWIDTH 13 0
BBX 11 22 1 -4
BITMAP
0080
3C80
2780
2000
0000
C060
C060
E0E0
60C0
60C0
7180
3180
3180
1B00
1B00
1B00
0E00
0E00
0600
0C00
7C00
7000
ENDCHAR
STARTCHAR endash
ENCODING 8211
SWIDTH 591 0
DWIDTH 14 0
BBX 12 2 1 6
BITMAP
FFF0
FFF0
ENDCHAR
STARTCHAR emdash
ENCODING 8212
SWIDTH 907 0
DWIDTH 22 0
BBX 20 2 1 6
BITMAP
FFFFF0
FFFFF0
ENDCHAR
STARTCHAR quoteleft
ENCODING 8216
SWIDTH 203 0
DWIDTH 5 0
BBX 3 6 1 11
BITMAP
60
40
C0
E0
E0
E0
ENDCHAR
STARTCHAR quoteright
ENCODING 8217
SWIDTH 203 0
DWIDTH 5 0
BBX 3 7 1 10
BITMAP
E0
E0
E0
60
40
40
80
ENDCHAR
STARTCHAR quotesinglbase
ENCODING 8218
SWIDTH 201 0
DWIDTH 5 0
BBX 3 7 1 -4
BITMAP
E0
E0
E0
40
40
C0
80
ENDCHAR
STARTCHAR quotedblleft
ENCODING 8220
SWIDTH 368 0
DWIDTH 9 0
BBX 7 6 1 11
BITMAP
66
44
CC
EE
EE
EE
ENDCHAR
STARTCHAR quotedblright
ENCODING 8221
SWIDTH 368 0
DWIDTH 9 0
BBX 7 7 1 10
BITMAP
EE
EE
EE
64
44
4C
88
ENDCHAR
STARTCHAR quotedblbase
ENCODING 8222
SWIDTH 366 0
DWIDTH 9 0
BBX 7 7 1 -4
BITMAP
EE
EE
EE
44
44
CC
88
ENDCHAR
STARTCHAR dagger
ENCODING 8224
SWIDTH 584 0
DWIDTH 14 0
BBX 10 17 2 0
BITMAP
0C00
0C00
0C00
0C00
FFC0
FFC0
0C00
0C00
0C00
0C00
0C00
0C00
0C00
0C00
0C00
0C00
0C00
ENDCHAR
STARTCHAR daggerdbl
ENCODING 8225
SWIDTH 584 0
DWIDTH 14 0
BBX 10 17 2 0
BITMAP
0C00
0C00
0C00
0C00
FFC0
FFC0
0C00
0C00
0C00
0C00
0C00
FFC0
FFC0
0C00
0C00
0C00
0C00
ENDCHAR
STARTCHAR bullet
ENCODING 8226
SWIDTH 312 0
DWIDTH 7 0
BBX 5 5 1 5
BITMAP
70
F8
F8
F8
78
ENDCHAR
STARTCHAR ellipsis
ENCODING 8230
SWIDTH 571 0
DWIDTH 14 0
BBX 12 3 1 0
BITMAP
EE70
EE70
EE70
ENDCHAR
STARTCHAR perthousand
ENCODING 8240
SWIDTH 1170 0
DWIDTH 28 0
BBX 26 17 1 0
BITMAP
7C060000
660C0000
C60C0000
C2180000
C2300000
C6300000
66600000
7CC00000
00C00000
019F0F80
033B9980
033198C0
063190C0
0C3190C0
183198C0
183B9980
301F0F80
ENDCHAR
STARTCHAR minute
ENCODING 8242
SWIDTH 211 0
DWIDTH 5 0
BBX 3 5 1 12
BITMAP
60
60
60
C0
C0
ENDCHAR
STARTCHAR second
ENCODING 8243
SWIDTH 333 0
DWIDTH 8 0
BBX 6 5 1 12
BITMAP
6C
6C
78
D8
D8
ENDCHAR
STARTCHAR guilsinglleft
ENCODING 8249
SWIDTH 331 0
DWIDTH 8 0
BBX 6 9 1 2
BITMAP
1C
30
60
E0
C0
E0
70
30
1C
ENDCHAR
STARTCHAR guilsinglright
ENCODING 8250
SWIDTH 331 0
DWIDTH 8 0
BBX 6 9 1 2
BITMAP
E0
30
18
1C
0C
1C
38
70
E0
ENDCHAR
STARTCHAR fraction
ENCODING 8260
SWIDTH 170 0
DWIDTH 4 0
BBX 14 17 -5 0
BITMAP
000C
0018
0030
0060
0060
00C0
0180
0180
0300
0600
0600
0C00
1800
1800
3000
6000
C000
ENDCHAR
STARTCHAR uni2070
ENCODING 8304
SWIDTH 392 0
DWIDTH 9 0
BBX 7 9 1 8
BITMAP
3C
66
CE
CA
DA
F2
E2
66
7C
ENDCHAR
STARTCHAR uni2074
ENCODING 8308
SWIDTH 330 0
DWIDTH 8 0
BBX 7 9 0 8
BITMAP
0C
1C
14
34
64
C4
FE
04
04
ENDCHAR
STARTCHAR uni2075
ENCODING 8309
SWIDTH 345 0
DWIDTH 8 0
BBX 7 9 1 8
BITMAP
7C
40
C0
F8
EC
04
06
C4
7C
ENDCHAR
STARTCHAR uni2076
ENCODING 8310
SWIDTH 370 0
DWIDTH 9 0
BBX 7 9 1 8
BITMAP
3C
66
C0
FC
CE
C6
C6
C6
7C
ENDCHAR
STARTCHAR uni2077
ENCODING 8311
SWIDTH 300 0
DWIDTH 7 0
BBX 7 9 0 8
BITMAP
FE
04
0C
08
18
10
30
30
30
ENDCHAR
STARTCHAR uni2078
ENCODING 8312
SWIDTH 350 0
DWIDTH 8 0
BBX 7 9 1 8
BITMAP
7C
CC
C4
7C
78
C4
86
C6
FC
ENDCHAR
STARTCHAR uni2079
ENCODING 8313
SWIDTH 370 0
DWIDTH 9 0
BBX 7 9 1 8
BITMAP
7C
C4
C6
C6
C6
7E
06
C4
7C
ENDCHAR
STARTCHAR uni2080
ENCODING 8320
SWIDTH 392 0
DWIDTH 9 0
BBX 7 9 1 -2
BITMAP
3C
66
CE
CA
DA
F2
E2
66
7C
ENDCHAR
STARTCHAR uni2081
ENCODING 8321
SWIDTH 242 0
DWIDTH 6 0
BBX 4 9 0 -2
BITMAP
10
10
F0
10
10
10
10
10
10
ENDCHAR
STARTCHAR uni2082
ENCODING 8322
SWIDTH 348 0
DWIDTH 8 0
BBX 6 9 1 -2
BITMAP
7C
CC
C4
04
1C
70
C0
C0
FC
ENDCHAR
STARTCHAR uni2083
ENCODING 8323
SWIDTH 332 0
DWIDTH 8 0
BBX 7 9 0 -2
BITMAP
3C
66
06
0C
1C
06
82
46
7C
ENDCHAR
STARTCHAR uni2084
ENCODING 8324
SWIDTH 330 0
DWIDTH 8 0
BBX 7 9 0 -2
BITMAP
0C
1C
14
34
64
C4
FE
04
04
ENDCHAR
STARTCHAR uni2085
ENCODING 8325
SWIDTH 345 0
DWIDTH 8 0
BBX 7 9 1 -2
BITMAP
7C
40
C0
F8
EC
04
06
C4
7C
ENDCHAR
STARTCHAR uni2086
ENCODING 8326
SWIDTH 370 0
DWIDTH 9 0
BBX 7 9 1 -2
BITMAP
3C
66
C0
FC
CE
C6
C6
C6
7C
ENDCHAR
STARTCHAR uni2087
ENCODING 8327
SWIDTH 300 0
DWIDTH 7 0
BBX 7 9 0 -2
BITMAP
FE
04
0C
08
18
10
30
30
30
ENDCHAR
STARTCHAR uni2088
ENCODING 8328
SWIDTH 350 0
DWIDTH 8 0
BBX 7 9 1 -2
BITMAP
7C
CC
C4
7C
78
C4
86
C6
FC
ENDCHAR
STARTCHAR uni2089
ENCODING 8329
SWIDTH 370 0
DWIDTH 9 0
BBX 7 10 1 -3
BITMAP
78
EC
C6
C6
C6
7E
06
C4
7C
30
ENDCHAR
STARTCHAR uni20AA
ENCODING 8362
SWIDTH 773 0
DWIDTH 19 0
BBX 14 17 2 0
BITMAP
FF8C
FFCC
C0CC
C0CC
CCCC
CCCC
CCCC
CCCC
CCCC
CCCC
CCCC
CCCC
CCCC
CC0C
CC0C
CFFC
CFF8
ENDCHAR
STARTCHAR Euro
ENCODING 8364
SWIDTH 727 0
DWIDTH 17 0
BBX 15 17 1 0
BITMAP
03F0
07FC
0E0C
1C06
1806
1800
FFC0
FFC0
3800
3800
FFC0
1804
1806
1C0E
0E0C
07FC
03F8
ENDCHAR
STARTCHAR uni20B4
ENCODING 8372
SWIDTH 665 0
DWIDTH 16 0
BBX 14 17 1 0
BITMAP
0FE0
1FF0
3830
7038
0038
0030
FFFC
FFFC
0000
0000
FFFC
3000
7000
7038
3070
3FF0
1FC0
ENDCHAR
STARTCHAR uni20B9
ENCODING 8377
SWIDTH 680 0
DWIDTH 16 0
BBX 13 17 2 0
BITMAP
FFF8
FFF8
01C0
00E0
FFF8
FFF8
00E0
00C0
FFC0
FF80
E000
7000
3800
0C00
0700
0380
01C0
ENDCHAR
STARTCHAR uni20BD
ENCODING 8381
SWIDTH 714 0
DWIDTH 17 0
BBX 15 17 1 0
BITMAP
1FF0
1FF8
181C
180E
1806
1806
180E
180C
1FFC
1FF8
1800
1800
FF80
FF80
1800
1800
1800
ENDCHAR
STARTCHAR uni2107
ENCODING 8455
SWIDTH 592 0
DWIDTH 14 0
BBX 12 17 1 0
BITMAP
1FC0
7FF0
6060
6020
6000
6000
7000
1E00
3E00
7000
E000
C000
C000
C020
E070
7FF0
3FC0
ENDCHAR
STARTCHAR uni2116
ENCODING 8470
SWIDTH 1154 0
DWIDTH 28 0
BBX 23 17 2 0
BITMAP
E00C00
F00C00
F80C00
D80C00
DC0C00
CC0C7C
C60CC6
C60DC6
C30D86
C38D86
C18CC6
C1CCFE
C0CC7C
C06C00
C06C00
C03CFE
C03CFE
ENDCHAR
STARTCHAR uni2117
ENCODING 8471
SWIDTH 635 0
DWIDTH 15 0
BBX 13 13 1 4
BITMAP
1FC0
3060
6030
4F98
CCC8
8CC8
8F88
CC08
CC18
6C10
3030
1FC0
0700
ENDCHAR
STARTCHAR trademark
ENCODING 8482
SWIDTH 894 0
DWIDTH 21 0
BBX 17 8 2 9
BITMAP
FEC180
10E180
10E380
10E280
10F280
10D680
10DC80
10DC80
ENDCHAR
STARTCHAR uni2153
ENCODING 8531
SWIDTH 784 0
DWIDTH 19 0
BBX 18 17 0 0
BITMAP
100700
100600
F00C00
101800
101800
103000
106000
104000
10CF80
018CC0
0310C0
030180
060380
0C00C0
0C0040
1818C0
300F80
ENDCHAR
STARTCHAR uni2154
ENCODING 8532
SWIDTH 850 0
DWIDTH 20 0
BBX 19 17 1 0
BITMAP
7C0300
CC0600
C40400
040C00
1C1800
703000
C03000
C06000
FCC780
00CCC0
018040
0300C0
030180
060040
0C0060
0C0C60
180FC0
ENDCHAR
STARTCHAR uni2155
ENCODING 8533
SWIDTH 797 0
DWIDTH 19 0
BBX 18 17 0 0
BITMAP
100700
100600
F00C00
101800
101800
103000
106000
104000
10C7C0
018C00
030C00
030F80
060EC0
0C0040
0C0040
180CC0
300FC0
ENDCHAR
STARTCHAR oneeighth
ENCODING 8539
SWIDTH 802 0
DWIDTH 19 0
BBX 19 17 0 0
BITMAP
100700
100600
F00C00
101800
101800
103000
106000
104000
10C780
018CC0
030CC0
030FC0
060780
0C0CC0
0C0860
180840
300FC0
ENDCHAR
STARTCHAR threeeighths
ENCODING 8540
SWIDTH 852 0
DWIDTH 20 0
BBX 20 17 0 0
BITMAP
3C0180
660300
060600
0C0C00
1C0C00
061800
823000
463000
7C63E0
00C660
00C620
018360
0303C0
030620
060430
0C0630
1807E0
ENDCHAR
STARTCHAR fiveeighths
ENCODING 8541
SWIDTH 865 0
DWIDTH 21 0
BBX 19 17 1 0
BITMAP
7C0300
400600
C00C00
F80C00
EC1800
043000
063000
C46000
7CC7C0
00C440
018460
0306C0
0307C0
060C60
0C0C60
080C60
3807C0
ENDCHAR
STARTCHAR seveneighths
ENCODING 8542
SWIDTH 790 0
DWIDTH 19 0
BBX 18 17 0 0
BITMAP
FE0600
040C00
0C0C00
081800
183000
103000
306000
30C000
308F80
018CC0
0308C0
060D80
060780
0C08C0
181840
1818C0
300FC0
ENDCHAR
STARTCHAR arrowleft
ENCODING 8592
SWIDTH 800 0
DWIDTH 19 0
BBX 17 15 1 1
BITMAP
01C000
038000
070000
0E0000
1C0000
380000
7FFF80
FFFF80
700000
380000
1C0000
0E0000
070000
038000
01C000
ENDCHAR
STARTCHAR arrowup
ENCODING 8593
SWIDTH 712 0
DWIDTH 17 0
BBX 15 17 1 0
BITMAP
0100
0380
07C0
0FE0
1DF0
39B8
719C
E18E
C186
8182
0180
0180
0180
0180
0180
0180
0180
ENDCHAR
STARTCHAR arrowright
ENCODING 8594
SWIDTH 800 0
DWIDTH 19 0
BBX 17 15 1 1
BITMAP
01C000
006000
003000
001800
000C00
000600
FFFF00
FFFF80
000700
000E00
001C00
003800
007000
00E000
01C000
ENDCHAR
STARTCHAR arrowdown
ENCODING 8595
SWIDTH 712 0
DWIDTH 17 0
BBX 15 17 1 0
BITMAP
0180
0180
0180
0180
0180
0180
0180
8182
C186
E18E
719C
39B8
1DF0
0FE0
07C0
0380
0100
ENDCHAR
STARTCHAR arrowboth
ENCODING 8596
SWIDTH 1036 0
DWIDTH 25 0
BBX 23 15 1 1
BITMAP
01C700
038380
0701C0
0E00E0
1C0070
380038
7FFFFC
FFFFFE
70001C
380038
1C0070
0E00E0
0701C0
038380
01C700
ENDCHAR
STARTCHAR arrowupdn
ENCODING 8597
SWIDTH 712 0
DWIDTH 17 0
BBX 15 23 1 -4
BITMAP
0100
0380
07C0
0FE0
1DF0
39B8
719C
E18E
C186
8182
0180
0180
0180
8182
C186
E18E
719C
39B8
1DF0
0FE0
07C0
0380
0100
ENDCHAR
STARTCHAR uni2196
ENCODING 8598
SWIDTH 621 0
DWIDTH 15 0
BBX 13 13 1 4
BITMAP
FFE0
FFF8
F000
F800
DC00
CE00
C700
C380
C1C0
C0E0
C070
4038
0010
ENDCHAR
STARTCHAR uni2197
ENCODING 8599
SWIDTH 621 0
DWIDTH 15 0
BBX 13 13 1 4
BITMAP
3FF8
FFF8
0078
00F8
01D8
0398
0718
0E18
1C18
3818
7018
E010
4000
ENDCHAR
STARTCHAR uni2198
ENCODING 8600
SWIDTH 622 0
DWIDTH 15 0
BBX 13 13 1 0
BITMAP
4020
E010
7018
3818
1C18
0E18
0718
0398
01D8
00F8
0078
FFF8
3FF8
ENDCHAR
STARTCHAR uni2199
ENCODING 8601
SWIDTH 622 0
DWIDTH 15 0
BBX 13 13 1 0
BITMAP
4010
4038
C070
C0E0
C1C0
C380
C700
CE00
DC00
F800
F000
FFF8
FFE0
ENDCHAR
STARTCHAR uni219D
ENCODING 8605
SWIDTH 651 0
DWIDTH 16 0
BBX 14 7 1 4
BITMAP
3808
7C38
E6F8
C638
0668
03E4
0180
ENDCHAR
STARTCHAR uni21A9
ENCODING 8617
SWIDTH 655 0
DWIDTH 16 0
BBX 14 13 1 3
BITMAP
7FE0
7FF0
0038
0018
000C
0E0C
1818
3018
7FF0
FFE0
7000
3800
1E00
ENDCHAR
STARTCHAR uni21AA
ENCODING 8618
SWIDTH 655 0
DWIDTH 16 0
BBX 14 13 1 3
BITMAP
1FF0
3FF0
6000
C000
C000
C1C0
C0E0
6070
7FF8
1FFC
0030
0060
01C0
ENDCHAR
STARTCHAR uni21B0
ENCODING 8624
SWIDTH 662 0
DWIDTH 16 0
BBX 14 15 1 0
BITMAP
0800
1800
3800
7FFC
FFFC
380C
180C
080C
000C
000C
000C
000C
000C
000C
000C
ENDCHAR
STARTCHAR uni21B1
ENCODING 8625
SWIDTH 662 0
DWIDTH 16 0
BBX 14 15 1 0
BITMAP
0040
0040
0070
FFF8
FFFC
C070
C060
C040
C000
C000
C000
C000
C000
C000
C000
ENDCHAR
STARTCHAR uni21B3
ENCODING 8627
SWIDTH 662 0
DWIDTH 16 0
BBX 14 15 1 2
BITMAP
C000
C000
C000
C000
C000
C000
C000
C040
C060
C070
FFFC
FFF8
0070
0040
0040
ENDCHAR
STARTCHAR uni21B4
ENCODING 8628
SWIDTH 667 0
DWIDTH 16 0
BBX 14 17 1 0
BITMAP
FFE0
FFE0
0060
0060
0060
0060
0060
0060
0060
0060
0060
0060
03FC
01F8
00F0
0060
0020
ENDCHAR
STARTCHAR carriagereturn
ENCODING 8629
SWIDTH 662 0
DWIDTH 16 0
BBX 14 15 1 2
BITMAP
000C
000C
000C
000C
000C
000C
000C
080C
180C
780C
FFFC
7FFC
3800
0800
0800
ENDCHAR
STARTCHAR uni21E4
ENCODING 8676
SWIDTH 671 0
DWIDTH 16 0
BBX 14 9 1 4
BITMAP
C000
C200
C600
CE00
DFFC
CE00
C600
C200
C000
ENDCHAR
STARTCHAR uni21E5
ENCODING 8677
SWIDTH 671 0
DWIDTH 16 0
BBX 14 9 1 4
BITMAP
000C
010C
018C
01CC
FFEC
01CC
018C
010C
000C
ENDCHAR
STARTCHAR uni21E7
ENCODING 8679
SWIDTH 796 0
DWIDTH 19 0
BBX 19 17 0 0
BITMAP
004000
00E000
01B000
031800
060C00
0C0600
180300
3E0F80
FE0FE0
020C00
020C00
020C00
020C00
020C00
020C00
03FC00
03FC00
ENDCHAR
STARTCHAR partialdiff
ENCODING 8706
SWIDTH 526 0
DWIDTH 13 0
BBX 11 17 1 0
BITMAP
3800
7E00
0700
0380
0180
00C0
1FC0
7FC0
60C0
C0E0
C060
C060
C0C0
C0C0
60C0
7F80
3F00
ENDCHAR
STARTCHAR uni2206
ENCODING 8710
SWIDTH 649 0
DWIDTH 16 0
BBX 15 17 0 0
BITMAP
0380
03C0
06C0
0660
0660
0C60
0C30
1C30
1830
1818
3018
300C
300C
600C
6006
FFFE
FFFE
ENDCHAR
STARTCHAR product
ENCODING 8719
SWIDTH 590 0
DWIDTH 14 0
BBX 14 21 0 -4
BITMAP
FFFC
FFFC
1860
1860
1860
1860
1860
1860
1860
1860
1860
1860
1860
1860
1860
1860
1860
1860
1860
1860
1860
ENDCHAR
STARTCHAR summation
ENCODING 8721
SWIDTH 532 0
DWIDTH 13 0
BBX 11 17 1 0
BITMAP
FFE0
FFE0
C000
6000
7000
3000
1800
1C00
0C00
1C00
1800
3000
7000
6000
C000
FFE0
FFE0
ENDCHAR
STARTCHAR minus
ENCODING 8722
SWIDTH 520 0
DWIDTH 12 0
BBX 11 2 1 6
BITMAP
FFE0
FFE0
ENDCHAR
STARTCHAR radical
ENCODING 8730
SWIDTH 660 0
DWIDTH 16 0
BBX 14 21 1 -4
BITMAP
01FC
01FC
0180
0180
0180
0300
0300
0300
0300
C200
C600
C600
C600
6600
6C00
6C00
2C00
3C00
3C00
3800
1800
ENDCHAR
STARTCHAR infinity
ENCODING 8734
SWIDTH 827 0
DWIDTH 20 0
BBX 18 9 1 2
BITMAP
1C0E00
7E3F80
E37180
C1E0C0
C0C0C0
C1E0C0
E37180
7E3F80
1C0E00
ENDCHAR
STARTCHAR integral
ENCODING 8747
SWIDTH 378 0
DWIDTH 9 0
BBX 9 21 0 -4
BITMAP
0380
0780
0C00
0C00
0C00
0C00
0C00
0C00
0C00
0C00
0C00
1800
1800
1800
1800
1800
1800
1800
3000
F000
C000
ENDCHAR
STARTCHAR approxequal
ENCODING 8776
SWIDTH 523 0
DWIDTH 13 0
BBX 11 10 1 3
BITMAP
7860
FCC0
C7C0
C780
0000
0000
7860
FCC0
C7C0
C780
ENDCHAR
STARTCHAR notequal
ENCODING 8800
SWIDTH 540 0
DWIDTH 13 0
BBX 11 12 1 1
BITMAP
0300
0300
FFE0
FFE0
0600
0400
0C00
FFE0
FFE0
0800
1800
1800
ENDCHAR
STARTCHAR lessequal
ENCODING 8804
SWIDTH 544 0
DWIDTH 13 0
BBX 11 13 1 0
BITMAP
0060
03E0
0F80
7C00
E000
E000
FC00
1F80
03E0
0060
0000
FFE0
FFE0
ENDCHAR
STARTCHAR greaterequal
ENCODING 8805
SWIDTH 544 0
DWIDTH 13 0
BBX 11 13 1 0
BITMAP
C000
F800
3E00
07C0
00E0
00E0
07E0
3F00
F800
C000
0000
FFE0
FFE0
ENDCHAR
STARTCHAR uni23CE
ENCODING 9166
SWIDTH 848 0
DWIDTH 20 0
BBX 18 19 1 -2
BITMAP
001FC0
009FC0
0198C0
0398C0
0798C0
0F98C0
1DF8C0
39F8C0
7000C0
E000C0
6000C0
31FFC0
19FFC0
0D8000
078000
038000
018000
008000
008000
ENDCHAR
STARTCHAR uni240B
ENCODING 9227
SWIDTH 600 0
DWIDTH 14 0
BBX 12 13 1 2
BITMAP
C400
4400
4C00
6800
2800
3BF0
33F0
1040
0040
0040
0040
0040
0040
ENDCHAR
STARTCHAR uni240C
ENCODING 9228
SWIDTH 600 0
DWIDTH 14 0
BBX 11 13 2 2
BITMAP
F800
8000
8000
F800
F800
83E0
83E0
8200
0200
03E0
0200
0200
0200
ENDCHAR
STARTCHAR uni2460
ENCODING 9312
SWIDTH 828 0
DWIDTH 20 0
BBX 18 17 1 0
BITMAP
07F800
1E3C00
380600
300300
604180
40C180
C3C0C0
C040C0
C040C0
C040C0
C040C0
604180
604180
300300
380600
0FFC00
07F800
ENDCHAR
STARTCHAR uni2461
ENCODING 9313
SWIDTH 828 0
DWIDTH 20 0
BBX 18 17 1 0
BITMAP
07F800
1E3C00
380600
300300
61E180
433180
C210C0
C030C0
C060C0
C1C0C0
C300C0
630180
63F180
300300
380600
0FFC00
07F800
ENDCHAR
STARTCHAR uni2462
ENCODING 9314
SWIDTH 828 0
DWIDTH 20 0
BBX 18 17 1 0
BITMAP
07F800
1E3C00
380600
300300
61E180
433180
C030C0
C030C0
C0E0C0
C030C0
C010C0
623180
63F180
300300
380600
0FFC00
07F800
ENDCHAR
STARTCHAR uni2463
ENCODING 9315
SWIDTH 828 0
DWIDTH 20 0
BBX 18 17 1 0
BITMAP
07F800
1E3C00
380600
300300
606180
40E180
C1E0C0
C160C0
C360C0
C660C0
C7F0C0
606180
606180
300300
380600
0FFC00
07F800
ENDCHAR
STARTCHAR uni2464
ENCODING 9316
SWIDTH 828 0
DWIDTH 20 0
BBX 18 17 1 0
BITMAP
07F800
1E3C00
380600
300300
63F180
430180
C300C0
C3E0C0
C3B0C0
C010C0
C010C0
633180
63E180
300300
380600
0FFC00
07F800
ENDCHAR
STARTCHAR uni2465
ENCODING 9317
SWIDTH 828 0
DWIDTH 20 0
BBX 18 17 1 0
BITMAP
07F800
1E3C00
380600
300300
61F180
433180
C200C0
C3E0C0
C730C0
C610C0
C210C0
633180
61F180
300300
380600
0FFC00
07F800
ENDCHAR
STARTCHAR uni2466
ENCODING 9318
SWIDTH 828 0
DWIDTH 20 0
BBX 18 17 1 0
BITMAP
07F800
1E3C00
380600
300300
63F180
403180
C060C0
C060C0
C0C0C0
C0C0C0
C080C0
608180
608180
300300
380600
0FFC00
07F800
ENDCHAR
STARTCHAR uni2467
ENCODING 9319
SWIDTH 828 0
DWIDTH 20 0
BBX 18 17 1 0
BITMAP
07F800
1E3C00
380600
300300
61E180
433180
C330C0
C3F0C0
C1E0C0
C330C0
C610C0
621180
63F180
300300
380600
0FFC00
07F800
ENDCHAR
STARTCHAR uni2468
ENCODING 9320
SWIDTH 828 0
DWIDTH 20 0
BBX 18 17 1 0
BITMAP
07F800
1E3C00
380600
300300
61E180
433180
C218C0
C218C0
C338C0
C1F8C0
C010C0
633180
63E180
300300
380600
0FFC00
07F800
ENDCHAR
STARTCHAR uni24EA
ENCODING 9450
SWIDTH 828 0
DWIDTH 20 0
BBX 18 17 1 0
BITMAP
07F800
1E3C00
380600
300300
61E180
433180
C270C0
C658C0
C6D8C0
C698C0
C798C0
633180
61E180
300300
380600
0FFC00
07F800
ENDCHAR
STARTCHAR uni24FF
ENCODING 9471
SWIDTH 826 0
DWIDTH 20 0
BBX 18 17 1 0
BITMAP
07F800
1FFC00
3FFE00
3FFF00
7E1F80
7CCF80
FD8FC0
F9A7C0
F927C0
F967C0
F8EFC0
7CCF80
7E1F80
3FFF00
3FFE00
0FFC00
07F800
ENDCHAR
STARTCHAR triagup
ENCODING 9650
SWIDTH 859 0
DWIDTH 21 0
BBX 20 17 0 0
BITMAP
002000
006000
007000
00F000
00F800
01FC00
01FC00
03FE00
07FE00
07FF00
0FFF00
0FFF80
1FFFC0
3FFFC0
3FFFE0
7FFFE0
FFFFF0
ENDCHAR
STARTCHAR uni25B3
ENCODING 9651
SWIDTH 859 0
DWIDTH 21 0
BBX 20 17 0 0
BITMAP
002000
006000
007000
00F000
00D800
019C00
018C00
030E00
070600
060300
0C0300
0C0180
1801C0
3800C0
300060
7FFFE0
FFFFF0
ENDCHAR
STARTCHAR uni25B6
ENCODING 9654
SWIDTH 822 0
DWIDTH 20 0
BBX 17 17 2 0
BITMAP
800000
E00000
F80000
FE0000
FF8000
FFE000
FFF800
FFFE00
FFFF80
FFFE00
FFF800
FFE000
FF8000
FE0000
F80000
E00000
800000
ENDCHAR
STARTCHAR uni25B7
ENCODING 9655
SWIDTH 822 0
DWIDTH 20 0
BBX 17 17 2 0
BITMAP
800000
E00000
F80000
DE0000
C78000
C1E000
C07800
C01E00
C00780
C01E00
C07800
C1E000
C78000
DE0000
F80000
E00000
800000
ENDCHAR
STARTCHAR triagdn
ENCODING 9660
SWIDTH 807 0
DWIDTH 19 0
BBX 20 17 0 0
BITMAP
FFFFF0
7FFFE0
7FFFC0
3FFF80
3FFF80
1FFF00
0FFF00
0FFE00
07FE00
07FC00
03F800
03F800
01F000
00F000
00E000
006000
004000
ENDCHAR
STARTCHAR uni25BD
ENCODING 9661
SWIDTH 807 0
DWIDTH 19 0
BBX 20 17 0 0
BITMAP
FFFFF0
7FFFE0
7000C0
300180
380180
180300
0C0300
0C0600
060E00
070C00
031800
039800
01B000
00F000
00E000
006000
004000
ENDCHAR
STARTCHAR uni25C0
ENCODING 9664
SWIDTH 823 0
DWIDTH 20 0
BBX 18 17 0 0
BITMAP
0000C0
0003C0
000FC0
003FC0
00FFC0
03FFC0
0FFFC0
3FFFC0
FFFFC0
1FFFC0
07FFC0
01FFC0
007FC0
001FC0
0007C0
0003C0
0000C0
ENDCHAR
STARTCHAR uni25C1
ENCODING 9665
SWIDTH 823 0
DWIDTH 20 0
BBX 18 17 0 0
BITMAP
0000C0
0003C0
000FC0
003EC0
00F8C0
03E0C0
0F80C0
3E00C0
F800C0
1E00C0
0780C0
01E0C0
0078C0
001EC0
0007C0
0003C0
0000C0
ENDCHAR
STARTCHAR lozenge
ENCODING 9674
SWIDTH 531 0
DWIDTH 13 0
BBX 11 15 1 0
BITMAP
0E00
1B00
1B00
3180
3180
60C0
E0C0
C0E0
60C0
61C0
3180
3300
1B00
1E00
0E00
ENDCHAR
STARTCHAR circle
ENCODING 9675
SWIDTH 844 0
DWIDTH 20 0
BBX 18 17 1 0
BITMAP
07F800
1E1E00
380700
700380
600180
4000C0
C000C0
C000C0
C000C0
C000C0
C000C0
4000C0
600180
300380
380700
0F3E00
07F800
ENDCHAR
STARTCHAR uni25CC
ENCODING 9676
SWIDTH 844 0
DWIDTH 20 0
BBX 18 18 1 0
BITMAP
019000
0CB400
040600
200200
300080
000180
C00000
C000C0
0000C0
C00000
C00080
0000C0
600000
600180
080300
180C00
0B6C00
036000
ENDCHAR
STARTCHAR uni25CF
ENCODING 9679
SWIDTH 844 0
DWIDTH 20 0
BBX 18 17 1 0
BITMAP
07F800
1FFE00
3FFF00
7FFF80
7FFF80
7FFFC0
FFFFC0
FFFFC0
FFFFC0
FFFFC0
FFFFC0
7FFFC0
7FFF80
3FFF80
3FFF00
0FFE00
07F800
ENDCHAR
STARTCHAR uni2639
ENCODING 9785
SWIDTH 828 0
DWIDTH 20 0
BBX 18 17 1 0
BITMAP
07F800
1E3C00
380600
300300
600180
473980
C310C0
C000C0
C1E0C0
C3F0C0
C618C0
6C0D80
600180
300300
380600
0FFC00
07F800
ENDCHAR
STARTCHAR smileface
ENCODING 9786
SWIDTH 828 0
DWIDTH 20 0
BBX 18 17 1 0
BITMAP
07F800
1E3C00
380600
300300
600180
473980
C310C0
C000C0
C000C0
CC0CC0
C61CC0
67F980
61E180
300300
380600
0FFC00
07F800
ENDCHAR
STARTCHAR uni2776
ENCODING 10102
SWIDTH 826 0
DWIDTH 20 0
BBX 18 17 1 0
BITMAP
07F800
1FFC00
3FFE00
3FFF00
7FBF80
7F3F80
FC3FC0
FFBFC0
FFBFC0
FFBFC0
FFBFC0
7FBF80
7FBF80
3FFF00
3FFE00
0FFC00
07F800
ENDCHAR
STARTCHAR uni2777
ENCODING 10103
SWIDTH 826 0
DWIDTH 20 0
BBX 18 17 1 0
BITMAP
07F800
1FFC00
3FFE00
3FFF00
7E1F80
7CCF80
FDEFC0
FFCFC0
FF9FC0
FE3FC0
FCFFC0
7CFF80
7C0F80
3FFF00
3FFE00
0FFC00
07F800
ENDCHAR
STARTCHAR uni2778
ENCODING 10104
SWIDTH 826 0
DWIDTH 20 0
BBX 18 17 1 0
BITMAP
07F800
1FFC00
3FFE00
3FFF00
7E1F80
7CCF80
FFCFC0
FF8FC0
FF3FC0
FFCFC0
FFEFC0
7CCF80
7C0F80
3FFF00
3FFE00
0FFC00
07F800
ENDCHAR
STARTCHAR uni2779
ENCODING 10105
SWIDTH 826 0
DWIDTH 20 0
BBX 18 17 1 0
BITMAP
07F800
1FFC00
3FFE00
3FFF00
7F9F80
7F1F80
FE5FC0
FE9FC0
FD9FC0
F99FC0
F80FC0
7F9F80
7F9F80
3FFF00
3FFE00
0FFC00
07F800
ENDCHAR
STARTCHAR uni277A
ENCODING 10106
SWIDTH 826 0
DWIDTH 20 0
BBX 18 17 1 0
BITMAP
07F800
1FFC00
3FFE00
3FFF00
7C0F80
7CFF80
FCFFC0
FD1FC0
FCCFC0
FFEFC0
FFEFC0
7CCF80
7C1F80
3FFF00
3FFE00
0FFC00
07F800
ENDCHAR
STARTCHAR uni277B
ENCODING 10107
SWIDTH 826 0
DWIDTH 20 0
BBX 18 17 1 0
BITMAP
07F800
1FFC00
3FFE00
3FFF00
7E0F80
7CEF80
FCFFC0
FD0FC0
FCCFC0
FDE7C0
FDE7C0
7CEF80
7E0F80
3FFF00
3FFE00
0FFC00
07F800
ENDCHAR
STARTCHAR uni277C
ENCODING 10108
SWIDTH 826 0
DWIDTH 20 0
BBX 18 17 1 0
BITMAP
07F800
1FFC00
3FFE00
3FFF00
7C0F80
7FCF80
FFDFC0
FF9FC0
FFBFC0
FF3FC0
FF7FC0
7F7F80
7F7F80
3FFF00
3FFE00
0FFC00
07F800
ENDCHAR
STARTCHAR uni277D
ENCODING 10109
SWIDTH 826 0
DWIDTH 20 0
BBX 18 17 1 0
BITMAP
07F800
1FFC00
3FFE00
3FFF00
7E1F80
7CCF80
FCCFC0
FC4FC0
FE1FC0
FCCFC0
FDEFC0
7DEF80
7C0F80
3FFF00
3FFE00
0FFC00
07F800
ENDCHAR
STARTCHAR uni277E
ENCODING 10110
SWIDTH 826 0
DWIDTH 20 0
BBX 18 17 1 0
BITMAP
07F800
1FFC00
3FFE00
3FFF00
7E1F80
7CCF80
FDEFC0
FDEFC0
FCCFC0
FE2FC0
FFEFC0
7DCF80
7C1F80
3FFF00
3FFE00
0FFC00
07F800
ENDCHAR
STARTCHAR uni3003
ENCODING 12291
SWIDTH 366 0
DWIDTH 9 0
BBX 7 5 1 7
BITMAP
3E
6C
6C
48
D8
ENDCHAR
STARTCHAR uni3008
ENCODING 12296
SWIDTH 352 0
DWIDTH 8 0
BBX 6 23 1 -3
BITMAP
0C
0C
0C
18
18
30
30
30
60
60
C0
C0
C0
60
60
30
30
30
18
18
0C
0C
0C
ENDCHAR
STARTCHAR uni3009
ENCODING 12297
SWIDTH 352 0
DWIDTH 8 0
BBX 6 23 1 -3
BITMAP
C0
40
60
60
30
30
30
18
18
0C
0C
0C
0C
0C
18
18
30
30
30
60
60
40
C0
ENDCHAR
STARTCHAR uni300A
ENCODING 12298
SWIDTH 519 0
DWIDTH 12 0
BBX 10 23 1 -3
BITMAP
0CC0
0CC0
0CC0
1980
1980
3300
3300
3300
6600
6600
CC00
CC00
CC00
6600
6600
3300
3300
3300
1980
1980
0CC0
0CC0
0CC0
ENDCHAR
STARTCHAR uni300B
ENCODING 12299
SWIDTH 519 0
DWIDTH 12 0
BBX 10 23 1 -3
BITMAP
CC00
4400
6600
6600
3300
3300
3300
1980
1980
0CC0
0CC0
0CC0
0CC0
0CC0
1980
1980
3300
3300
3300
6600
6600
4600
CC00
ENDCHAR
STARTCHAR uni300C
ENCODING 12300
SWIDTH 390 0
DWIDTH 9 0
BBX 7 14 1 6
BITMAP
FE
FE
C0
C0
C0
C0
C0
C0
C0
C0
C0
C0
C0
C0
ENDCHAR
STARTCHAR uni300D
ENCODING 12301
SWIDTH 390 0
DWIDTH 9 0
BBX 7 14 1 -2
BITMAP
06
06
06
06
06
06
06
06
06
06
06
06
06
FE
ENDCHAR
STARTCHAR uni300E
ENCODING 12302
SWIDTH 391 0
DWIDTH 9 0
BBX 7 14 1 6
BITMAP
FE
82
82
9E
90
90
90
90
90
90
90
90
90
F0
ENDCHAR
STARTCHAR uni300F
ENCODING 12303
SWIDTH 391 0
DWIDTH 9 0
BBX 7 14 1 -2
BITMAP
1E
12
12
12
12
12
12
12
12
12
12
F2
82
FE
ENDCHAR
STARTCHAR uni3010
ENCODING 12304
SWIDTH 362 0
DWIDTH 9 0
BBX 7 22 1 -2
BITMAP
FE
FC
F8
F8
F8
F0
F0
F0
F0
E0
E0
E0
E0
F0
F0
F0
F0
F8
F8
F8
FC
FE
ENDCHAR
STARTCHAR uni3011
ENCODING 12305
SWIDTH 362 0
DWIDTH 9 0
BBX 7 22 1 -2
BITMAP
FE
7E
7E
3E
3E
1E
1E
1E
1E
1E
1E
1E
1E
1E
1E
1E
3E
3E
3E
7E
7E
FE
ENDCHAR
STARTCHAR uni3014
ENCODING 12308
SWIDTH 391 0
DWIDTH 9 0
BBX 7 24 1 -4
BITMAP
06
0E
1C
30
60
C0
C0
C0
C0
C0
C0
C0
C0
C0
C0
C0
C0
C0
60
30
1C
0E
06
02
ENDCHAR
STARTCHAR uni3015
ENCODING 12309
SWIDTH 391 0
DWIDTH 9 0
BBX 7 24 1 -4
BITMAP
C0
70
38
1C
0E
06
06
06
06
06
06
06
06
06
06
06
06
06
0E
1C
38
70
C0
40
ENDCHAR
STARTCHAR uni3016
ENCODING 12310
SWIDTH 353 0
DWIDTH 8 0
BBX 6 22 1 -2
BITMAP
FC
84
88
88
90
90
90
B0
A0
A0
A0
A0
A0
A0
90
90
90
90
88
88
84
FC
ENDCHAR
STARTCHAR uni3017
ENCODING 12311
SWIDTH 353 0
DWIDTH 8 0
BBX 6 22 1 -2
BITMAP
FC
44
44
24
24
24
14
14
14
14
14
14
14
14
14
14
24
24
24
44
44
FC
ENDCHAR
STARTCHAR uni301C
ENCODING 12316
SWIDTH 849 0
DWIDTH 20 0
BBX 18 4 1 5
BITMAP
3F8040
7FE1C0
E07F80
401F00
ENDCHAR
STARTCHAR uniA78B
ENCODING 42891
SWIDTH 176 0
DWIDTH 4 0
BBX 2 9 1 8
BITMAP
C0
C0
C0
C0
C0
C0
C0
C0
C0
ENDCHAR
STARTCHAR uniA78C
ENCODING 42892
SWIDTH 242 0
DWIDTH 6 0
BBX 2 8 2 9
BITMAP
C0
C0
C0
C0
C0
C0
C0
C0
ENDCHAR
STARTCHAR uniF8FF
ENCODING 63743
SWIDTH 600 0
DWIDTH 14 0
BBX 14 14 0 0
BITMAP
7FF8
FFFC
FFFC
FCFC
FC7C
F87C
F83C
F03C
F01C
E01C
C00C
FFFC
FFFC
7FF8
ENDCHAR
STARTCHAR fi
ENCODING 64257
SWIDTH 623 0
DWIDTH 15 0
BBX 12 17 1 0
BITMAP
1F30
1F30
3000
3000
FE30
FE30
3030
3030
3030
3030
3030
3030
3030
3030
3030
3030
3030
ENDCHAR
STARTCHAR fl
ENCODING 64258
SWIDTH 642 0
DWIDTH 15 0
BBX 14 17 1 0
BITMAP
1F30
1F30
3030
3030
FE30
FE30
3030
3030
3030
3030
3030
3030
3030
3030
3030
303C
301C
ENDCHAR
STARTCHAR .notdef
ENCODING 64260
SWIDTH 600 0
DWIDTH 14 0
BBX 13 17 1 0
BITMAP
FFF8
C018
C028
A048
9048
8888
8908
8608
8208
8708
8908
8888
9048
A048
C028
C018
FFF8
ENDCHAR
STARTCHAR uni004A0301
ENCODING 64261
SWIDTH 597 0
DWIDTH 14 0
BBX 12 21 2 0
BITMAP
0030
0060
0040
0000
00C0
00C0
00C0
00C0
00C0
00C0
00C0
00C0
00C0
00C0
00C0
C0C0
C0C0
C0C0
E1C0
7F80
3F00
ENDCHAR
STARTCHAR uni013B.loclMAH
ENCODING 64262
SWIDTH 580 0
DWIDTH 14 0
BBX 11 23 2 -6
BITMAP
C000
C000
C000
C000
C000
C000
C000
C000
C000
C000
C000
C000
C000
C000
C000
FFE0
FFE0
0000
0E00
0E00
0600
0400
0800
ENDCHAR
STARTCHAR uni0145.loclMAH
ENCODING 64263
SWIDTH 743 0
DWIDTH 18 0
BBX 14 23 2 -6
BITMAP
E00C
F00C
F80C
D80C
DC0C
CC0C
C60C
C60C
C30C
C38C
C18C
C1CC
C0CC
C06C
C06C
C03C
C03C
0000
0300
0300
0100
0200
0600
ENDCHAR
STARTCHAR R.ss04
ENCODING 64264
SWIDTH 678 0
DWIDTH 16 0
BBX 13 17 2 0
BITMAP
FF80
FFE0
C070
C030
C030
C030
C030
C070
FFE0
FFC0
C180
C1C0
C0C0
C0E0
C060
C030
C038
ENDCHAR
STARTCHAR Racute.ss04
ENCODING 64265
SWIDTH 678 0
DWIDTH 16 0
BBX 13 21 2 0
BITMAP
0380
0300
0600
0000
FF80
FFE0
C070
C030
C030
C030
C030
C070
FFE0
FFC0
C180
C1C0
C0C0
C0E0
C060
C030
C038
ENDCHAR
STARTCHAR Rcaron.ss04
ENCODING 64266
SWIDTH 678 0
DWIDTH 16 0
BBX 13 22 2 0
BITMAP
1080
1980
0F00
0600
0000
FF80
FFE0
C070
C030
C030
C030
C030
C070
FFE0
FFC0
C180
C1C0
C0C0
C0E0
C060
C030
C038
ENDCHAR
STARTCHAR uni0156.ss04
ENCODING 64267
SWIDTH 678 0
DWIDTH 16 0
BBX 13 23 2 -6
BITMAP
FF80
FFE0
C070
C030
C030
C030
C030
C070
FFE0
FFC0
C180
C1C0
C0C0
C0E0
C060
C030
C038
0000
0600
0600
0200
0400
0C00
ENDCHAR
STARTCHAR I.ss05
ENCODING 64268
SWIDTH 426 0
DWIDTH 10 0
BBX 8 17 1 0
BITMAP
FF
FF
18
18
18
18
18
18
18
18
18
18
18
18
18
FF
FF
ENDCHAR
STARTCHAR Iacute.ss05
ENCODING 64269
SWIDTH 426 0
DWIDTH 10 0
BBX 8 21 1 0
BITMAP
0E
0C
18
00
FF
FF
18
18
18
18
18
18
18
18
18
18
18
18
18
FF
FF
ENDCHAR
STARTCHAR Icircumflex.ss05
ENCODING 64270
SWIDTH 426 0
DWIDTH 10 0
BBX 8 22 1 0
BITMAP
18
3C
26
62
00
FF
FF
18
18
18
18
18
18
18
18
18
18
18
18
18
FF
FF
ENDCHAR
STARTCHAR Idieresis.ss05
ENCODING 64271
SWIDTH 426 0
DWIDTH 10 0
BBX 8 21 1 0
BITMAP
66
66
00
00
FF
FF
18
18
18
18
18
18
18
18
18
18
18
18
18
FF
FF
ENDCHAR
STARTCHAR Idotaccent.ss05
ENCODING 64272
SWIDTH 426 0
DWIDTH 10 0
BBX 8 21 1 0
BITMAP
18
18
00
00
FF
FF
18
18
18
18
18
18
18
18
18
18
18
18
18
FF
FF
ENDCHAR
STARTCHAR Igrave.ss05
ENCODING 64273
SWIDTH 426 0
DWIDTH 10 0
BBX 8 22 1 0
BITMAP
70
30
18
18
00
FF
FF
18
18
18
18
18
18
18
18
18
18
18
18
18
FF
FF
ENDCHAR
STARTCHAR Imacron.ss05
ENCODING 64274
SWIDTH 426 0
DWIDTH 10 0
BBX 8 21 1 0
BITMAP
7E
7E
00
00
FF
FF
18
18
18
18
18
18
18
18
18
18
18
18
18
FF
FF
ENDCHAR
STARTCHAR Iogonek.ss05
ENCODING 64275
SWIDTH 426 0
DWIDTH 10 0
BBX 9 22 1 -5
BITMAP
FF00
FF00
1800
1800
1800
1800
1800
1800
1800
1800
1800
1800
1800
1800
1800
FF00
FF00
0300
0600
0600
0780
0780
ENDCHAR
STARTCHAR Itilde.ss05
ENCODING 64276
SWIDTH 426 0
DWIDTH 10 0
BBX 8 22 1 0
BITMAP
01
7B
CE
C0
00
FF
FF
18
18
18
18
18
18
18
18
18
18
18
18
18
FF
FF
ENDCHAR
STARTCHAR G.ss06
ENCODING 64277
SWIDTH 690 0
DWIDTH 17 0
BBX 15 17 1 0
BITMAP
0FF0
1FF8
381C
700C
600C
E002
C000
C000
C0FE
C0FE
C006
E004
600C
700C
3818
1FF8
0FE0
ENDCHAR
STARTCHAR Gbreve.ss06
ENCODING 64278
SWIDTH 690 0
DWIDTH 17 0
BBX 15 22 1 0
BITMAP
0C20
0460
07C0
0100
0000
0FF0
1FF8
381C
700C
600C
E002
C000
C000
C0FE
C0FE
C006
E004
600C
700C
3818
1FF8
0FE0
ENDCHAR
STARTCHAR Gcircumflex.ss06
ENCODING 64279
SWIDTH 690 0
DWIDTH 17 0
BBX 15 22 1 0
BITMAP
0180
03C0
0640
0C60
0000
0FF0
1FF8
381C
700C
600C
E002
C000
C000
C0FE
C0FE
C006
E004
600C
700C
3818
1FF8
0FE0
ENDCHAR
STARTCHAR uni0122.ss06
ENCODING 64280
SWIDTH 690 0
DWIDTH 17 0
BBX 15 23 1 -6
BITMAP
0FF0
1FF8
381C
700C
600C
E002
C000
C000
C0FE
C0FE
C006
E004
600C
700C
3818
1FF8
0FE0
0000
0180
0180
0180
0100
0300
ENDCHAR
STARTCHAR Gdotaccent.ss06
ENCODING 64281
SWIDTH 690 0
DWIDTH 17 0
BBX 15 21 1 0
BITMAP
0180
0180
0000
0000
0FF0
1FF8
381C
700C
600C
E002
C000
C000
C0FE
C0FE
C006
E004
600C
700C
3818
1FF8
0FE0
ENDCHAR
STARTCHAR uni1E20.ss06
ENCODING 64282
SWIDTH 690 0
DWIDTH 17 0
BBX 15 21 1 0
BITMAP
07E0
07E0
0000
0000
0FF0
1FF8
381C
700C
600C
E002
C000
C000
C0FE
C0FE
C006
E004
600C
700C
3818
1FF8
0FE0
ENDCHAR
STARTCHAR Adieresis.ss08
ENCODING 64283
SWIDTH 668 0
DWIDTH 16 0
BBX 16 21 0 0
BITMAP
0660
0660
0000
0000
03C0
03C0
03C0
0660
0660
0660
0C30
0C30
0C30
1818
1FF8
3FFC
300C
300C
700E
6006
E007
ENDCHAR
STARTCHAR Cdotaccent.ss08
ENCODING 64284
SWIDTH 703 0
DWIDTH 17 0
BBX 15 21 1 0
BITMAP
0180
0180
0000
0000
0FF0
1FF8
381C
700C
600E
E008
C000
C000
C000
C000
C000
E006
600E
700C
381C
1FF8
0FF0
ENDCHAR
STARTCHAR Edieresis.ss08
ENCODING 64285
SWIDTH 603 0
DWIDTH 14 0
BBX 11 21 2 0
BITMAP
3180
3980
0000
0000
FFE0
FFE0
C000
C000
C000
C000
C000
FFE0
FFE0
C000
C000
C000
C000
C000
C000
FFE0
FFE0
ENDCHAR
STARTCHAR Edotaccent.ss08
ENCODING 64286
SWIDTH 603 0
DWIDTH 14 0
BBX 11 21 2 0
BITMAP
0600
0E00
0000
0000
FFE0
FFE0
C000
C000
C000
C000
C000
FFE0
FFE0
C000
C000
C000
C000
C000
C000
FFE0
FFE0
ENDCHAR
STARTCHAR Gdotaccent.ss08
ENCODING 64287
SWIDTH 700 0
DWIDTH 17 0
BBX 15 21 1 0
BITMAP
0180
0180
0000
0000
0FE0
1FF8
381C
700C
600C
E002
C000
C000
C0FE
C0FE
C006
E006
600E
700E
381E
1FF6
0FE6
ENDCHAR
STARTCHAR Idieresis.ss08
ENCODING 64288
SWIDTH 270 0
DWIDTH 6 0
BBX 7 21 0 0
BITMAP
CC
CE
00
00
30
30
30
30
30
30
30
30
30
30
30
30
30
30
30
30
30
ENDCHAR
STARTCHAR Idotaccent.ss08
ENCODING 64289
SWIDTH 270 0
DWIDTH 6 0
BBX 2 21 2 0
BITMAP
C0
C0
00
00
C0
C0
C0
C0
C0
C0
C0
C0
C0
C0
C0
C0
C0
C0
C0
C0
C0
ENDCHAR
STARTCHAR Odieresis.ss08
ENCODING 64290
SWIDTH 739 0
DWIDTH 18 0
BBX 16 21 1 0
BITMAP
0660
0660
0000
0000
0FF0
1FF8
381C
700E
6006
E006
C007
C007
C007
C007
C007
E006
6006
700E
381C
1FF8
0FF0
ENDCHAR
STARTCHAR Udieresis.ss08
ENCODING 64291
SWIDTH 689 0
DWIDTH 17 0
BBX 13 21 2 0
BITMAP
1980
19C0
0000
0000
C018
C018
C018
C018
C018
C018
C018
C018
C018
C018
C018
C018
C038
C030
6070
7FE0
1FC0
ENDCHAR
STARTCHAR Wdieresis.ss08
ENCODING 64292
SWIDTH 945 0
DWIDTH 23 0
BBX 21 21 1 0
BITMAP
018800
019C00
000000
000000
C07038
E07030
607030
60F030
60D870
70D860
30D860
319860
318CE0
398CC0
198CC0
1B0CC0
1B0780
1F0780
0F0780
0E0780
0E0300
ENDCHAR
STARTCHAR Ydieresis.ss08
ENCODING 64293
SWIDTH 576 0
DWIDTH 14 0
BBX 14 21 0 0
BITMAP
0CC0
0CC0
0000
0000
E01C
6018
7030
3070
1860
1CE0
0CC0
0F80
0780
0300
0300
0300
0300
0300
0300
0300
0300
ENDCHAR
STARTCHAR Zdotaccent.ss08
ENCODING 64294
SWIDTH 544 0
DWIDTH 13 0
BBX 11 21 1 0
BITMAP
0600
0600
0000
0000
FFE0
FFE0
00E0
00C0
0180
0380
0300
0600
0E00
1C00
1800
3800
7000
6000
C000
FFE0
FFE0
ENDCHAR
STARTCHAR Idieresis.ss05.ss08
ENCODING 64295
SWIDTH 426 0
DWIDTH 10 0
BBX 8 21 1 0
BITMAP
66
66
00
00
FF
FF
18
18
18
18
18
18
18
18
18
18
18
18
18
FF
FF
ENDCHAR
STARTCHAR Idotaccent.ss05.ss08
ENCODING 64296
SWIDTH 426 0
DWIDTH 10 0
BBX 8 21 1 0
BITMAP
18
18
00
00
FF
FF
18
18
18
18
18
18
18
18
18
18
18
18
18
FF
FF
ENDCHAR
STARTCHAR Gdotaccent.ss06.ss08
ENCODING 64297
SWIDTH 690 0
DWIDTH 17 0
BBX 15 21 1 0
BITMAP
0180
0180
0000
0000
0FF0
1FF8
381C
700C
600C
E002
C000
C000
C0FE
C0FE
C006
E004
600C
700C
3818
1FF8
0FE0
ENDCHAR
STARTCHAR A_I.dlig
ENCODING 64298
SWIDTH 1094 0
DWIDTH 26 0
BBX 25 17 0 0
BITMAP
03C07F80
03C07F80
03C00C00
06600C00
06600C00
06600C00
0C300C00
0C300C00
0C300C00
18180C00
1FF80C00
3FFC0C00
300C0C00
300C0C00
700E0C00
60067F80
E0077F80
ENDCHAR
STARTCHAR U_I.dlig
ENCODING 64299
SWIDTH 1115 0
DWIDTH 27 0
BBX 24 17 2 0
BITMAP
C018FF
C018FF
C01818
C01818
C01818
C01818
C01818
C01818
C01818
C01818
C01818
C01818
C03818
C03018
607018
7FE0FF
1FC0FF
ENDCHAR
STARTCHAR i.loclTRK
ENCODING 64300
SWIDTH 244 0
DWIDTH 6 0
BBX 2 17 2 0
BITMAP
C0
C0
00
00
C0
C0
C0
C0
C0
C0
C0
C0
C0
C0
C0
C0
C0
ENDCHAR
STARTCHAR uni006A0301
ENCODING 64301
SWIDTH 260 0
DWIDTH 6 0
BBX 6 21 0 -4
BITMAP
0C
18
30
00
30
30
30
30
30
30
30
30
30
30
30
30
30
30
30
F0
C0
ENDCHAR
STARTCHAR uni013C.loclMAH
ENCODING 64302
SWIDTH 267 0
DWIDTH 6 0
BBX 4 23 2 -6
BITMAP
C0
C0
C0
C0
C0
C0
C0
C0
C0
C0
C0
C0
C0
C0
C0
F0
70
00
E0
E0
60
40
80
ENDCHAR
STARTCHAR uni0146.loclMAH
ENCODING 64303
SWIDTH 581 0
DWIDTH 14 0
BBX 10 19 2 -6
BITMAP
CF00
FF80
E1C0
C0C0
C0C0
C0C0
C0C0
C0C0
C0C0
C0C0
C0C0
C0C0
C0C0
0000
0C00
0C00
0400
0800
1800
ENDCHAR
STARTCHAR a.ss01
ENCODING 64304
SWIDTH 558 0
DWIDTH 13 0
BBX 10 13 1 0
BITMAP
1F00
7F80
61C0
E0C0
00C0
03C0
3FC0
78C0
C0C0
C0C0
C1C0
FF40
7E40
ENDCHAR
STARTCHAR aacute.ss01
ENCODING 64305
SWIDTH 558 0
DWIDTH 13 0
BBX 10 17 1 0
BITMAP
0300
0600
0C00
0000
1F00
7F80
61C0
E0C0
00C0
03C0
3FC0
78C0
C0C0
C0C0
C1C0
FF40
7E40
ENDCHAR
STARTCHAR abreve.ss01
ENCODING 64306
SWIDTH 558 0
DWIDTH 13 0
BBX 10 18 1 0
BITMAP
2180
3100
1F00
0400
0000
1F00
7F80
61C0
E0C0
00C0
03C0
3FC0
78C0
C0C0
C0C0
C1C0
FF40
7E40
ENDCHAR
STARTCHAR uni01CE.ss01
ENCODING 64307
SWIDTH 558 0
DWIDTH 13 0
BBX 10 18 1 0
BITMAP
3180
1B00
1E00
0E00
0000
1F00
7F80
61C0
E0C0
00C0
03C0
3FC0
78C0
C0C0
C0C0
C1C0
FF40
7E40
ENDCHAR
STARTCHAR acircumflex.ss01
ENCODING 64308
SWIDTH 558 0
DWIDTH 13 0
BBX 10 18 1 0
BITMAP
0E00
0E00
1B00
3180
0000
1F00
7F80
61C0
E0C0
00C0
03C0
3FC0
78C0
C0C0
C0C0
C1C0
FF40
7E40
ENDCHAR
STARTCHAR adieresis.ss01
ENCODING 64309
SWIDTH 558 0
DWIDTH 13 0
BBX 10 17 1 0
BITMAP
3380
3380
0000
0000
1F00
7F80
61C0
E0C0
00C0
03C0
3FC0
78C0
C0C0
C0C0
C1C0
FF40
7E40
ENDCHAR
STARTCHAR agrave.ss01
ENCODING 64310
SWIDTH 558 0
DWIDTH 13 0
BBX 10 18 1 0
BITMAP
1800
1800
0C00
0400
0000
1F00
7F80
61C0
E0C0
00C0
03C0
3FC0
78C0
C0C0
C0C0
C1C0
FF40
7E40
ENDCHAR
STARTCHAR amacron.ss01
ENCODING 64311
SWIDTH 558 0
DWIDTH 13 0
BBX 10 17 1 0
BITMAP
3F80
3F80
0000
0000
1F00
7F80
61C0
E0C0
00C0
03C0
3FC0
78C0
C0C0
C0C0
C1C0
FF40
7E40
ENDCHAR
STARTCHAR aogonek.ss01
ENCODING 64312
SWIDTH 558 0
DWIDTH 13 0
BBX 11 18 1 -5
BITMAP
1F00
7F80
61C0
E0C0
00C0
03C0
3FC0
78C0
C0C0
C0C0
C1C0
FF40
7E40
00C0
0080
0180
01E0
01E0
ENDCHAR
STARTCHAR aring.ss01
ENCODING 64313
SWIDTH 558 0
DWIDTH 13 0
BBX 10 18 1 0
BITMAP
0E00
1300
1B00
0E00
0000
1F00
7F80
61C0
E0C0
00C0
03C0
3FC0
78C0
C0C0
C0C0
C1C0
FF40
7E40
ENDCHAR
STARTCHAR atilde.ss01
ENCODING 64314
SWIDTH 558 0
DWIDTH 13 0
BBX 10 18 1 0
BITMAP
0080
3C80
2780
2000
0000
1F00
7F80
61C0
E0C0
00C0
03C0
3FC0
78C0
C0C0
C0C0
C1C0
FF40
7E40
ENDCHAR
STARTCHAR a.ss02
ENCODING 64315
SWIDTH 595 0
DWIDTH 14 0
BBX 11 13 1 0
BITMAP
1F60
3FE0
70E0
6060
C060
C060
C060
C060
C060
E060
70E0
3FE0
1F20
ENDCHAR
STARTCHAR aacute.ss02
ENCODING 64316
SWIDTH 595 0
DWIDTH 14 0
BBX 11 17 1 0
BITMAP
0380
0200
0600
0000
1F60
3FE0
70E0
6060
C060
C060
C060
C060
C060
E060
70E0
3FE0
1F20
ENDCHAR
STARTCHAR abreve.ss02
ENCODING 64317
SWIDTH 595 0
DWIDTH 14 0
BBX 11 18 1 0
BITMAP
3080
1180
1F00
0400
0000
1F60
3FE0
70E0
6060
C060
C060
C060
C060
C060
E060
70E0
3FE0
1F20
ENDCHAR
STARTCHAR uni01CE.ss02
ENCODING 64318
SWIDTH 595 0
DWIDTH 14 0
BBX 11 18 1 0
BITMAP
1180
1900
0F00
0600
0000
1F60
3FE0
70E0
6060
C060
C060
C060
C060
C060
E060
70E0
3FE0
1F20
ENDCHAR
STARTCHAR acircumflex.ss02
ENCODING 64319
SWIDTH 595 0
DWIDTH 14 0
BBX 11 18 1 0
BITMAP
0600
0F00
1900
1180
0000
1F60
3FE0
70E0
6060
C060
C060
C060
C060
C060
E060
70E0
3FE0
1F20
ENDCHAR
STARTCHAR adieresis.ss02
ENCODING 64320
SWIDTH 595 0
DWIDTH 14 0
BBX 11 17 1 0
BITMAP
1980
1980
0000
0000
1F60
3FE0
70E0
6060
C060
C060
C060
C060
C060
E060
70E0
3FE0
1F20
ENDCHAR
STARTCHAR agrave.ss02
ENCODING 64321
SWIDTH 595 0
DWIDTH 14 0
BBX 11 18 1 0
BITMAP
1800
0C00
0C00
0600
0000
1F60
3FE0
70E0
6060
C060
C060
C060
C060
C060
E060
70E0
3FE0
1F20
ENDCHAR
STARTCHAR amacron.ss02
ENCODING 64322
SWIDTH 595 0
DWIDTH 14 0
BBX 11 17 1 0
BITMAP
1F80
1F80
0000
0000
1F60
3FE0
70E0
6060
C060
C060
C060
C060
C060
E060
70E0
3FE0
1F20
ENDCHAR
STARTCHAR aogonek.ss02
ENCODING 64323
SWIDTH 595 0
DWIDTH 14 0
BBX 12 18 1 -5
BITMAP
1F60
3FE0
70E0
6060
C060
C060
C060
C060
C060
E060
70E0
3FE0
1F20
0060
0040
00C0
00F0
00F0
ENDCHAR
STARTCHAR aring.ss02
ENCODING 64324
SWIDTH 595 0
DWIDTH 14 0
BBX 11 18 1 0
BITMAP
0E00
0900
0900
0E00
0000
1F60
3FE0
70E0
6060
C060
C060
C060
C060
C060
E060
70E0
3FE0
1F20
ENDCHAR
STARTCHAR atilde.ss02
ENCODING 64325
SWIDTH 595 0
DWIDTH 14 0
BBX 11 18 1 0
BITMAP
00C0
1C80
3780
2000
0000
1F60
3FE0
70E0
6060
C060
C060
C060
C060
C060
E060
70E0
3FE0
1F20
ENDCHAR
STARTCHAR l.ss03
ENCODING 64326
SWIDTH 268 0
DWIDTH 6 0
BBX 2 17 2 0
BITMAP
C0
C0
C0
C0
C0
C0
C0
C0
C0
C0
C0
C0
C0
C0
C0
C0
C0
ENDCHAR
STARTCHAR lacute.ss03
ENCODING 64327
SWIDTH 268 0
DWIDTH 6 0
BBX 4 21 2 0
BITMAP
70
60
C0
00
C0
C0
C0
C0
C0
C0
C0
C0
C0
C0
C0
C0
C0
C0
C0
C0
C0
ENDCHAR
STARTCHAR lcaron.ss03
ENCODING 64328
SWIDTH 320 0
DWIDTH 8 0
BBX 6 17 2 0
BITMAP
CC
CC
CC
C8
C8
D8
C0
C0
C0
C0
C0
C0
C0
C0
C0
C0
C0
ENDCHAR
STARTCHAR uni013C.ss03
ENCODING 64329
SWIDTH 268 0
DWIDTH 6 0
BBX 2 23 2 -6
BITMAP
C0
C0
C0
C0
C0
C0
C0
C0
C0
C0
C0
C0
C0
C0
C0
C0
C0
00
C0
C0
40
C0
80
ENDCHAR
STARTCHAR lslash.ss03
ENCODING 64330
SWIDTH 268 0
DWIDTH 6 0
BBX 6 17 0 0
BITMAP
30
30
30
30
30
34
3C
38
F0
B0
30
30
30
30
30
30
30
ENDCHAR
STARTCHAR adieresis.ss08
ENCODING 64331
SWIDTH 551 0
DWIDTH 13 0
BBX 12 17 1 0
BITMAP
1180
3980
0000
0000
1F00
3F80
60C0
E0C0
0060
03E0
3FE0
7860
E0E0
C0E0
C1E0
F770
7E70
ENDCHAR
STARTCHAR cdotaccent.ss08
ENCODING 64332
SWIDTH 546 0
DWIDTH 13 0
BBX 11 17 1 0
BITMAP
0600
0600
0000
0000
1F00
3FC0
70E0
6060
C040
C000
C000
C000
C040
E060
70E0
3FC0
1F80
ENDCHAR
STARTCHAR edieresis.ss08
ENCODING 64333
SWIDTH 561 0
DWIDTH 13 0
BBX 11 17 1 0
BITMAP
1980
1980
0000
0000
1F00
3FC0
70C0
6060
C060
FFE0
FFE0
C000
C000
E060
60E0
3FC0
1F80
ENDCHAR
STARTCHAR edotaccent.ss08
ENCODING 64334
SWIDTH 561 0
DWIDTH 13 0
BBX 11 17 1 0
BITMAP
0600
0600
0000
0000
1F00
3FC0
70C0
6060
C060
FFE0
FFE0
C000
C000
E060
60E0
3FC0
1F80
ENDCHAR
STARTCHAR gdotaccent.ss08
ENCODING 64335
SWIDTH 594 0
DWIDTH 14 0
BBX 11 21 1 -4
BITMAP
0600
0600
0000
0000
1F60
3FE0
70E0
E060
C060
C060
C060
C060
E060
60E0
7FE0
1F60
0060
E060
70E0
3FC0
0F00
ENDCHAR
STARTCHAR i.ss08
ENCODING 64336
SWIDTH 244 0
DWIDTH 6 0
BBX 2 17 2 0
BITMAP
C0
C0
00
00
C0
C0
C0
C0
C0
C0
C0
C0
C0
C0
C0
C0
C0
ENDCHAR
STARTCHAR idieresis.ss08
ENCODING 64337
SWIDTH 244 0
DWIDTH 6 0
BBX 6 17 0 0
BITMAP
CC
CC
00
00
30
30
30
30
30
30
30
30
30
30
30
30
30
ENDCHAR
STARTCHAR i.loclTRK.ss08
ENCODING 64338
SWIDTH 244 0
DWIDTH 6 0
BBX 2 17 2 0
BITMAP
C0
C0
00
00
C0
C0
C0
C0
C0
C0
C0
C0
C0
C0
C0
C0
C0
ENDCHAR
STARTCHAR iogonek.ss08
ENCODING 64339
SWIDTH 244 0
DWIDTH 6 0
BBX 5 22 0 -5
BITMAP
30
30
00
00
30
30
30
30
30
30
30
30
30
30
30
30
30
30
60
40
F0
78
ENDCHAR
STARTCHAR ij.ss08
ENCODING 64340
SWIDTH 494 0
DWIDTH 12 0
BBX 8 21 2 -4
BITMAP
C3
C3
00
00
C3
C3
C3
C3
C3
C3
C3
C3
C3
C3
C3
C3
C3
03
03
1F
1C
ENDCHAR
STARTCHAR j.ss08
ENCODING 64341
SWIDTH 260 0
DWIDTH 6 0
BBX 4 21 0 -4
BITMAP
30
30
00
00
30
30
30
30
30
30
30
30
30
30
30
30
30
30
30
F0
C0
ENDCHAR
STARTCHAR odieresis.ss08
ENCODING 64342
SWIDTH 573 0
DWIDTH 14 0
BBX 12 17 1 0
BITMAP
1980
1980
0000
0000
1F00
3FC0
70E0
6060
C060
C070
C030
C030
C070
E060
70E0
3FC0
1F80
ENDCHAR
STARTCHAR udieresis.ss08
ENCODING 64343
SWIDTH 575 0
DWIDTH 14 0
BBX 10 17 2 0
BITMAP
3300
3300
0000
0000
C0C0
C0C0
C0C0
C0C0
C0C0
C0C0
C0C0
C0C0
C0C0
C0C0
C1C0
7FC0
3EC0
ENDCHAR
STARTCHAR wdieresis.ss08
ENCODING 64344
SWIDTH 819 0
DWIDTH 20 0
BBX 18 17 1 0
BITMAP
033000
033000
000000
000000
C0C0C0
C1C0C0
C1E180
61E180
616180
636380
633300
333300
363300
361E00
1E1E00
1C1E00
1C1C00
ENDCHAR
STARTCHAR ydieresis.ss08
ENCODING 64345
SWIDTH 537 0
DWIDTH 13 0
BBX 11 21 1 -4
BITMAP
3180
3380
0000
0000
C060
C060
E0E0
60C0
60C0
7180
3180
3180
1B00
1B00
1B00
0E00
0E00
0600
0C00
7C00
7000
ENDCHAR
STARTCHAR zdotaccent.ss08
ENCODING 64346
SWIDTH 549 0
DWIDTH 13 0
BBX 11 17 1 0
BITMAP
0600
0E00
0000
0000
7FE0
7FE0
00C0
01C0
0380
0700
0E00
1C00
1800
3000
6000
FFE0
FFE0
ENDCHAR
STARTCHAR adieresis.ss01.ss08
ENCODING 64347
SWIDTH 558 0
DWIDTH 13 0
BBX 10 17 1 0
BITMAP
3100
3380
0000
0000
1F00
7F80
61C0
E0C0
00C0
03C0
3FC0
78C0
C0C0
C0C0
C1C0
FF40
7E40
ENDCHAR
STARTCHAR adieresis.ss02.ss08
ENCODING 64348
SWIDTH 595 0
DWIDTH 14 0
BBX 11 17 1 0
BITMAP
1980
1980
0000
0000
1F60
3FE0
70E0
6060
C060
C060
C060
C060
C060
E060
70E0
3FE0
1F20
ENDCHAR
STARTCHAR f_f.liga
ENCODING 64349
SWIDTH 683 0
DWIDTH 16 0
BBX 14 17 1 0
BITMAP
1F3C
1F7C
3060
3060
FFFC
FFFC
3060
3060
3060
3060
3060
3060
3060
3060
3060
3060
3060
ENDCHAR
STARTCHAR t_t.liga
ENCODING 64350
SWIDTH 693 0
DWIDTH 17 0
BBX 15 16 1 0
BITMAP
3060
3060
3060
FFFE
FFFE
3060
3060
3060
3060
3060
3060
3060
3060
3070
3F3E
1F1E
ENDCHAR
STARTCHAR uni0406.ss05
ENCODING 64351
SWIDTH 426 0
DWIDTH 10 0
BBX 8 17 1 0
BITMAP
FF
FF
18
18
18
18
18
18
18
18
18
18
18
18
18
FF
FF
ENDCHAR
STARTCHAR uni0407.ss05
ENCODING 64352
SWIDTH 426 0
DWIDTH 10 0
BBX 8 21 1 0
BITMAP
66
66
00
00
FF
FF
18
18
18
18
18
18
18
18
18
18
18
18
18
FF
FF
ENDCHAR
STARTCHAR uni04C0.ss05
ENCODING 64353
SWIDTH 426 0
DWIDTH 10 0
BBX 8 17 1 0
BITMAP
FF
FF
18
18
18
18
18
18
18
18
18
18
18
18
18
FF
FF
ENDCHAR
STARTCHAR uni0401.ss08
ENCODING 64354
SWIDTH 603 0
DWIDTH 14 0
BBX 11 21 2 0
BITMAP
1180
3980
0000
0000
FFE0
FFE0
C000
C000
C000
C000
C000
FFE0
FFE0
C000
C000
C000
C000
C000
C000
FFE0
FFE0
ENDCHAR
STARTCHAR uni0407.ss08
ENCODING 64355
SWIDTH 270 0
DWIDTH 6 0
BBX 7 21 0 0
BITMAP
CC
CE
00
00
30
30
30
30
30
30
30
30
30
30
30
30
30
30
30
30
30
ENDCHAR
STARTCHAR uni0407.ss05.ss08
ENCODING 64356
SWIDTH 426 0
DWIDTH 10 0
BBX 8 21 1 0
BITMAP
66
66
00
00
FF
FF
18
18
18
18
18
18
18
18
18
18
18
18
18
FF
FF
ENDCHAR
STARTCHAR uni0430.ss01
ENCODING 64357
SWIDTH 558 0
DWIDTH 13 0
BBX 10 13 1 0
BITMAP
1F00
7F80
61C0
E0C0
00C0
03C0
3FC0
78C0
C0C0
C0C0
C1C0
FF40
7E40
ENDCHAR
STARTCHAR uni0430.ss02
ENCODING 64358
SWIDTH 595 0
DWIDTH 14 0
BBX 11 13 1 0
BITMAP
1F60
3FE0
70E0
6060
C060
C060
C060
C060
C060
E060
70E0
3FE0
1F20
ENDCHAR
STARTCHAR uni0451.ss08
ENCODING 64359
SWIDTH 561 0
DWIDTH 13 0
BBX 11 17 1 0
BITMAP
1980
1980
0000
0000
1F00
3FC0
70C0
6060
C060
FFE0
FFE0
C000
C000
E060
60E0
3FC0
1F80
ENDCHAR
STARTCHAR uni0456.ss08
ENCODING 64360
SWIDTH 244 0
DWIDTH 6 0
BBX 2 17 2 0
BITMAP
C0
C0
00
00
C0
C0
C0
C0
C0
C0
C0
C0
C0
C0
C0
C0
C0
ENDCHAR
STARTCHAR uni0457.ss08
ENCODING 64361
SWIDTH 244 0
DWIDTH 6 0
BBX 6 17 0 0
BITMAP
CC
CC
00
00
30
30
30
30
30
30
30
30
30
30
30
30
30
ENDCHAR
STARTCHAR zero.ss09
ENCODING 64362
SWIDTH 663 0
DWIDTH 16 0
BBX 14 17 1 0
BITMAP
0FC0
3FE0
3070
7078
60D8
E0D8
C19C
C18C
C30C
C71C
C61C
EC18
6C18
7838
3830
3FE0
0FC0
ENDCHAR
STARTCHAR one.ss09
ENCODING 64363
SWIDTH 394 0
DWIDTH 9 0
BBX 9 17 0 0
BITMAP
0C00
0C00
3C00
FC00
0C00
0C00
0C00
0C00
0C00
0C00
0C00
0C00
0C00
0C00
0C00
FF80
FF80
ENDCHAR
STARTCHAR zero.tf
ENCODING 64364
SWIDTH 600 0
DWIDTH 14 0
BBX 12 17 1 0
BITMAP
1F80
3FC0
7060
6070
E030
C030
C030
C030
C030
C030
C030
C030
E030
6070
7060
3FC0
1F80
ENDCHAR
STARTCHAR one.tf
ENCODING 64365
SWIDTH 600 0
DWIDTH 14 0
BBX 9 17 3 0
BITMAP
0C00
0C00
3C00
FC00
0C00
0C00
0C00
0C00
0C00
0C00
0C00
0C00
0C00
0C00
0C00
FF80
FF80
ENDCHAR
STARTCHAR two.tf
ENCODING 64366
SWIDTH 600 0
DWIDTH 14 0
BBX 12 17 1 0
BITMAP
1FC0
3FE0
7070
6030
6030
8030
0030
00E0
01E0
0780
0E00
3C00
3000
7000
6000
FFF0
FFF0
ENDCHAR
STARTCHAR three.tf
ENCODING 64367
SWIDTH 600 0
DWIDTH 14 0
BBX 12 17 1 0
BITMAP
1FC0
7FE0
6060
E070
0030
0070
00E0
07C0
07C0
0060
0030
0030
4030
C030
E070
7FE0
3FC0
ENDCHAR
STARTCHAR four.tf
ENCODING 64368
SWIDTH 600 0
DWIDTH 14 0
BBX 13 17 1 0
BITMAP
00C0
01C0
03C0
03C0
06C0
0EC0
1CC0
18C0
30C0
70C0
E0C0
FFF8
FFF8
00C0
00C0
00C0
00C0
ENDCHAR
STARTCHAR five.tf
ENCODING 64369
SWIDTH 600 0
DWIDTH 14 0
BBX 13 17 1 0
BITMAP
3FE0
3FE0
7000
7000
6000
6000
6FC0
7FE0
7070
6030
0030
0038
A030
6030
7070
3FE0
1FC0
ENDCHAR
STARTCHAR six.tf
ENCODING 64370
SWIDTH 600 0
DWIDTH 14 0
BBX 12 17 1 0
BITMAP
0FC0
1FE0
3870
7030
6000
6000
6FC0
FFE0
F070
E030
E030
E030
6030
6030
7070
3FE0
1FC0
ENDCHAR
STARTCHAR seven.tf
ENCODING 64371
SWIDTH 610 0
DWIDTH 15 0
BBX 12 17 1 0
BITMAP
FFF0
FFF0
0070
0060
00C0
0180
0180
0300
0300
0600
0600
0600
0C00
0C00
0C00
0C00
0C00
ENDCHAR
STARTCHAR eight.tf
ENCODING 64372
SWIDTH 600 0
DWIDTH 14 0
BBX 12 17 1 0
BITMAP
3F80
7FC0
6060
E060
E060
6060
70E0
3FC0
3FC0
6060
C030
C030
C030
C030
E070
7FE0
3FC0
ENDCHAR
STARTCHAR nine.tf
ENCODING 64373
SWIDTH 600 0
DWIDTH 14 0
BBX 12 17 1 0
BITMAP
1FC0
3FE0
7060
6030
E030
E030
E030
6030
7070
3FF0
1FB0
0630
0030
0060
60E0
7FC0
1F80
ENDCHAR
STARTCHAR zero.dnom
ENCODING 64374
SWIDTH 392 0
DWIDTH 9 0
BBX 7 9 1 0
BITMAP
3C
66
CE
CA
DA
F2
E2
66
7C
ENDCHAR
STARTCHAR one.dnom
ENCODING 64375
SWIDTH 242 0
DWIDTH 6 0
BBX 4 9 0 0
BITMAP
10
10
F0
10
10
10
10
10
10
ENDCHAR
STARTCHAR two.dnom
ENCODING 64376
SWIDTH 348 0
DWIDTH 8 0
BBX 6 9 1 0
BITMAP
7C
CC
C4
04
1C
70
C0
C0
FC
ENDCHAR
STARTCHAR three.dnom
ENCODING 64377
SWIDTH 332 0
DWIDTH 8 0
BBX 7 9 0 0
BITMAP
3C
66
06
0C
1C
06
82
46
7C
ENDCHAR
STARTCHAR four.dnom
ENCODING 64378
SWIDTH 330 0
DWIDTH 8 0
BBX 7 9 0 0
BITMAP
0C
1C
14
34
64
C4
FE
04
04
ENDCHAR
STARTCHAR five.dnom
ENCODING 64379
SWIDTH 345 0
DWIDTH 8 0
BBX 7 9 1 0
BITMAP
7C
40
C0
F8
EC
04
06
C4
7C
ENDCHAR
STARTCHAR six.dnom
ENCODING 64380
SWIDTH 370 0
DWIDTH 9 0
BBX 7 9 1 0
BITMAP
3C
66
C0
FC
CE
C6
C6
C6
7C
ENDCHAR
STARTCHAR seven.dnom
ENCODING 64381
SWIDTH 300 0
DWIDTH 7 0
BBX 7 9 0 0
BITMAP
FE
04
0C
08
18
10
30
30
30
ENDCHAR
STARTCHAR eight.dnom
ENCODING 64382
SWIDTH 350 0
DWIDTH 8 0
BBX 7 9 1 0
BITMAP
7C
CC
C4
7C
78
C4
86
C6
FC
ENDCHAR
STARTCHAR nine.dnom
ENCODING 64383
SWIDTH 370 0
DWIDTH 9 0
BBX 7 9 1 0
BITMAP
7C
C4
C6
C6
EE
7E
06
CC
78
ENDCHAR
STARTCHAR zero.numr
ENCODING 64384
SWIDTH 392 0
DWIDTH 9 0
BBX 7 9 1 8
BITMAP
3C
66
CE
CA
DA
F2
E2
66
7C
ENDCHAR
STARTCHAR one.numr
ENCODING 64385
SWIDTH 242 0
DWIDTH 6 0
BBX 4 9 0 8
BITMAP
10
10
F0
10
10
10
10
10
10
ENDCHAR
STARTCHAR two.numr
ENCODING 64386
SWIDTH 348 0
DWIDTH 8 0
BBX 6 9 1 8
BITMAP
7C
CC
C4
04
1C
70
C0
C0
FC
ENDCHAR
STARTCHAR three.numr
ENCODING 64387
SWIDTH 332 0
DWIDTH 8 0
BBX 7 9 0 8
BITMAP
3C
66
06
0C
1C
06
82
46
7C
ENDCHAR
STARTCHAR four.numr
ENCODING 64388
SWIDTH 330 0
DWIDTH 8 0
BBX 7 9 0 8
BITMAP
0C
1C
14
34
64
C4
FE
04
04
ENDCHAR
STARTCHAR five.numr
ENCODING 64389
SWIDTH 345 0
DWIDTH 8 0
BBX 7 9 1 8
BITMAP
7C
40
C0
F8
EC
04
06
C4
7C
ENDCHAR
STARTCHAR six.numr
ENCODING 64390
SWIDTH 370 0
DWIDTH 9 0
BBX 7 9 1 8
BITMAP
3C
66
C0
FC
CE
C6
C6
C6
7C
ENDCHAR
STARTCHAR seven.numr
ENCODING 64391
SWIDTH 300 0
DWIDTH 7 0
BBX 7 9 0 8
BITMAP
FE
04
0C
08
18
10
30
30
30
ENDCHAR
STARTCHAR eight.numr
ENCODING 64392
SWIDTH 350 0
DWIDTH 8 0
BBX 7 9 1 8
BITMAP
7C
CC
C4
7C
78
C4
86
C6
FC
ENDCHAR
STARTCHAR nine.numr
ENCODING 64393
SWIDTH 370 0
DWIDTH 9 0
BBX 7 9 1 8
BITMAP
7C
C4
C6
C6
C6
7E
06
C4
7C
ENDCHAR
STARTCHAR hyphen_hyphen_hyphen_greater.liga
ENCODING 64394
SWIDTH 2400 0
DWIDTH 58 0
BBX 55 15 1 1
BITMAP
00000000000700
00000000000380
000000000001C0
000000000000E0
00000000000070
00000000000038
0000000000001C
FFFFFFFFFFFFFE
0000000000001C
00000000000038
00000000000070
000000000000E0
000000000001C0
00000000000380
00000000000700
ENDCHAR
STARTCHAR hyphen_hyphen_greater.liga
ENCODING 64395
SWIDTH 1800 0
DWIDTH 43 0
BBX 41 15 1 1
BITMAP
00000001C000
00000000E000
000000007000
000000003800
000000001C00
000000000E00
000000000700
FFFFFFFFFF80
000000000700
000000000E00
000000001C00
000000003800
000000007000
00000000E000
00000001C000
ENDCHAR
STARTCHAR hyphen_greater.liga
ENCODING 64396
SWIDTH 1200 0
DWIDTH 29 0
BBX 26 15 1 1
BITMAP
0000E000
00003000
00001800
00000C00
00000600
00000300
00000180
FFFFFFC0
00000180
00000300
00000600
00000C00
00001800
00003000
0000E000
ENDCHAR
STARTCHAR periodcentered.loclCAT
ENCODING 64397
SWIDTH 147 0
DWIDTH 4 0
BBX 3 3 0 6
BITMAP
E0
E0
E0
ENDCHAR
STARTCHAR period.ss08
ENCODING 64398
SWIDTH 216 0
DWIDTH 5 0
BBX 3 3 1 0
BITMAP
40
E0
E0
ENDCHAR
STARTCHAR colon.ss08
ENCODING 64399
SWIDTH 312 0
DWIDTH 7 0
BBX 3 12 2 0
BITMAP
60
E0
E0
00
00
00
00
00
00
60
E0
E0
ENDCHAR
STARTCHAR semicolon.ss08
ENCODING 64400
SWIDTH 312 0
DWIDTH 7 0
BBX 3 16 2 -4
BITMAP
60
E0
E0
00
00
00
00
00
00
E0
E0
E0
60
40
40
C0
ENDCHAR
STARTCHAR ellipsis.ss08
ENCODING 64401
SWIDTH 592 0
DWIDTH 14 0
BBX 12 3 1 0
BITMAP
4620
E770
E670
ENDCHAR
STARTCHAR exclam.ss08
ENCODING 64402
SWIDTH 216 0
DWIDTH 5 0
BBX 3 17 1 0
BITMAP
60
60
60
60
60
60
60
60
60
60
40
40
00
00
40
E0
E0
ENDCHAR
STARTCHAR exclamdown.ss08
ENCODING 64403
SWIDTH 216 0
DWIDTH 5 0
BBX 3 17 1 -4
BITMAP
E0
E0
40
00
00
40
40
60
60
60
60
60
60
60
60
60
60
ENDCHAR
STARTCHAR question.ss08
ENCODING 64404
SWIDTH 559 0
DWIDTH 13 0
BBX 11 17 1 0
BITMAP
1F80
7FC0
60E0
E060
C060
0060
00E0
01C0
0380
0700
0600
0600
0000
0000
0400
0E00
0E00
ENDCHAR
STARTCHAR questiondown.ss08
ENCODING 64405
SWIDTH 559 0
DWIDTH 13 0
BBX 11 18 1 -4
BITMAP
0400
0E00
0E00
0000
0000
0600
0600
0C00
1C00
3800
6000
E000
C060
C060
E0E0
71C0
3F80
1F00
ENDCHAR
STARTCHAR periodcentered.ss08
ENCODING 64406
SWIDTH 216 0
DWIDTH 5 0
BBX 3 3 1 6
BITMAP
40
E0
E0
ENDCHAR
STARTCHAR periodcentered.loclCAT.case
ENCODING 64407
SWIDTH 201 0
DWIDTH 5 0
BBX 3 3 1 7
BITMAP
E0
E0
E0
ENDCHAR
STARTCHAR periodcentered.loclCAT.ss08
ENCODING 64408
SWIDTH 120 0
DWIDTH 3 0
BBX 3 3 0 6
BITMAP
40
E0
E0
ENDCHAR
STARTCHAR periodcentered.loclCAT.case.ss08
ENCODING 64409
SWIDTH 196 0
DWIDTH 5 0
BBX 3 3 1 7
BITMAP
40
E0
E0
ENDCHAR
STARTCHAR less_hyphen.liga
ENCODING 64410
SWIDTH 1200 0
DWIDTH 29 0
BBX 26 15 1 1
BITMAP
01E00000
03800000
07000000
0E000000
1C000000
38000000
70000000
FFFFFFC0
70000000
38000000
1C000000
0E000000
07000000
03800000
00E00000
ENDCHAR
STARTCHAR less_hyphen_hyphen.liga
ENCODING 64411
SWIDTH 1800 0
DWIDTH 43 0
BBX 41 15 1 1
BITMAP
01E000000000
038000000000
070000000000
0E0000000000
1C0000000000
380000000000
700000000000
FFFFFFFFFF80
700000000000
380000000000
1C0000000000
0E0000000000
070000000000
038000000000
00E000000000
ENDCHAR
STARTCHAR less_hyphen_hyphen_hyphen.liga
ENCODING 64412
SWIDTH 2400 0
DWIDTH 58 0
BBX 55 15 1 1
BITMAP
01E00000000000
03800000000000
07000000000000
0E000000000000
1C000000000000
38000000000000
70000000000000
FFFFFFFFFFFFFE
70000000000000
38000000000000
1C000000000000
0E000000000000
07000000000000
03800000000000
00E00000000000
ENDCHAR
STARTCHAR less_hyphen_greater.liga
ENCODING 64413
SWIDTH 1800 0
DWIDTH 43 0
BBX 41 15 1 1
BITMAP
01E00001C000
03800000E000
070000007000
0E0000003800
1C0000001C00
380000000E00
700000000700
FFFFFFFFFF80
700000000700
380000000E00
1C0000001C00
0E0000003800
070000007000
03800000E000
00E00001C000
ENDCHAR
STARTCHAR arrowup.ss07
ENCODING 64414
SWIDTH 411 0
DWIDTH 10 0
BBX 8 17 1 0
BITMAP
10
18
3C
7E
FF
18
18
18
18
18
18
18
18
18
18
18
18
ENDCHAR
STARTCHAR uni2197.ss07
ENCODING 64415
SWIDTH 597 0
DWIDTH 14 0
BBX 12 12 1 5
BITMAP
03F0
01F0
00F0
01F0
03B0
0710
0E00
1C00
3800
7000
E000
4000
ENDCHAR
STARTCHAR arrowright.ss07
ENCODING 64416
SWIDTH 766 0
DWIDTH 18 0
BBX 16 8 1 5
BITMAP
0010
0008
000C
FFFE
FFFF
000E
000C
0010
ENDCHAR
STARTCHAR uni2198.ss07
ENCODING 64417
SWIDTH 597 0
DWIDTH 14 0
BBX 12 12 1 0
BITMAP
4000
E000
7000
3800
1C00
0E00
0710
03B0
01F0
00F0
01F0
02F0
ENDCHAR
STARTCHAR arrowdown.ss07
ENCODING 64418
SWIDTH 411 0
DWIDTH 10 0
BBX 8 17 1 0
BITMAP
18
18
18
18
18
18
18
18
18
18
18
18
FF
7C
3C
18
10
ENDCHAR
STARTCHAR uni2199.ss07
ENCODING 64419
SWIDTH 597 0
DWIDTH 14 0
BBX 12 12 1 0
BITMAP
0030
0070
00E0
01C0
0380
0700
8E00
DC00
F800
F000
F800
F400
ENDCHAR
STARTCHAR arrowleft.ss07
ENCODING 64420
SWIDTH 766 0
DWIDTH 18 0
BBX 16 8 1 5
BITMAP
0800
1800
3800
7FFF
FFFF
3800
1800
0800
ENDCHAR
STARTCHAR uni2196.ss07
ENCODING 64421
SWIDTH 597 0
DWIDTH 14 0
BBX 12 12 1 5
BITMAP
FC00
F800
F000
F800
5C00
8E00
0700
0380
01C0
00E0
0070
0020
ENDCHAR
STARTCHAR arrowboth.ss07
ENCODING 64422
SWIDTH 834 0
DWIDTH 20 0
BBX 18 8 1 4
BITMAP
080400
180600
380700
FFFFC0
7FFF80
380700
180600
080400
ENDCHAR
STARTCHAR arrowupdn.ss07
ENCODING 64423
SWIDTH 412 0
DWIDTH 10 0
BBX 8 18 1 -1
BITMAP
18
3C
3C
7E
99
18
18
18
18
18
18
18
18
FF
7C
3C
18
10
ENDCHAR
STARTCHAR uni030C.alt
ENCODING 64424
SWIDTH 0 0
DWIDTH 0 0
BBX 3 6 1 11
BITMAP
60
60
40
C0
C0
C0
ENDCHAR
STARTCHAR uni0326.loclMAH
ENCODING 64425
SWIDTH 0 0
DWIDTH 0 0
BBX 3 5 1 -6
BITMAP
60
60
60
40
C0
ENDCHAR
STARTCHAR uni0335.case
ENCODING 64426
SWIDTH 0 0
DWIDTH 0 0
BBX 9 2 3 7
BITMAP
FF80
FF80
ENDCHAR
STARTCHAR uni0337.case
ENCODING 64427
SWIDTH 0 0
DWIDTH 0 0
BBX 7 5 1 7
BITMAP
02
0E
38
E0
C0
ENDCHAR
STARTCHAR uni0338.case
ENCODING 64428
SWIDTH 0 0
DWIDTH 0 0
BBX 14 17 1 0
BITMAP
001C
0018
0030
0060
0060
00C0
0180
0180
0300
0600
0600
0C00
1800
1800
3000
6000
E000
ENDCHAR
STARTCHAR uni0308.ss08
ENCODING 64429
SWIDTH 0 0
DWIDTH 0 0
BBX 7 2 1 15
BITMAP
C4
CE
ENDCHAR
STARTCHAR uni0307.ss08
ENCODING 64430
SWIDTH 0 0
DWIDTH 0 0
BBX 2 2 1 15
BITMAP
C0
C0
ENDCHAR
STARTCHAR dieresis.ss08
ENCODING 64431
SWIDTH 364 0
DWIDTH 9 0
BBX 7 2 1 15
BITMAP
C4
CE
ENDCHAR
STARTCHAR dotaccent.ss08
ENCODING 64432
SWIDTH 184 0
DWIDTH 4 0
BBX 2 2 1 15
BITMAP
C0
C0
ENDCHAR
STARTCHAR blackCircledStroke
ENCODING 64433
SWIDTH 828 0
DWIDTH 20 0
BBX 18 17 1 0
BITMAP
07F800
1E3C00
380600
300300
600180
400180
C000C0
C000C0
C000C0
C000C0
C000C0
600180
600180
300300
380600
0FFC00
07F800
ENDCHAR
ENDFONT
